<svg xmlns="http://www.w3.org/2000/svg" viewBox="0 0 1343.58 744.7"><defs><style>.cls-1{fill:#f5fff5;}.cls-2,.cls-3,.cls-4,.cls-5{fill:#efffef;}.cls-2{stroke:#dfffdf;}.cls-2,.cls-4,.cls-5{stroke-miterlimit:10;}.cls-4{stroke:#cfc;}.cls-5{stroke:#efffef;}</style></defs><title>chevron8</title><g id="Layer_2" data-name="Layer 2"><g id="Layer_1-2" data-name="Layer 1"><rect class="cls-1" x="2.58" width="1341" height="742"/><polygon class="cls-2" points="301.34 350.66 278.3 369.87 282.15 405.72 316.73 415.96 339.77 396.75 305.19 386.51 301.34 350.66"/><polygon class="cls-3" points="333.47 325.17 310.43 344.39 314.28 380.24 348.86 390.47 371.9 371.26 337.32 361.02 333.47 325.17"/><polygon class="cls-2" points="363.43 300.2 340.39 319.41 344.24 355.26 378.81 365.49 401.85 346.28 367.28 336.05 363.43 300.2"/><polygon class="cls-3" points="208.54 426.74 185.5 445.95 189.35 481.8 223.92 492.04 246.96 472.82 212.39 462.59 208.54 426.74"/><polygon class="cls-2" points="240.67 401.25 217.63 420.46 221.48 456.31 256.05 466.55 279.09 447.34 244.52 437.1 240.67 401.25"/><polygon class="cls-2" points="270.62 376.28 247.58 395.49 251.43 431.34 286 441.57 309.05 422.36 274.47 412.13 270.62 376.28"/><polygon class="cls-2" points="116.37 503.59 93.33 522.8 97.18 558.65 131.75 568.88 154.8 549.67 120.22 539.44 116.37 503.59"/><polygon class="cls-2" points="148.5 478.1 125.46 497.31 129.31 533.16 163.88 543.4 186.93 524.18 152.35 513.95 148.5 478.1"/><polygon class="cls-2" points="178.46 453.13 155.41 472.34 159.27 508.19 193.84 518.42 216.88 499.21 182.31 488.98 178.46 453.13"/><polygon class="cls-2" points="23.57 579.67 0.53 598.88 4.38 634.73 38.95 644.96 61.99 625.75 27.42 615.52 23.57 579.67"/><polygon class="cls-2" points="55.7 554.18 32.66 573.39 36.51 609.24 71.08 619.48 94.12 600.26 59.55 590.03 55.7 554.18"/><polygon class="cls-3" points="85.65 529.21 62.61 548.42 66.46 584.27 101.03 594.5 124.08 575.29 89.5 565.05 85.65 529.21"/><polygon class="cls-2" points="674.34 41.66 651.3 60.87 655.15 96.72 689.73 106.96 712.77 87.75 678.19 77.51 674.34 41.66"/><polygon class="cls-3" points="706.47 16.17 683.43 35.39 687.28 71.23 721.86 81.47 744.9 62.26 710.33 52.02 706.47 16.17"/><polygon class="cls-3" points="581.54 117.74 558.5 136.95 562.35 172.8 596.92 183.04 619.96 163.82 585.39 153.59 581.54 117.74"/><polygon class="cls-2" points="613.67 92.25 590.63 111.47 594.48 147.31 629.05 157.55 652.09 138.34 617.52 128.1 613.67 92.25"/><polygon class="cls-2" points="643.62 67.28 620.58 86.49 624.43 122.34 659 132.57 682.04 113.36 647.47 103.13 643.62 67.28"/><polygon class="cls-2" points="489.37 194.59 466.33 213.8 470.18 249.65 504.75 259.88 527.8 240.67 493.22 230.44 489.37 194.59"/><polygon class="cls-2" points="521.5 169.1 498.46 188.31 502.31 224.16 536.88 234.4 559.93 215.18 525.35 204.95 521.5 169.1"/><polygon class="cls-2" points="551.46 144.13 528.41 163.34 532.27 199.19 566.84 209.42 589.88 190.21 555.31 179.97 551.46 144.13"/><polygon class="cls-2" points="396.57 270.67 373.53 289.88 377.38 325.73 411.95 335.96 434.99 316.75 400.42 306.52 396.57 270.67"/><polygon class="cls-2" points="428.7 245.18 405.66 264.39 409.51 300.24 444.08 310.48 467.12 291.26 432.55 281.03 428.7 245.18"/><polygon class="cls-3" points="458.65 220.21 435.61 239.42 439.46 275.27 474.03 285.5 497.07 266.29 462.5 256.06 458.65 220.21"/><polygon class="cls-2" points="302.35 639.43 325.66 620.55 322.32 584.64 287.89 573.92 264.58 592.81 299.01 603.53 302.35 639.43"/><polygon class="cls-4" points="269.86 664.46 293.17 645.58 289.83 609.67 255.41 598.95 232.09 617.84 266.52 628.56 269.86 664.46"/><polygon class="cls-2" points="239.56 689.01 262.87 670.12 259.52 634.22 225.1 623.5 201.79 642.38 236.21 653.11 239.56 689.01"/><polygon class="cls-2" points="396.23 564.67 419.54 545.79 416.19 509.89 381.77 499.17 358.46 518.05 392.88 528.77 396.23 564.67"/><polygon class="cls-3" points="363.74 589.7 387.05 570.82 383.71 534.92 349.28 524.2 325.97 543.08 360.39 553.8 363.74 589.7"/><polygon class="cls-2" points="333.43 614.25 356.74 595.37 353.4 559.47 318.98 548.75 295.67 567.63 330.09 578.35 333.43 614.25"/><polygon class="cls-2" points="489.47 489.14 512.78 470.26 509.44 434.36 475.02 423.63 451.7 442.52 486.13 453.24 489.47 489.14"/><polygon class="cls-3" points="461.34 502.22 479.56 487.45 476.95 459.39 450.04 451 431.81 465.77 458.73 474.15 461.34 502.22"/><polygon class="cls-2" points="426.68 538.72 449.99 519.84 446.65 483.94 412.22 473.21 388.91 492.1 423.34 502.82 426.68 538.72"/><polygon class="cls-3" points="198.34 707.22 216.56 692.46 213.95 664.39 187.04 656 168.81 670.77 195.73 679.15 198.34 707.22"/><polygon class="cls-2" points="163.68 743.72 186.99 724.84 183.65 688.94 149.22 678.21 125.91 697.1 160.34 707.82 163.68 743.72"/><polygon class="cls-2" points="583.35 414.39 606.66 395.5 603.32 359.6 568.89 348.88 545.58 367.76 580 378.49 583.35 414.39"/><polygon class="cls-2" points="550.86 439.42 574.17 420.53 570.83 384.63 536.4 373.91 513.09 392.79 547.52 403.52 550.86 439.42"/><polygon class="cls-5" points="520.55 463.96 543.87 445.08 540.52 409.18 506.1 398.46 482.79 417.34 517.21 428.06 520.55 463.96"/><polygon class="cls-2" points="679.35 340.43 702.66 321.55 699.32 285.64 664.89 274.92 641.58 293.81 676.01 304.53 679.35 340.43"/><polygon class="cls-4" points="646.86 365.46 670.17 346.58 666.83 310.68 632.41 299.95 609.1 318.83 643.52 329.56 646.86 365.46"/><polygon class="cls-2" points="616.56 390.01 639.87 371.12 636.52 335.22 602.1 324.5 578.79 343.38 613.21 354.11 616.56 390.01"/><polygon class="cls-2" points="773.23 265.67 796.54 246.79 793.2 210.89 758.77 200.17 735.46 219.05 769.88 229.77 773.23 265.67"/><polygon class="cls-3" points="740.74 290.7 764.05 271.82 760.71 235.92 726.28 225.2 702.97 244.08 737.39 254.8 740.74 290.7"/><polygon class="cls-2" points="710.43 315.25 733.74 296.37 730.4 260.47 695.98 249.75 672.66 268.63 707.09 279.35 710.43 315.25"/><polygon class="cls-2" points="866.47 190.14 889.78 171.26 886.44 135.36 852.02 124.64 828.71 143.52 863.13 154.24 866.47 190.14"/><polygon class="cls-3" points="833.98 215.17 857.29 196.29 853.95 160.39 819.53 149.66 796.22 168.55 830.64 179.27 833.98 215.17"/><polygon class="cls-2" points="803.68 239.72 826.99 220.84 823.65 184.94 789.22 174.21 765.91 193.1 800.34 203.82 803.68 239.72"/><polygon class="cls-2" points="960.35 115.39 983.66 96.5 980.32 60.6 945.89 49.88 922.58 68.76 957 79.49 960.35 115.39"/><polygon class="cls-2" points="927.86 140.42 951.17 121.53 947.83 85.63 913.4 74.91 890.09 93.79 924.52 104.52 927.86 140.42"/><polygon class="cls-4" points="897.55 164.96 920.87 146.08 917.52 110.18 883.1 99.46 859.79 118.34 894.21 129.06 897.55 164.96"/><polygon class="cls-2" points="781.34 400.66 758.3 419.87 762.15 455.72 796.73 465.96 819.77 446.75 785.19 436.51 781.34 400.66"/><polygon class="cls-3" points="813.47 375.17 790.43 394.39 794.28 430.24 828.86 440.47 851.9 421.26 817.33 411.02 813.47 375.17"/><polygon class="cls-2" points="843.43 350.2 820.39 369.41 824.24 405.26 858.81 415.49 881.85 396.28 847.28 386.05 843.43 350.2"/><polygon class="cls-3" points="688.54 476.74 665.5 495.95 669.35 531.8 703.92 542.04 726.96 522.82 692.39 512.59 688.54 476.74"/><polygon class="cls-2" points="720.67 451.25 697.63 470.46 701.48 506.31 736.05 516.55 759.09 497.34 724.52 487.1 720.67 451.25"/><polygon class="cls-2" points="750.62 426.28 727.58 445.49 731.43 481.34 766 491.57 789.04 472.36 754.47 462.13 750.62 426.28"/><polygon class="cls-2" points="596.37 553.59 573.33 572.8 577.18 608.65 611.75 618.88 634.8 599.67 600.22 589.44 596.37 553.59"/><polygon class="cls-2" points="628.5 528.1 605.46 547.31 609.31 583.16 643.88 593.4 666.93 574.18 632.35 563.95 628.5 528.1"/><polygon class="cls-2" points="658.46 503.13 635.41 522.34 639.27 558.19 673.84 568.42 696.88 549.21 662.31 538.98 658.46 503.13"/><polygon class="cls-2" points="503.57 629.67 480.53 648.88 484.38 684.73 518.95 694.96 541.99 675.75 507.42 665.52 503.57 629.67"/><polygon class="cls-2" points="535.7 604.18 512.66 623.39 516.51 659.24 551.08 669.48 574.12 650.26 539.55 640.03 535.7 604.18"/><polygon class="cls-3" points="565.65 579.21 542.61 598.42 546.46 634.27 581.03 644.5 604.08 625.29 569.5 615.05 565.65 579.21"/><polygon class="cls-2" points="1154.34 91.66 1131.3 110.87 1135.15 146.72 1169.73 156.96 1192.77 137.75 1158.19 127.51 1154.34 91.66"/><polygon class="cls-3" points="1186.47 66.17 1163.43 85.39 1167.28 121.23 1201.86 131.47 1224.9 112.26 1190.33 102.02 1186.47 66.17"/><polygon class="cls-2" points="1216.43 41.2 1193.39 60.41 1197.24 96.26 1231.81 106.49 1254.85 87.28 1220.28 77.05 1216.43 41.2"/><polygon class="cls-3" points="1061.54 167.74 1038.5 186.95 1042.35 222.8 1076.92 233.04 1099.96 213.82 1065.39 203.59 1061.54 167.74"/><polygon class="cls-2" points="1093.67 142.25 1070.63 161.47 1074.48 197.31 1109.05 207.55 1132.09 188.34 1097.52 178.1 1093.67 142.25"/><polygon class="cls-2" points="1123.62 117.28 1100.58 136.49 1104.43 172.34 1139 182.57 1162.05 163.36 1127.47 153.13 1123.62 117.28"/><polygon class="cls-2" points="969.37 244.59 946.33 263.8 950.18 299.65 984.75 309.88 1007.8 290.67 973.22 280.44 969.37 244.59"/><polygon class="cls-2" points="1001.5 219.1 978.46 238.31 982.31 274.16 1016.88 284.4 1039.93 265.18 1005.35 254.95 1001.5 219.1"/><polygon class="cls-2" points="1031.46 194.13 1008.41 213.34 1012.27 249.19 1046.84 259.42 1069.88 240.21 1035.31 229.97 1031.46 194.13"/><polygon class="cls-2" points="876.57 320.67 853.53 339.88 857.38 375.73 891.95 385.96 914.99 366.75 880.42 356.52 876.57 320.67"/><polygon class="cls-2" points="908.7 295.18 885.66 314.39 889.51 350.24 924.08 360.48 947.12 341.26 912.55 331.03 908.7 295.18"/><polygon class="cls-3" points="938.65 270.21 915.61 289.42 919.46 325.27 954.03 335.5 977.08 316.29 942.5 306.06 938.65 270.21"/><polygon class="cls-2" points="782.35 689.43 805.66 670.55 802.32 634.64 767.89 623.92 744.58 642.81 779.01 653.53 782.35 689.43"/><polygon class="cls-4" points="749.86 714.46 773.17 695.58 769.83 659.67 735.41 648.95 712.1 667.84 746.52 678.56 749.86 714.46"/><polygon class="cls-2" points="719.56 739.01 742.87 720.12 739.52 684.22 705.1 673.5 681.79 692.38 716.21 703.11 719.56 739.01"/><polygon class="cls-2" points="876.23 614.67 899.54 595.79 896.2 559.89 861.77 549.17 838.46 568.05 872.88 578.77 876.23 614.67"/><polygon class="cls-3" points="843.74 639.7 867.05 620.82 863.71 584.92 829.28 574.2 805.97 593.08 840.39 603.8 843.74 639.7"/><polygon class="cls-2" points="813.43 664.25 836.74 645.37 833.4 609.47 798.98 598.75 775.66 617.63 810.09 628.35 813.43 664.25"/><polygon class="cls-2" points="969.47 539.14 992.78 520.26 989.44 484.36 955.02 473.63 931.71 492.52 966.13 503.24 969.47 539.14"/><polygon class="cls-3" points="936.98 564.17 960.29 545.29 956.95 509.39 922.53 498.67 899.22 517.55 933.64 528.27 936.98 564.17"/><polygon class="cls-2" points="906.68 588.72 929.99 569.84 926.65 533.94 892.22 523.21 868.91 542.1 903.34 552.82 906.68 588.72"/><polygon class="cls-2" points="1063.35 464.39 1086.66 445.5 1083.32 409.6 1048.89 398.88 1025.58 417.76 1060.01 428.49 1063.35 464.39"/><polygon class="cls-2" points="1030.86 489.42 1054.17 470.53 1050.83 434.63 1016.4 423.91 993.09 442.79 1027.52 453.52 1030.86 489.42"/><polygon class="cls-4" points="1000.55 513.96 1023.87 495.08 1020.52 459.18 986.1 448.46 962.79 467.34 997.21 478.06 1000.55 513.96"/><polygon class="cls-2" points="1159.35 390.43 1182.66 371.55 1179.32 335.64 1144.89 324.92 1121.58 343.81 1156.01 354.53 1159.35 390.43"/><polygon class="cls-4" points="1126.86 415.46 1150.17 396.58 1146.83 360.68 1112.41 349.95 1089.1 368.83 1123.52 379.56 1126.86 415.46"/><polygon class="cls-2" points="1096.56 440.01 1119.87 421.12 1116.53 385.22 1082.1 374.5 1058.79 393.38 1093.21 404.11 1096.56 440.01"/><polygon class="cls-2" points="1253.22 315.67 1276.54 296.79 1273.19 260.89 1238.77 250.17 1215.46 269.05 1249.88 279.77 1253.22 315.67"/><polygon class="cls-3" points="1220.74 340.7 1244.05 321.82 1240.71 285.92 1206.28 275.2 1182.97 294.08 1217.39 304.8 1220.74 340.7"/><polygon class="cls-2" points="1190.43 365.25 1213.74 346.37 1210.4 310.47 1175.98 299.75 1152.66 318.63 1187.09 329.35 1190.43 365.25"/><polygon class="cls-3" points="1313.98 265.17 1337.29 246.29 1333.95 210.39 1299.53 199.66 1276.22 218.55 1310.64 229.27 1313.98 265.17"/><polygon class="cls-2" points="1283.68 289.72 1306.99 270.84 1303.65 234.94 1269.22 224.21 1245.91 243.1 1280.34 253.82 1283.68 289.72"/></g></g></svg>