<svg xmlns="http://www.w3.org/2000/svg" xmlns:xlink="http://www.w3.org/1999/xlink" viewBox="0 0 1341 742"><defs><style>.cls-1,.cls-2{fill:none;}.cls-1,.cls-10,.cls-7,.cls-9{stroke:#dfffdf;}.cls-1,.cls-10,.cls-11,.cls-12,.cls-7,.cls-9{stroke-miterlimit:10;}.cls-3{clip-path:url(#clip-path);}.cls-4{clip-path:url(#clip-path-2);}.cls-5{clip-path:url(#clip-path-3);}.cls-6{fill:#efffef;}.cls-11,.cls-7,.cls-8{fill:#fff;}.cls-12,.cls-9{fill:url(#New_Pattern);}.cls-10{fill:#dfffdf;}.cls-11,.cls-12{stroke:#cfc;}</style><clipPath id="clip-path"><rect class="cls-1" x="0.5" y="41" width="54" height="26"/></clipPath><clipPath id="clip-path-2"><rect class="cls-1" x="0.5" y="14" width="54" height="26"/></clipPath><clipPath id="clip-path-3"><rect class="cls-1" x="0.5" y="-13" width="54" height="26"/></clipPath><pattern id="New_Pattern" data-name="New Pattern" width="55" height="54" patternUnits="userSpaceOnUse" viewBox="0 0 55 54"><rect class="cls-2" width="55" height="54"/><g class="cls-3"><line class="cls-1" x1="0.5" y1="67" x2="0.5" y2="40"/><path class="cls-1" d="M6.5,67V40L.5,67"/><line class="cls-1" x1="11.5" y1="40" x2="11.5" y2="67"/><line class="cls-1" x1="15.5" y1="40" x2="15.5" y2="67"/><line class="cls-1" x1="19.5" y1="40" x2="19.5" y2="67"/><line class="cls-1" x1="23.5" y1="40" x2="23.5" y2="67"/><line class="cls-1" x1="30.5" y1="40" x2="27.5" y2="67"/><path class="cls-1" d="M34.5,40"/><line class="cls-1" x1="34.5" y1="40" x2="30.5" y2="67"/><line class="cls-1" x1="39.5" y1="40" x2="42.5" y2="67"/><polyline class="cls-1" points="43.5 40 47.5 67 47.5 40 51.5 67 51.5 40"/><line class="cls-1" x1="54.5" y1="40" x2="54.5" y2="67"/><line class="cls-1" x1="5.5" y1="40" x2="5.5" y2="67"/><line class="cls-1" x1="11.5" y1="40.5" x2="11.5" y2="67.5"/><line class="cls-1" x1="16.5" y1="40.5" x2="16.5" y2="67.5"/><line class="cls-1" x1="18.5" y1="40.5" x2="18.5" y2="67.5"/><line class="cls-1" x1="20.5" y1="40.5" x2="20.5" y2="67.5"/><line class="cls-1" x1="22.5" y1="40.5" x2="22.5" y2="67.5"/><line class="cls-1" x1="30.5" y1="40.5" x2="30.5" y2="67.5"/><line class="cls-1" x1="34.5" y1="40.5" x2="34.5" y2="67.5"/><line class="cls-1" x1="37.5" y1="40.5" x2="37.5" y2="67.5"/><line class="cls-1" x1="40.5" y1="40.5" x2="40.5" y2="67.5"/><line class="cls-1" x1="43.5" y1="40.5" x2="43.5" y2="67.5"/><line class="cls-1" x1="46.5" y1="40.5" x2="46.5" y2="67.5"/><line class="cls-1" x1="48.5" y1="40.5" x2="48.5" y2="67.5"/><line class="cls-1" x1="50.5" y1="40.5" x2="50.5" y2="67.5"/><line class="cls-1" x1="52.5" y1="40.5" x2="52.5" y2="67.5"/><line class="cls-1" x1="54.5" y1="40.5" x2="54.5" y2="67.5"/><line class="cls-1" x1="26.5" y1="40.5" x2="26.5" y2="67.5"/><line class="cls-1" x1="24.5" y1="40.5" x2="24.5" y2="67.5"/><path class="cls-1" d="M27.5,40c-5,26-5,27-5,27"/><path class="cls-1" d="M36.5,40c-5,26-5,27-5,27"/><path class="cls-1" d="M23.5,41c-5,26-5,27-5,27"/><path class="cls-1" d="M13.5,40c-5,26-5,27-5,27"/><path class="cls-1" d="M2.5,40c-5,26-5,27-5,27"/></g><rect class="cls-1" x="0.5" y="41" width="54" height="26"/><g class="cls-4"><line class="cls-1" x1="0.5" y1="40" x2="0.5" y2="13"/><path class="cls-1" d="M6.5,40V13L.5,40"/><line class="cls-1" x1="11.5" y1="13" x2="11.5" y2="40"/><line class="cls-1" x1="15.5" y1="13" x2="15.5" y2="40"/><line class="cls-1" x1="19.5" y1="13" x2="19.5" y2="40"/><line class="cls-1" x1="23.5" y1="13" x2="23.5" y2="40"/><line class="cls-1" x1="30.5" y1="13" x2="27.5" y2="40"/><path class="cls-1" d="M34.5,13"/><line class="cls-1" x1="34.5" y1="13" x2="30.5" y2="40"/><line class="cls-1" x1="39.5" y1="13" x2="42.5" y2="40"/><polyline class="cls-1" points="43.5 13 47.5 40 47.5 13 51.5 40 51.5 13"/><line class="cls-1" x1="54.5" y1="13" x2="54.5" y2="40"/><line class="cls-1" x1="5.5" y1="13" x2="5.5" y2="40"/><line class="cls-1" x1="11.5" y1="13.5" x2="11.5" y2="40.5"/><line class="cls-1" x1="16.5" y1="13.5" x2="16.5" y2="40.5"/><line class="cls-1" x1="18.5" y1="13.5" x2="18.5" y2="40.5"/><line class="cls-1" x1="20.5" y1="13.5" x2="20.5" y2="40.5"/><line class="cls-1" x1="22.5" y1="13.5" x2="22.5" y2="40.5"/><line class="cls-1" x1="30.5" y1="13.5" x2="30.5" y2="40.5"/><line class="cls-1" x1="34.5" y1="13.5" x2="34.5" y2="40.5"/><line class="cls-1" x1="37.5" y1="13.5" x2="37.5" y2="40.5"/><line class="cls-1" x1="40.5" y1="13.5" x2="40.5" y2="40.5"/><line class="cls-1" x1="43.5" y1="13.5" x2="43.5" y2="40.5"/><line class="cls-1" x1="46.5" y1="13.5" x2="46.5" y2="40.5"/><line class="cls-1" x1="48.5" y1="13.5" x2="48.5" y2="40.5"/><line class="cls-1" x1="50.5" y1="13.5" x2="50.5" y2="40.5"/><line class="cls-1" x1="52.5" y1="13.5" x2="52.5" y2="40.5"/><line class="cls-1" x1="54.5" y1="13.5" x2="54.5" y2="40.5"/><line class="cls-1" x1="56.5" y1="13.5" x2="56.5" y2="40.5"/><line class="cls-1" x1="26.5" y1="13.5" x2="26.5" y2="40.5"/><line class="cls-1" x1="24.5" y1="13.5" x2="24.5" y2="40.5"/><path class="cls-1" d="M27.5,13c-5,26-5,27-5,27"/><path class="cls-1" d="M36.5,13c-5,26-5,27-5,27"/><path class="cls-1" d="M23.5,14c-5,26-5,27-5,27"/><path class="cls-1" d="M13.5,13c-5,26-5,27-5,27"/><path class="cls-1" d="M2.5,13c-5,26-5,27-5,27"/></g><rect class="cls-1" x="0.5" y="14" width="54" height="26"/><g class="cls-5"><line class="cls-1" x1="0.5" y1="13" x2="0.5" y2="-14"/><path class="cls-1" d="M6.5,13V-14L.5,13"/><line class="cls-1" x1="11.5" y1="-14" x2="11.5" y2="13"/><line class="cls-1" x1="15.5" y1="-14" x2="15.5" y2="13"/><line class="cls-1" x1="19.5" y1="-14" x2="19.5" y2="13"/><line class="cls-1" x1="23.5" y1="-14" x2="23.5" y2="13"/><line class="cls-1" x1="30.5" y1="-14" x2="27.5" y2="13"/><line class="cls-1" x1="34.5" y1="-14" x2="30.5" y2="13"/><line class="cls-1" x1="39.5" y1="-14" x2="42.5" y2="13"/><polyline class="cls-1" points="43.5 -14 47.5 13 47.5 -14 51.5 13 51.5 -14"/><line class="cls-1" x1="54.5" y1="-14" x2="54.5" y2="13"/><line class="cls-1" x1="5.5" y1="-14" x2="5.5" y2="13"/><line class="cls-1" x1="11.5" y1="-13.5" x2="11.5" y2="13.5"/><line class="cls-1" x1="16.5" y1="-13.5" x2="16.5" y2="13.5"/><line class="cls-1" x1="18.5" y1="-13.5" x2="18.5" y2="13.5"/><line class="cls-1" x1="20.5" y1="-13.5" x2="20.5" y2="13.5"/><line class="cls-1" x1="22.5" y1="-13.5" x2="22.5" y2="13.5"/><line class="cls-1" x1="30.5" y1="-13.5" x2="30.5" y2="13.5"/><line class="cls-1" x1="34.5" y1="-13.5" x2="34.5" y2="13.5"/><line class="cls-1" x1="37.5" y1="-13.5" x2="37.5" y2="13.5"/><line class="cls-1" x1="40.5" y1="-13.5" x2="40.5" y2="13.5"/><line class="cls-1" x1="43.5" y1="-13.5" x2="43.5" y2="13.5"/><line class="cls-1" x1="46.5" y1="-13.5" x2="46.5" y2="13.5"/><line class="cls-1" x1="48.5" y1="-13.5" x2="48.5" y2="13.5"/><line class="cls-1" x1="50.5" y1="-13.5" x2="50.5" y2="13.5"/><line class="cls-1" x1="52.5" y1="-13.5" x2="52.5" y2="13.5"/><line class="cls-1" x1="54.5" y1="-13.5" x2="54.5" y2="13.5"/><line class="cls-1" x1="26.5" y1="-13.5" x2="26.5" y2="13.5"/><line class="cls-1" x1="24.5" y1="-13.5" x2="24.5" y2="13.5"/><path class="cls-1" d="M27.5-14c-5,26-5,27-5,27"/><path class="cls-1" d="M36.5-14c-5,26-5,27-5,27"/><path class="cls-1" d="M23.5-13c-5,26-5,27-5,27"/><path class="cls-1" d="M13.5-14c-5,26-5,27-5,27"/><path class="cls-1" d="M2.5-14c-5,26-5,27-5,27"/></g><rect class="cls-1" x="0.5" y="-13" width="54" height="26"/></pattern></defs><title>chevron4</title><g id="Layer_2" data-name="Layer 2"><g id="Layer_1-2" data-name="Layer 1"><rect class="cls-6" width="1341" height="742"/><polygon class="cls-7" points="525.5 208.5 525.5 238.5 555.5 258.5 585.5 238.5 585.5 208.5 555.5 228.5 525.5 208.5"/><polygon class="cls-8" points="526.5 167.5 526.5 197.5 556.5 217.5 586.5 197.5 586.5 167.5 556.5 187.5 526.5 167.5"/><polygon class="cls-9" points="526.5 128.5 526.5 158.5 556.5 178.5 586.5 158.5 586.5 128.5 556.5 148.5 526.5 128.5"/><polygon class="cls-8" points="524.5 328.5 524.5 358.5 554.5 378.5 584.5 358.5 584.5 328.5 554.5 348.5 524.5 328.5"/><polygon class="cls-9" points="525.5 287.5 525.5 317.5 555.5 337.5 585.5 317.5 585.5 287.5 555.5 307.5 525.5 287.5"/><polygon class="cls-10" points="525.5 248.5 525.5 278.5 555.5 298.5 585.5 278.5 585.5 248.5 555.5 268.5 525.5 248.5"/><polygon class="cls-9" points="524.5 448.5 524.5 478.5 554.5 498.5 584.5 478.5 584.5 448.5 554.5 468.5 524.5 448.5"/><polygon class="cls-10" points="525.5 407.5 525.5 437.5 555.5 457.5 585.5 437.5 585.5 407.5 555.5 427.5 525.5 407.5"/><polygon class="cls-7" points="525.5 368.5 525.5 398.5 555.5 418.5 585.5 398.5 585.5 368.5 555.5 388.5 525.5 368.5"/><polygon class="cls-10" points="523.5 568.5 523.5 598.5 553.5 618.5 583.5 598.5 583.5 568.5 553.5 588.5 523.5 568.5"/><polygon class="cls-7" points="524.5 527.5 524.5 557.5 554.5 577.5 584.5 557.5 584.5 527.5 554.5 547.5 524.5 527.5"/><polygon class="cls-8" points="524.5 488.5 524.5 518.5 554.5 538.5 584.5 518.5 584.5 488.5 554.5 508.5 524.5 488.5"/><polygon class="cls-9" points="799.31 570.77 799.31 540.77 769.31 520.77 739.31 540.77 739.31 570.77 769.31 550.77 799.31 570.77"/><polygon class="cls-11" points="798.31 611.77 798.31 581.77 768.31 561.77 738.31 581.77 738.31 611.77 768.31 591.77 798.31 611.77"/><polygon class="cls-10" points="798.31 650.77 798.31 620.77 768.31 600.77 738.31 620.77 738.31 650.77 768.31 630.77 798.31 650.77"/><polygon class="cls-7" points="800.31 450.77 800.31 420.77 770.31 400.77 740.31 420.77 740.31 450.77 770.31 430.77 800.31 450.77"/><polygon class="cls-8" points="799.31 491.77 799.31 461.77 769.31 441.77 739.31 461.77 739.31 491.77 769.31 471.77 799.31 491.77"/><polygon class="cls-7" points="799.31 530.77 799.31 500.77 769.31 480.77 739.31 500.77 739.31 530.77 769.31 510.77 799.31 530.77"/><polygon class="cls-7" points="800.31 330.77 800.31 300.77 770.31 280.77 740.31 300.77 740.31 330.77 770.31 310.77 800.31 330.77"/><polygon class="cls-8" points="799.31 371.77 799.31 341.77 769.31 321.77 739.31 341.77 739.31 371.77 769.31 351.77 799.31 371.77"/><polygon class="cls-9" points="799.31 410.77 799.31 380.77 769.31 360.77 739.31 380.77 739.31 410.77 769.31 390.77 799.31 410.77"/><polygon class="cls-7" points="801.31 210.77 801.31 180.77 771.31 160.77 741.31 180.77 741.31 210.77 771.31 190.77 801.31 210.77"/><polygon class="cls-10" points="800.31 251.77 800.31 221.77 770.31 201.77 740.31 221.77 740.31 251.77 770.31 231.77 800.31 251.77"/><polygon class="cls-12" points="800.31 290.77 800.31 260.77 770.31 240.77 740.31 260.77 740.31 290.77 770.31 270.77 800.31 290.77"/><polygon class="cls-7" points="946.08 217.84 943.99 247.77 972.52 269.81 1003.84 251.96 1005.94 222.03 974.61 239.89 946.08 217.84"/><polygon class="cls-8" points="949.94 177.01 947.85 206.94 976.38 228.99 1007.7 211.13 1009.79 181.2 978.47 199.06 949.94 177.01"/><polygon class="cls-9" points="952.66 138.11 950.57 168.04 979.1 190.08 1010.42 172.22 1012.51 142.29 981.19 160.15 952.66 138.11"/><polygon class="cls-8" points="936.71 337.48 934.62 367.41 963.15 389.45 994.47 371.59 996.57 341.67 965.25 359.53 936.71 337.48"/><polygon class="cls-9" points="940.57 296.65 938.48 326.58 967.01 348.62 998.33 330.76 1000.42 300.84 969.1 318.7 940.57 296.65"/><polygon class="cls-10" points="943.29 257.75 941.2 287.67 969.73 309.72 1001.05 291.86 1003.14 261.93 971.82 279.79 943.29 257.75"/><polygon class="cls-9" points="928.34 457.19 926.25 487.12 954.78 509.16 986.1 491.3 988.2 461.38 956.87 479.23 928.34 457.19"/><polygon class="cls-10" points="932.2 416.36 930.11 446.29 958.64 468.33 989.96 450.47 992.05 420.55 960.73 438.4 932.2 416.36"/><polygon class="cls-7" points="934.92 377.45 932.83 407.38 961.36 429.43 992.68 411.57 994.77 381.64 963.45 399.5 934.92 377.45"/><polygon class="cls-10" points="918.97 576.83 916.88 606.75 945.41 628.8 976.74 610.94 978.83 581.01 947.51 598.87 918.97 576.83"/><polygon class="cls-7" points="922.83 536 920.74 565.92 949.27 587.97 980.59 570.11 982.69 540.18 951.36 558.04 922.83 536"/><polygon class="cls-8" points="925.55 497.09 923.46 527.02 951.99 549.06 983.31 531.21 985.41 501.28 954.08 519.14 925.55 497.09"/><polygon class="cls-9" points="1208.31 581.77 1208.31 551.77 1178.31 531.77 1148.31 551.77 1148.31 581.77 1178.31 561.77 1208.31 581.77"/><polygon class="cls-11" points="1207.31 622.77 1207.31 592.77 1177.31 572.77 1147.31 592.77 1147.31 622.77 1177.31 602.77 1207.31 622.77"/><polygon class="cls-10" points="1207.31 661.77 1207.31 631.77 1177.31 611.77 1147.31 631.77 1147.31 661.77 1177.31 641.77 1207.31 661.77"/><polygon class="cls-7" points="1209.31 461.77 1209.31 431.77 1179.31 411.77 1149.31 431.77 1149.31 461.77 1179.31 441.77 1209.31 461.77"/><polygon class="cls-8" points="1208.31 502.77 1208.31 472.77 1178.31 452.77 1148.31 472.77 1148.31 502.77 1178.31 482.77 1208.31 502.77"/><polygon class="cls-7" points="1208.31 541.77 1208.31 511.77 1178.31 491.77 1148.31 511.77 1148.31 541.77 1178.31 521.77 1208.31 541.77"/><polygon class="cls-7" points="1209.31 341.77 1209.31 311.77 1179.31 291.77 1149.31 311.77 1149.31 341.77 1179.31 321.77 1209.31 341.77"/><polygon class="cls-8" points="1208.31 382.77 1208.31 352.77 1178.31 332.77 1148.31 352.77 1148.31 382.77 1178.31 362.77 1208.31 382.77"/><polygon class="cls-9" points="1208.31 421.77 1208.31 391.77 1178.31 371.77 1148.31 391.77 1148.31 421.77 1178.31 401.77 1208.31 421.77"/><polygon class="cls-7" points="1210.31 221.77 1210.31 191.77 1180.31 171.77 1150.31 191.77 1150.31 221.77 1180.31 201.77 1210.31 221.77"/><polygon class="cls-10" points="1209.31 262.77 1209.31 232.77 1179.31 212.77 1149.31 232.77 1149.31 262.77 1179.31 242.77 1209.31 262.77"/><polygon class="cls-12" points="1209.31 301.77 1209.31 271.77 1179.31 251.77 1149.31 271.77 1149.31 301.77 1179.31 281.77 1209.31 301.77"/><polygon class="cls-7" points="128.5 190.5 128.5 220.5 158.5 240.5 188.5 220.5 188.5 190.5 158.5 210.5 128.5 190.5"/><polygon class="cls-8" points="129.5 149.5 129.5 179.5 159.5 199.5 189.5 179.5 189.5 149.5 159.5 169.5 129.5 149.5"/><polygon class="cls-9" points="129.5 110.5 129.5 140.5 159.5 160.5 189.5 140.5 189.5 110.5 159.5 130.5 129.5 110.5"/><polygon class="cls-8" points="127.5 310.5 127.5 340.5 157.5 360.5 187.5 340.5 187.5 310.5 157.5 330.5 127.5 310.5"/><polygon class="cls-9" points="128.5 269.5 128.5 299.5 158.5 319.5 188.5 299.5 188.5 269.5 158.5 289.5 128.5 269.5"/><polygon class="cls-10" points="128.5 230.5 128.5 260.5 158.5 280.5 188.5 260.5 188.5 230.5 158.5 250.5 128.5 230.5"/><polygon class="cls-9" points="127.5 430.5 127.5 460.5 157.5 480.5 187.5 460.5 187.5 430.5 157.5 450.5 127.5 430.5"/><polygon class="cls-10" points="128.5 389.5 128.5 419.5 158.5 439.5 188.5 419.5 188.5 389.5 158.5 409.5 128.5 389.5"/><polygon class="cls-7" points="128.5 350.5 128.5 380.5 158.5 400.5 188.5 380.5 188.5 350.5 158.5 370.5 128.5 350.5"/><polygon class="cls-10" points="126.5 550.5 126.5 580.5 156.5 600.5 186.5 580.5 186.5 550.5 156.5 570.5 126.5 550.5"/><polygon class="cls-7" points="127.5 509.5 127.5 539.5 157.5 559.5 187.5 539.5 187.5 509.5 157.5 529.5 127.5 509.5"/><polygon class="cls-8" points="127.5 470.5 127.5 500.5 157.5 520.5 187.5 500.5 187.5 470.5 157.5 490.5 127.5 470.5"/><polygon class="cls-9" points="413.75 550.31 411.65 520.38 380.33 502.53 351.8 524.57 353.89 554.5 382.42 532.45 413.75 550.31"/><polygon class="cls-11" points="415.61 591.28 413.51 561.35 382.19 543.5 353.66 565.54 355.75 595.47 384.29 573.42 415.61 591.28"/><polygon class="cls-10" points="418.33 630.19 416.24 600.26 384.91 582.4 356.38 604.45 358.47 634.37 387.01 612.33 418.33 630.19"/><polygon class="cls-10" points="406.37 430.53 404.28 400.61 372.96 382.75 344.43 404.79 346.52 434.72 375.05 412.68 406.37 430.53"/><polygon class="cls-8" points="408.23 471.5 406.14 441.58 374.82 423.72 346.29 445.76 348.38 475.69 376.91 453.64 408.23 471.5"/><polygon class="cls-7" points="410.95 510.41 408.86 480.48 377.54 462.62 349.01 484.67 351.1 514.59 379.63 492.55 410.95 510.41"/><polygon class="cls-7" points="398 310.83 395.91 280.9 364.59 263.04 336.06 285.08 338.15 315.01 366.68 292.97 398 310.83"/><polygon class="cls-8" points="399.86 351.8 397.77 321.87 366.45 304.01 337.92 326.06 340.01 355.98 368.54 333.94 399.86 351.8"/><polygon class="cls-9" points="402.58 390.7 400.49 360.77 369.17 342.92 340.64 364.96 342.73 394.89 371.26 372.84 402.58 390.7"/><polygon class="cls-7" points="390.63 191.05 388.54 161.12 357.21 143.26 328.68 165.31 330.77 195.23 359.31 173.19 390.63 191.05"/><polygon class="cls-10" points="392.49 232.02 390.4 202.09 359.08 184.23 330.54 206.28 332.64 236.2 361.17 214.16 392.49 232.02"/><polygon class="cls-12" points="395.21 270.92 393.12 241 361.8 223.14 333.26 245.18 335.36 275.11 363.89 253.06 395.21 270.92"/></g></g></svg>