<svg xmlns="http://www.w3.org/2000/svg" xmlns:xlink="http://www.w3.org/1999/xlink" viewBox="0 0 894.76 510.48"><defs><style>.cls-1{fill:none;}.cls-2{fill:#f2f2f2;}.cls-3{fill:#fff;}.cls-4{fill:url(#_242_grid);}</style><pattern id="_242_grid" data-name="242 grid" width="220.25" height="200" patternUnits="userSpaceOnUse" viewBox="0 0 220.25 200"><rect class="cls-1" width="220.25" height="200"/><rect class="cls-2" y="0.41" width="220.25" height="4.15"/><rect class="cls-2" x="0.42" y="66.8" width="219.83" height="4.15"/><rect class="cls-2" x="0.42" y="83.4" width="219.83" height="4.15"/><rect class="cls-2" x="0.42" y="100" width="219.83" height="4.15"/><rect class="cls-2" y="116.6" width="220.25" height="4.15"/><rect class="cls-2" x="0.42" y="133.2" width="219.83" height="4.15"/><rect class="cls-2" y="149.79" width="220.25" height="4.15"/><rect class="cls-2" x="0.42" y="166.39" width="219.83" height="4.15"/><rect class="cls-2" y="182.99" width="220.25" height="4.15"/><rect class="cls-2" x="0.42" y="49.79" width="219.83" height="4.56"/><rect class="cls-2" x="0.42" y="33.61" width="219.83" height="4.15"/><rect class="cls-2" y="17.01" width="220.25" height="4.15"/><polygon class="cls-2" points="4.65 0 4.65 199.59 0.42 199.59 0.42 0 4.65 0"/><polygon class="cls-2" points="21.14 0.41 21.14 200 16.91 200 16.91 0.41 21.14 0.41"/><polygon class="cls-2" points="38.05 0.41 38.05 200 33.82 200 33.82 0.41 38.05 0.41"/><polygon class="cls-2" points="54.96 0.41 54.96 200 50.73 200 50.73 0.41 54.96 0.41"/><polygon class="cls-2" points="71.87 0 71.87 199.59 67.64 199.59 67.64 0 71.87 0"/><polygon class="cls-2" points="89.2 0.41 89.2 200 84.97 200 84.97 0.41 89.2 0.41"/><polygon class="cls-2" points="105.69 0.41 105.69 200 101.46 200 101.46 0.41 105.69 0.41"/><polygon class="cls-2" points="123.02 0 123.02 199.59 118.79 199.59 118.79 0 123.02 0"/><polygon class="cls-2" points="139.93 0.41 139.93 200 135.7 200 135.7 0.41 139.93 0.41"/><polygon class="cls-2" points="156.42 0 156.42 199.59 152.19 199.59 152.19 0 156.42 0"/><polygon class="cls-2" points="173.32 0 173.32 199.59 169.1 199.59 169.1 0 173.32 0"/><polygon class="cls-2" points="190.24 0 190.24 199.59 186.01 199.59 186.01 0 190.24 0"/><polygon class="cls-2" points="207.15 0.41 207.15 200 202.92 200 202.92 0.41 207.15 0.41"/></pattern></defs><title>circle-pattern-2</title><g id="Layer_2" data-name="Layer 2"><g id="Layer_1-2" data-name="Layer 1"><rect class="cls-3" width="894.76" height="510.48"/><ellipse class="cls-4" cx="91.77" cy="97.23" rx="91.77" ry="97.23"/><ellipse class="cls-4" cx="286.78" cy="279.55" rx="171.57" ry="181.81"/><path class="cls-2" d="M286.78,98.23a161.74,161.74,0,0,1,66.57,14.24,170.26,170.26,0,0,1,54.37,38.85c32.33,34.25,50.13,79.79,50.13,128.23s-17.8,94-50.13,128.23a170.38,170.38,0,0,1-54.37,38.84,162.72,162.72,0,0,1-133.14,0,170.38,170.38,0,0,1-54.37-38.84c-32.33-34.25-50.13-79.79-50.13-128.23s17.8-94,50.13-128.23a170.26,170.26,0,0,1,54.37-38.85,161.74,161.74,0,0,1,66.57-14.24m0-1c-95,0-172.07,81.63-172.07,182.32s77,182.31,172.07,182.31,172.07-81.62,172.07-182.31-77-182.32-172.07-182.32Z"/><ellipse class="cls-2" cx="80.3" cy="425.4" rx="80.3" ry="85.08"/><ellipse class="cls-2" cx="568.97" cy="145.85" rx="142.24" ry="145.85"/><ellipse class="cls-4" cx="666.48" cy="390.15" rx="113.07" ry="119.83"/><path class="cls-2" d="M666.48,270.82c30,0,58.31,12.41,79.57,34.93s33,52.52,33,84.4-11.71,61.86-33,84.4-49.52,34.93-79.57,34.93-58.32-12.41-79.58-34.93-33-52.51-33-84.4,11.72-61.86,33-84.4,49.52-34.93,79.58-34.93m0-1c-62.72,0-113.57,53.88-113.57,120.33s50.85,120.33,113.57,120.33S780,456.61,780,390.15,729.2,269.82,666.48,269.82Z"/><ellipse class="cls-3" cx="797.25" cy="215.13" rx="97.01" ry="102.81"/><path class="cls-2" d="M797.25,112.82c53.21,0,96.51,45.9,96.51,102.31s-43.3,102.31-96.51,102.31-96.51-45.9-96.51-102.31S744,112.82,797.25,112.82m0-1c-53.85,0-97.51,46.25-97.51,103.31s43.66,103.31,97.51,103.31,97.51-46.25,97.51-103.31S851.1,111.82,797.25,111.82Z"/><ellipse class="cls-3" cx="484.09" cy="432.69" rx="72.92" ry="77.29"/><path class="cls-2" d="M484.09,355.9c39.93,0,72.41,34.45,72.41,76.79S524,509.48,484.09,509.48,411.67,475,411.67,432.69s32.49-76.79,72.42-76.79m0-1c-40.55,0-73.42,34.83-73.42,77.79s32.87,77.79,73.42,77.79,73.41-34.83,73.41-77.79-32.87-77.79-73.41-77.79Z"/></g></g></svg>