<svg xmlns="http://www.w3.org/2000/svg" xmlns:xlink="http://www.w3.org/1999/xlink" viewBox="0 0 1439.83 735.34"><defs><style>.cls-1{fill:none;}.cls-2,.cls-3{fill:#f2f2f2;}.cls-2{stroke:#f2f2f2;stroke-miterlimit:10;}.cls-4{fill:#fff;}.cls-5{fill:url(#small_242_lattice);}.cls-6{fill:url(#New_Pattern);}.cls-7{fill:#e6e6e6;}</style><pattern id="small_242_lattice" data-name="small 242 lattice" width="110.13" height="100" patternUnits="userSpaceOnUse" viewBox="0 0 110.13 100"><rect class="cls-1" width="110.13" height="100"/><rect class="cls-3" y="0.21" width="110.13" height="2.07"/><rect class="cls-3" x="0.21" y="33.4" width="109.91" height="2.07"/><rect class="cls-3" x="0.21" y="41.7" width="109.91" height="2.07"/><rect class="cls-3" x="0.21" y="50" width="109.91" height="2.07"/><rect class="cls-3" y="58.3" width="110.13" height="2.07"/><rect class="cls-3" x="0.21" y="66.6" width="109.91" height="2.07"/><rect class="cls-3" y="74.9" width="110.13" height="2.07"/><rect class="cls-3" x="0.21" y="83.2" width="109.91" height="2.07"/><rect class="cls-3" y="91.49" width="110.13" height="2.07"/><rect class="cls-3" x="0.21" y="24.9" width="109.91" height="2.28"/><rect class="cls-3" x="0.21" y="16.8" width="109.91" height="2.07"/><rect class="cls-3" y="8.51" width="110.13" height="2.07"/><polygon class="cls-3" points="2.33 0 2.33 99.79 0.21 99.79 0.21 0 2.33 0"/><polygon class="cls-3" points="10.57 0.21 10.57 100 8.46 100 8.46 0.21 10.57 0.21"/><polygon class="cls-3" points="19.02 0.21 19.02 100 16.91 100 16.91 0.21 19.02 0.21"/><polygon class="cls-3" points="27.48 0.21 27.48 100 25.36 100 25.36 0.21 27.48 0.21"/><polygon class="cls-3" points="35.93 0 35.93 99.79 33.82 99.79 33.82 0 35.93 0"/><polygon class="cls-3" points="44.6 0.21 44.6 100 42.49 100 42.49 0.21 44.6 0.21"/><polygon class="cls-3" points="52.84 0.21 52.84 100 50.73 100 50.73 0.21 52.84 0.21"/><polygon class="cls-3" points="61.51 0 61.51 99.79 59.4 99.79 59.4 0 61.51 0"/><polygon class="cls-3" points="69.96 0.21 69.96 100 67.85 100 67.85 0.21 69.96 0.21"/><polygon class="cls-3" points="78.21 0 78.21 99.79 76.09 99.79 76.09 0 78.21 0"/><polygon class="cls-3" points="86.66 0 86.66 99.79 84.55 99.79 84.55 0 86.66 0"/><polygon class="cls-3" points="95.12 0 95.12 99.79 93 99.79 93 0 95.12 0"/><polygon class="cls-3" points="103.57 0.21 103.57 100 101.46 100 101.46 0.21 103.57 0.21"/></pattern><pattern id="New_Pattern" data-name="New Pattern" width="221.25" height="201" patternUnits="userSpaceOnUse" viewBox="0 0 221.25 201"><rect class="cls-1" width="221.25" height="201"/><rect class="cls-2" x="0.5" y="0.91" width="220.25" height="4.15"/><rect class="cls-2" x="0.92" y="67.3" width="219.83" height="4.15"/><rect class="cls-2" x="0.92" y="83.9" width="219.83" height="4.15"/><rect class="cls-2" x="0.92" y="100.5" width="219.83" height="4.15"/><rect class="cls-2" x="0.5" y="117.1" width="220.25" height="4.15"/><rect class="cls-2" x="0.92" y="133.7" width="219.83" height="4.15"/><rect class="cls-2" x="0.5" y="150.29" width="220.25" height="4.15"/><rect class="cls-2" x="0.92" y="166.89" width="219.83" height="4.15"/><rect class="cls-2" x="0.5" y="183.49" width="220.25" height="4.15"/><rect class="cls-2" x="0.92" y="50.29" width="219.83" height="4.56"/><rect class="cls-2" x="0.92" y="34.11" width="219.83" height="4.15"/><rect class="cls-2" x="0.5" y="17.51" width="220.25" height="4.15"/><polygon class="cls-2" points="5.15 0.5 5.15 200.09 0.92 200.09 0.92 0.5 5.15 0.5"/><polygon class="cls-2" points="21.64 0.92 21.64 200.5 17.41 200.5 17.41 0.92 21.64 0.92"/><polygon class="cls-2" points="38.55 0.92 38.55 200.5 34.32 200.5 34.32 0.92 38.55 0.92"/><polygon class="cls-2" points="55.46 0.92 55.46 200.5 51.23 200.5 51.23 0.92 55.46 0.92"/><polygon class="cls-2" points="72.37 0.5 72.37 200.09 68.14 200.09 68.14 0.5 72.37 0.5"/><polygon class="cls-2" points="89.7 0.92 89.7 200.5 85.47 200.5 85.47 0.92 89.7 0.92"/><polygon class="cls-2" points="106.19 0.92 106.19 200.5 101.96 200.5 101.96 0.92 106.19 0.92"/><polygon class="cls-2" points="123.52 0.5 123.52 200.09 119.29 200.09 119.29 0.5 123.52 0.5"/><polygon class="cls-2" points="140.43 0.92 140.43 200.5 136.2 200.5 136.2 0.92 140.43 0.92"/><polygon class="cls-2" points="156.92 0.5 156.92 200.09 152.69 200.09 152.69 0.5 156.92 0.5"/><polygon class="cls-2" points="173.82 0.5 173.82 200.09 169.6 200.09 169.6 0.5 173.82 0.5"/><polygon class="cls-2" points="190.74 0.5 190.74 200.09 186.51 200.09 186.51 0.5 190.74 0.5"/><polygon class="cls-2" points="207.65 0.92 207.65 200.5 203.42 200.5 203.42 0.92 207.65 0.92"/></pattern></defs><title>circle-pattern-4</title><g id="Layer_2" data-name="Layer 2"><g id="Layer_1-2" data-name="Layer 1"><rect class="cls-4" width="479.33" height="245.34"/><ellipse class="cls-5" cx="49.16" cy="46.73" rx="49.16" ry="46.73"/><ellipse class="cls-5" cx="153.63" cy="134.35" rx="92.18" ry="87.62"/><path class="cls-6" d="M153.63,47.73c50.28,0,91.18,38.86,91.18,86.62S203.91,221,153.63,221s-91.18-38.86-91.18-86.62,40.9-86.62,91.18-86.62m0-1c-50.91,0-92.18,39.23-92.18,87.62S102.72,222,153.63,222s92.18-39.23,92.18-87.62-41.27-87.62-92.18-87.62Z"/><ellipse class="cls-7" cx="43.02" cy="204.45" rx="43.02" ry="40.89"/><ellipse class="cls-3" cx="304.8" cy="70.1" rx="76.2" ry="70.1"/><ellipse class="cls-5" cx="357.04" cy="187.51" rx="60.34" ry="57.33"/><path class="cls-4" d="M357,130.68c33,0,59.84,25.49,59.84,56.83S390,244.34,357,244.34s-59.84-25.5-59.84-56.83S324,130.68,357,130.68m0-1c-33.6,0-60.84,25.89-60.84,57.83s27.24,57.83,60.84,57.83,60.84-25.9,60.84-57.83S390.64,129.68,357,129.68Z"/><ellipse class="cls-4" cx="427.09" cy="103.39" rx="51.73" ry="49.15"/><path class="cls-3" d="M427.09,54.74c28.25,0,51.24,21.82,51.24,48.65S455.34,152,427.09,152s-51.23-21.82-51.23-48.65,23-48.65,51.23-48.65m0-1c-28.84,0-52.23,22.23-52.23,49.65S398.25,153,427.09,153s52.24-22.23,52.24-49.65-23.39-49.65-52.24-49.65Z"/><ellipse class="cls-4" cx="259.33" cy="207.95" rx="38.83" ry="36.88"/><path class="cls-7" d="M259.33,171.57c21.13,0,38.33,16.32,38.33,36.38s-17.2,36.39-38.33,36.39S221,228,221,208s17.19-36.38,38.33-36.38m0-1C237.61,170.57,220,187.3,220,208s17.61,37.39,39.33,37.39S298.66,228.6,298.66,208s-17.61-37.38-39.33-37.38Z"/><rect class="cls-4" x="479.5" width="479.33" height="245.34"/><ellipse class="cls-5" cx="528.66" cy="46.73" rx="49.16" ry="46.73"/><ellipse class="cls-5" cx="633.13" cy="134.35" rx="92.18" ry="87.62"/><path class="cls-6" d="M633.13,47.73c50.28,0,91.18,38.86,91.18,86.62S683.41,221,633.13,221,542,182.11,542,134.35s40.9-86.62,91.18-86.62m0-1C582.22,46.73,541,86,541,134.35S582.22,222,633.13,222s92.18-39.23,92.18-87.62S684,46.73,633.13,46.73Z"/><ellipse class="cls-7" cx="522.52" cy="204.45" rx="43.02" ry="40.89"/><ellipse class="cls-3" cx="784.3" cy="70.1" rx="76.2" ry="70.1"/><ellipse class="cls-5" cx="836.54" cy="187.51" rx="60.34" ry="57.33"/><path class="cls-4" d="M836.54,130.68c33,0,59.84,25.49,59.84,56.83s-26.85,56.83-59.84,56.83-59.84-25.5-59.84-56.83,26.84-56.83,59.84-56.83m0-1c-33.6,0-60.84,25.89-60.84,57.83s27.24,57.83,60.84,57.83,60.84-25.9,60.84-57.83-27.24-57.83-60.84-57.83Z"/><path class="cls-4" d="M906.59,152.54c-28.52,0-51.73-22-51.73-49.15s23.21-49.15,51.73-49.15,51.74,22.05,51.74,49.15S935.12,152.54,906.59,152.54Z"/><path class="cls-3" d="M906.59,54.74c28.25,0,51.24,21.82,51.24,48.65S934.84,152,906.59,152s-51.23-21.82-51.23-48.65,23-48.65,51.23-48.65m0-1c-28.84,0-52.23,22.23-52.23,49.65S877.75,153,906.59,153s52.24-22.23,52.24-49.65-23.39-49.65-52.24-49.65Z"/><path class="cls-4" d="M738.83,244.84C717.42,244.84,700,228.29,700,208s17.42-36.88,38.83-36.88,38.83,16.54,38.83,36.88S760.24,244.84,738.83,244.84Z"/><path class="cls-7" d="M738.83,171.57c21.13,0,38.33,16.32,38.33,36.38s-17.2,36.39-38.33,36.39S700.5,228,700.5,208s17.19-36.38,38.33-36.38m0-1c-21.72,0-39.33,16.73-39.33,37.38s17.61,37.39,39.33,37.39S778.16,228.6,778.16,208s-17.61-37.38-39.33-37.38Z"/><rect class="cls-4" x="479.5" y="245" width="479.33" height="245.34"/><ellipse class="cls-5" cx="528.66" cy="291.73" rx="49.16" ry="46.73"/><ellipse class="cls-5" cx="633.13" cy="379.35" rx="92.18" ry="87.62"/><path class="cls-6" d="M633.13,292.73c50.28,0,91.18,38.86,91.18,86.62S683.41,466,633.13,466,542,427.11,542,379.35s40.9-86.62,91.18-86.62m0-1C582.22,291.73,541,331,541,379.35S582.22,467,633.13,467s92.18-39.23,92.18-87.62S684,291.73,633.13,291.73Z"/><ellipse class="cls-7" cx="522.52" cy="449.45" rx="43.02" ry="40.89"/><ellipse class="cls-3" cx="784.3" cy="315.1" rx="76.2" ry="70.1"/><path class="cls-5" d="M836.54,489.83c-33.27,0-60.34-25.71-60.34-57.32s27.07-57.33,60.34-57.33,60.34,25.72,60.34,57.33S869.81,489.83,836.54,489.83Z"/><path class="cls-4" d="M836.54,375.68c33,0,59.84,25.49,59.84,56.83s-26.85,56.83-59.84,56.83-59.84-25.5-59.84-56.83,26.84-56.83,59.84-56.83m0-1c-33.6,0-60.84,25.89-60.84,57.83s27.24,57.83,60.84,57.83,60.84-25.9,60.84-57.83-27.24-57.83-60.84-57.83Z"/><path class="cls-4" d="M906.59,397.54c-28.52,0-51.73-22.05-51.73-49.15s23.21-49.15,51.73-49.15,51.74,22.05,51.74,49.15S935.12,397.54,906.59,397.54Z"/><path class="cls-3" d="M906.59,299.74c28.25,0,51.24,21.82,51.24,48.65S934.84,397,906.59,397s-51.23-21.82-51.23-48.65,23-48.65,51.23-48.65m0-1c-28.84,0-52.23,22.23-52.23,49.65S877.75,398,906.59,398s52.24-22.23,52.24-49.65-23.39-49.65-52.24-49.65Z"/><path class="cls-4" d="M738.83,489.83C717.42,489.83,700,473.29,700,453s17.42-36.88,38.83-36.88,38.83,16.54,38.83,36.88S760.24,489.83,738.83,489.83Z"/><path class="cls-7" d="M738.83,416.57c21.13,0,38.33,16.32,38.33,36.38s-17.2,36.39-38.33,36.39S700.5,473,700.5,453s17.19-36.38,38.33-36.38m0-1c-21.72,0-39.33,16.73-39.33,37.38s17.61,37.39,39.33,37.39S778.16,473.6,778.16,453s-17.61-37.38-39.33-37.38Z"/><rect class="cls-4" x="480.5" y="490" width="479.33" height="245.34"/><ellipse class="cls-5" cx="529.66" cy="536.73" rx="49.16" ry="46.73"/><ellipse class="cls-5" cx="634.13" cy="624.35" rx="92.18" ry="87.62"/><path class="cls-6" d="M634.13,537.73c50.28,0,91.18,38.86,91.18,86.62S684.41,711,634.13,711,543,672.11,543,624.35s40.9-86.62,91.18-86.62m0-1C583.22,536.73,542,576,542,624.35S583.22,712,634.13,712s92.18-39.23,92.18-87.62S685,536.73,634.13,536.73Z"/><ellipse class="cls-7" cx="523.52" cy="694.45" rx="43.02" ry="40.89"/><ellipse class="cls-3" cx="785.3" cy="560.1" rx="76.2" ry="70.1"/><path class="cls-5" d="M837.54,734.83c-33.27,0-60.34-25.71-60.34-57.32s27.07-57.33,60.34-57.33,60.34,25.72,60.34,57.33S870.81,734.83,837.54,734.83Z"/><path class="cls-4" d="M837.54,620.68c33,0,59.84,25.49,59.84,56.83s-26.85,56.83-59.84,56.83-59.84-25.5-59.84-56.83,26.84-56.83,59.84-56.83m0-1c-33.6,0-60.84,25.89-60.84,57.83s27.24,57.83,60.84,57.83,60.84-25.9,60.84-57.83-27.24-57.83-60.84-57.83Z"/><path class="cls-4" d="M907.59,642.54c-28.52,0-51.73-22-51.73-49.15s23.21-49.15,51.73-49.15,51.74,22,51.74,49.15S936.12,642.54,907.59,642.54Z"/><path class="cls-3" d="M907.59,544.74c28.25,0,51.24,21.82,51.24,48.65S935.84,642,907.59,642s-51.23-21.82-51.23-48.65,23-48.65,51.23-48.65m0-1c-28.84,0-52.23,22.23-52.23,49.65S878.75,643,907.59,643s52.24-22.23,52.24-49.65-23.39-49.65-52.24-49.65Z"/><path class="cls-4" d="M739.83,734.83C718.42,734.83,701,718.29,701,698s17.42-36.88,38.83-36.88,38.83,16.54,38.83,36.88S761.24,734.83,739.83,734.83Z"/><path class="cls-7" d="M739.83,661.57c21.13,0,38.33,16.32,38.33,36.38s-17.2,36.39-38.33,36.39S701.5,718,701.5,698s17.19-36.38,38.33-36.38m0-1c-21.72,0-39.33,16.73-39.33,37.38s17.61,37.39,39.33,37.39S779.16,718.6,779.16,698s-17.61-37.38-39.33-37.38Z"/><rect class="cls-4" x="960.5" y="490" width="479.33" height="245.34"/><ellipse class="cls-5" cx="1009.66" cy="536.73" rx="49.16" ry="46.73"/><ellipse class="cls-5" cx="1114.13" cy="624.35" rx="92.18" ry="87.62"/><path class="cls-6" d="M1114.13,537.73c50.28,0,91.18,38.86,91.18,86.62S1164.41,711,1114.13,711,1023,672.11,1023,624.35s40.9-86.62,91.18-86.62m0-1c-50.91,0-92.18,39.23-92.18,87.62S1063.22,712,1114.13,712s92.18-39.23,92.18-87.62-41.27-87.62-92.18-87.62Z"/><ellipse class="cls-7" cx="1003.52" cy="694.45" rx="43.02" ry="40.89"/><ellipse class="cls-3" cx="1265.3" cy="560.1" rx="76.2" ry="70.1"/><path class="cls-5" d="M1317.54,734.83c-33.27,0-60.34-25.71-60.34-57.32s27.07-57.33,60.34-57.33,60.34,25.72,60.34,57.33S1350.81,734.83,1317.54,734.83Z"/><path class="cls-4" d="M1317.54,620.68c33,0,59.84,25.49,59.84,56.83s-26.85,56.83-59.84,56.83-59.84-25.5-59.84-56.83,26.84-56.83,59.84-56.83m0-1c-33.6,0-60.84,25.89-60.84,57.83s27.24,57.83,60.84,57.83,60.84-25.9,60.84-57.83-27.24-57.83-60.84-57.83Z"/><path class="cls-4" d="M1387.59,642.54c-28.52,0-51.73-22-51.73-49.15s23.21-49.15,51.73-49.15,51.74,22,51.74,49.15S1416.12,642.54,1387.59,642.54Z"/><path class="cls-3" d="M1387.59,544.74c28.25,0,51.24,21.82,51.24,48.65s-23,48.65-51.24,48.65-51.23-21.82-51.23-48.65,23-48.65,51.23-48.65m0-1c-28.84,0-52.23,22.23-52.23,49.65S1358.75,643,1387.59,643s52.24-22.23,52.24-49.65-23.39-49.65-52.24-49.65Z"/><path class="cls-4" d="M1219.83,734.83c-21.41,0-38.83-16.54-38.83-36.88s17.42-36.88,38.83-36.88,38.83,16.54,38.83,36.88S1241.24,734.83,1219.83,734.83Z"/><path class="cls-7" d="M1219.83,661.57c21.13,0,38.33,16.32,38.33,36.38s-17.2,36.39-38.33,36.39S1181.5,718,1181.5,698s17.19-36.38,38.33-36.38m0-1c-21.72,0-39.33,16.73-39.33,37.38s17.61,37.39,39.33,37.39,39.33-16.74,39.33-37.39-17.61-37.38-39.33-37.38Z"/><rect class="cls-4" x="960.5" y="245" width="479.33" height="245.34"/><ellipse class="cls-5" cx="1009.66" cy="291.73" rx="49.16" ry="46.73"/><ellipse class="cls-5" cx="1114.13" cy="379.35" rx="92.18" ry="87.62"/><path class="cls-6" d="M1114.13,292.73c50.28,0,91.18,38.86,91.18,86.62S1164.41,466,1114.13,466,1023,427.11,1023,379.35s40.9-86.62,91.18-86.62m0-1c-50.91,0-92.18,39.23-92.18,87.62S1063.22,467,1114.13,467s92.18-39.23,92.18-87.62-41.27-87.62-92.18-87.62Z"/><ellipse class="cls-7" cx="1003.52" cy="449.45" rx="43.02" ry="40.89"/><ellipse class="cls-3" cx="1265.3" cy="315.1" rx="76.2" ry="70.1"/><path class="cls-5" d="M1317.54,489.83c-33.27,0-60.34-25.71-60.34-57.32s27.07-57.33,60.34-57.33,60.34,25.72,60.34,57.33S1350.81,489.83,1317.54,489.83Z"/><path class="cls-4" d="M1317.54,375.68c33,0,59.84,25.49,59.84,56.83s-26.85,56.83-59.84,56.83-59.84-25.5-59.84-56.83,26.84-56.83,59.84-56.83m0-1c-33.6,0-60.84,25.89-60.84,57.83s27.24,57.83,60.84,57.83,60.84-25.9,60.84-57.83-27.24-57.83-60.84-57.83Z"/><path class="cls-4" d="M1387.59,397.54c-28.52,0-51.73-22.05-51.73-49.15s23.21-49.15,51.73-49.15,51.74,22.05,51.74,49.15S1416.12,397.54,1387.59,397.54Z"/><path class="cls-3" d="M1387.59,299.74c28.25,0,51.24,21.82,51.24,48.65s-23,48.65-51.24,48.65-51.23-21.82-51.23-48.65,23-48.65,51.23-48.65m0-1c-28.84,0-52.23,22.23-52.23,49.65S1358.75,398,1387.59,398s52.24-22.23,52.24-49.65-23.39-49.65-52.24-49.65Z"/><path class="cls-4" d="M1219.83,489.83c-21.41,0-38.83-16.54-38.83-36.88s17.42-36.88,38.83-36.88,38.83,16.54,38.83,36.88S1241.24,489.83,1219.83,489.83Z"/><path class="cls-7" d="M1219.83,416.57c21.13,0,38.33,16.32,38.33,36.38s-17.2,36.39-38.33,36.39S1181.5,473,1181.5,453s17.19-36.38,38.33-36.38m0-1c-21.72,0-39.33,16.73-39.33,37.38s17.61,37.39,39.33,37.39,39.33-16.74,39.33-37.39-17.61-37.38-39.33-37.38Z"/><rect class="cls-4" x="959.5" width="479.33" height="245.34"/><ellipse class="cls-5" cx="1008.66" cy="46.73" rx="49.16" ry="46.73"/><ellipse class="cls-5" cx="1113.13" cy="134.35" rx="92.18" ry="87.62"/><path class="cls-6" d="M1113.13,47.73c50.28,0,91.18,38.86,91.18,86.62S1163.41,221,1113.13,221,1022,182.11,1022,134.35s40.9-86.62,91.18-86.62m0-1c-50.91,0-92.18,39.23-92.18,87.62S1062.22,222,1113.13,222s92.18-39.23,92.18-87.62S1164,46.73,1113.13,46.73Z"/><ellipse class="cls-7" cx="1002.52" cy="204.45" rx="43.02" ry="40.89"/><ellipse class="cls-3" cx="1264.3" cy="70.1" rx="76.2" ry="70.1"/><ellipse class="cls-5" cx="1316.54" cy="187.51" rx="60.34" ry="57.33"/><path class="cls-4" d="M1316.54,130.68c33,0,59.84,25.49,59.84,56.83s-26.85,56.83-59.84,56.83-59.84-25.5-59.84-56.83,26.84-56.83,59.84-56.83m0-1c-33.6,0-60.84,25.89-60.84,57.83s27.24,57.83,60.84,57.83,60.84-25.9,60.84-57.83-27.24-57.83-60.84-57.83Z"/><path class="cls-4" d="M1386.59,152.54c-28.52,0-51.73-22-51.73-49.15s23.21-49.15,51.73-49.15,51.74,22.05,51.74,49.15S1415.12,152.54,1386.59,152.54Z"/><path class="cls-3" d="M1386.59,54.74c28.25,0,51.24,21.82,51.24,48.65s-23,48.65-51.24,48.65-51.23-21.82-51.23-48.65,23-48.65,51.23-48.65m0-1c-28.84,0-52.23,22.23-52.23,49.65S1357.75,153,1386.59,153s52.24-22.23,52.24-49.65-23.39-49.65-52.24-49.65Z"/><path class="cls-4" d="M1218.83,244.84c-21.41,0-38.83-16.55-38.83-36.89s17.42-36.88,38.83-36.88,38.83,16.54,38.83,36.88S1240.24,244.84,1218.83,244.84Z"/><path class="cls-7" d="M1218.83,171.57c21.13,0,38.33,16.32,38.33,36.38s-17.2,36.39-38.33,36.39S1180.5,228,1180.5,208s17.19-36.38,38.33-36.38m0-1c-21.72,0-39.33,16.73-39.33,37.38s17.61,37.39,39.33,37.39,39.33-16.74,39.33-37.39-17.61-37.38-39.33-37.38Z"/><rect class="cls-4" x="0.5" y="490" width="479.33" height="245.34"/><ellipse class="cls-5" cx="49.66" cy="536.73" rx="49.16" ry="46.73"/><ellipse class="cls-5" cx="154.13" cy="624.35" rx="92.18" ry="87.62"/><path class="cls-6" d="M154.13,537.73c50.28,0,91.18,38.86,91.18,86.62S204.41,711,154.13,711,63,672.11,63,624.35s40.9-86.62,91.18-86.62m0-1C103.22,536.73,62,576,62,624.35S103.22,712,154.13,712s92.18-39.23,92.18-87.62S205,536.73,154.13,536.73Z"/><ellipse class="cls-7" cx="43.52" cy="694.45" rx="43.02" ry="40.89"/><ellipse class="cls-3" cx="305.3" cy="560.1" rx="76.2" ry="70.1"/><path class="cls-5" d="M357.54,734.83c-33.27,0-60.34-25.71-60.34-57.32s27.07-57.33,60.34-57.33,60.34,25.72,60.34,57.33S390.81,734.83,357.54,734.83Z"/><path class="cls-4" d="M357.54,620.68c33,0,59.84,25.49,59.84,56.83s-26.85,56.83-59.84,56.83-59.84-25.5-59.84-56.83,26.84-56.83,59.84-56.83m0-1c-33.6,0-60.84,25.89-60.84,57.83s27.24,57.83,60.84,57.83,60.84-25.9,60.84-57.83-27.24-57.83-60.84-57.83Z"/><ellipse class="cls-4" cx="427.59" cy="593.39" rx="51.73" ry="49.15"/><path class="cls-3" d="M427.59,544.74c28.25,0,51.24,21.82,51.24,48.65S455.84,642,427.59,642s-51.23-21.82-51.23-48.65,23-48.65,51.23-48.65m0-1c-28.84,0-52.23,22.23-52.23,49.65S398.75,643,427.59,643s52.24-22.23,52.24-49.65-23.39-49.65-52.24-49.65Z"/><path class="cls-4" d="M259.83,734.83C238.42,734.83,221,718.29,221,698s17.42-36.88,38.83-36.88,38.83,16.54,38.83,36.88S281.24,734.83,259.83,734.83Z"/><path class="cls-7" d="M259.83,661.57c21.13,0,38.33,16.32,38.33,36.38s-17.2,36.39-38.33,36.39S221.5,718,221.5,698s17.19-36.38,38.33-36.38m0-1c-21.72,0-39.33,16.73-39.33,37.38s17.61,37.39,39.33,37.39S299.16,718.6,299.16,698s-17.61-37.38-39.33-37.38Z"/><rect class="cls-4" y="245" width="479.33" height="245.34"/><ellipse class="cls-5" cx="49.16" cy="291.73" rx="49.16" ry="46.73"/><ellipse class="cls-5" cx="153.63" cy="379.35" rx="92.18" ry="87.62"/><path class="cls-6" d="M153.63,292.73c50.28,0,91.18,38.86,91.18,86.62S203.91,466,153.63,466s-91.18-38.86-91.18-86.62,40.9-86.62,91.18-86.62m0-1c-50.91,0-92.18,39.23-92.18,87.62S102.72,467,153.63,467s92.18-39.23,92.18-87.62-41.27-87.62-92.18-87.62Z"/><ellipse class="cls-7" cx="43.02" cy="449.45" rx="43.02" ry="40.89"/><ellipse class="cls-3" cx="304.8" cy="315.1" rx="76.2" ry="70.1"/><path class="cls-5" d="M357,489.83c-33.27,0-60.34-25.71-60.34-57.32s27.07-57.33,60.34-57.33,60.34,25.72,60.34,57.33S390.31,489.83,357,489.83Z"/><path class="cls-4" d="M357,375.68c33,0,59.84,25.49,59.84,56.83S390,489.34,357,489.34s-59.84-25.5-59.84-56.83S324,375.68,357,375.68m0-1c-33.6,0-60.84,25.89-60.84,57.83s27.24,57.83,60.84,57.83,60.84-25.9,60.84-57.83S390.64,374.68,357,374.68Z"/><ellipse class="cls-4" cx="427.09" cy="348.39" rx="51.73" ry="49.15"/><path class="cls-3" d="M427.09,299.74c28.25,0,51.24,21.82,51.24,48.65S455.34,397,427.09,397s-51.23-21.82-51.23-48.65,23-48.65,51.23-48.65m0-1c-28.84,0-52.23,22.23-52.23,49.65S398.25,398,427.09,398s52.24-22.23,52.24-49.65-23.39-49.65-52.24-49.65Z"/><path class="cls-4" d="M259.33,489.83c-21.41,0-38.83-16.54-38.83-36.88s17.42-36.88,38.83-36.88,38.83,16.54,38.83,36.88S280.74,489.83,259.33,489.83Z"/><path class="cls-7" d="M259.33,416.57c21.13,0,38.33,16.32,38.33,36.38s-17.2,36.39-38.33,36.39S221,473,221,453s17.19-36.38,38.33-36.38m0-1C237.61,415.57,220,432.3,220,453s17.61,37.39,39.33,37.39S298.66,473.6,298.66,453s-17.61-37.38-39.33-37.38Z"/><rect class="cls-3" x="130.1" y="540.61" width="110.13" height="2.07"/><rect class="cls-3" x="130.32" y="573.81" width="109.91" height="2.07"/><rect class="cls-3" x="130.32" y="582.11" width="109.91" height="2.07"/><rect class="cls-3" x="130.32" y="590.41" width="109.91" height="2.07"/><rect class="cls-3" x="130.1" y="598.71" width="110.13" height="2.07"/><rect class="cls-3" x="130.32" y="607" width="109.91" height="2.07"/><rect class="cls-3" x="130.1" y="615.3" width="110.13" height="2.07"/><rect class="cls-3" x="130.32" y="623.6" width="109.91" height="2.07"/><rect class="cls-3" x="130.1" y="631.9" width="110.13" height="2.07"/><rect class="cls-3" x="130.32" y="565.3" width="109.91" height="2.28"/><rect class="cls-3" x="130.32" y="557.21" width="109.91" height="2.07"/><rect class="cls-3" x="130.1" y="548.91" width="110.13" height="2.07"/><rect class="cls-3" x="81.48" y="589.25" width="99.79" height="2.11" transform="translate(-458.93 721.68) rotate(-90)"/><rect class="cls-3" x="89.72" y="589.45" width="99.79" height="2.11" transform="translate(-450.89 730.13) rotate(-90)"/><rect class="cls-3" x="98.17" y="589.45" width="99.79" height="2.11" transform="translate(-442.44 738.58) rotate(-90)"/><rect class="cls-3" x="106.63" y="589.45" width="99.79" height="2.11" transform="translate(-433.98 747.04) rotate(-90)"/><rect class="cls-3" x="115.08" y="589.25" width="99.79" height="2.11" transform="translate(-425.32 755.28) rotate(-90)"/><rect class="cls-3" x="123.75" y="589.45" width="99.79" height="2.11" transform="translate(-416.86 764.16) rotate(-90)"/><rect class="cls-3" x="131.99" y="589.45" width="99.79" height="2.11" transform="translate(-408.62 772.4) rotate(-90)"/><rect class="cls-3" x="140.66" y="589.25" width="99.79" height="2.11" transform="translate(-399.75 780.86) rotate(-90)"/><rect class="cls-3" x="149.12" y="589.45" width="99.79" height="2.11" transform="translate(-391.5 789.52) rotate(-90)"/><rect class="cls-3" x="157.36" y="589.25" width="99.79" height="2.11" transform="translate(-383.05 797.56) rotate(-90)"/><rect class="cls-3" x="165.81" y="589.25" width="99.79" height="2.11" transform="translate(-374.59 806.01) rotate(-90)"/><rect class="cls-3" x="174.27" y="589.25" width="99.79" height="2.11" transform="translate(-366.14 814.47) rotate(-90)"/><rect class="cls-3" x="182.72" y="589.45" width="99.79" height="2.11" transform="translate(-357.89 823.13) rotate(-90)"/></g></g></svg>