<svg xmlns="http://www.w3.org/2000/svg" xmlns:xlink="http://www.w3.org/1999/xlink" viewBox="0 0 684.76 350.48"><defs><style>.cls-1{fill:none;}.cls-2,.cls-3{fill:#f2f2f2;}.cls-2{stroke:#f2f2f2;stroke-miterlimit:10;}.cls-4{fill:#fff;}.cls-5{fill:url(#small_242_lattice);}.cls-6{fill:url(#New_Pattern);}.cls-7{fill:#e6e6e6;}</style><pattern id="small_242_lattice" data-name="small 242 lattice" width="110.13" height="100" patternUnits="userSpaceOnUse" viewBox="0 0 110.13 100"><rect class="cls-1" width="110.13" height="100"/><rect class="cls-3" y="0.21" width="110.13" height="2.07"/><rect class="cls-3" x="0.21" y="33.4" width="109.91" height="2.07"/><rect class="cls-3" x="0.21" y="41.7" width="109.91" height="2.07"/><rect class="cls-3" x="0.21" y="50" width="109.91" height="2.07"/><rect class="cls-3" y="58.3" width="110.13" height="2.07"/><rect class="cls-3" x="0.21" y="66.6" width="109.91" height="2.07"/><rect class="cls-3" y="74.9" width="110.13" height="2.07"/><rect class="cls-3" x="0.21" y="83.2" width="109.91" height="2.07"/><rect class="cls-3" y="91.49" width="110.13" height="2.07"/><rect class="cls-3" x="0.21" y="24.9" width="109.91" height="2.28"/><rect class="cls-3" x="0.21" y="16.8" width="109.91" height="2.07"/><rect class="cls-3" y="8.51" width="110.13" height="2.07"/><polygon class="cls-3" points="2.33 0 2.33 99.79 0.21 99.79 0.21 0 2.33 0"/><polygon class="cls-3" points="10.57 0.21 10.57 100 8.46 100 8.46 0.21 10.57 0.21"/><polygon class="cls-3" points="19.02 0.21 19.02 100 16.91 100 16.91 0.21 19.02 0.21"/><polygon class="cls-3" points="27.48 0.21 27.48 100 25.36 100 25.36 0.21 27.48 0.21"/><polygon class="cls-3" points="35.93 0 35.93 99.79 33.82 99.79 33.82 0 35.93 0"/><polygon class="cls-3" points="44.6 0.21 44.6 100 42.49 100 42.49 0.21 44.6 0.21"/><polygon class="cls-3" points="52.84 0.21 52.84 100 50.73 100 50.73 0.21 52.84 0.21"/><polygon class="cls-3" points="61.51 0 61.51 99.79 59.4 99.79 59.4 0 61.51 0"/><polygon class="cls-3" points="69.96 0.21 69.96 100 67.85 100 67.85 0.21 69.96 0.21"/><polygon class="cls-3" points="78.21 0 78.21 99.79 76.09 99.79 76.09 0 78.21 0"/><polygon class="cls-3" points="86.66 0 86.66 99.79 84.55 99.79 84.55 0 86.66 0"/><polygon class="cls-3" points="95.12 0 95.12 99.79 93 99.79 93 0 95.12 0"/><polygon class="cls-3" points="103.57 0.21 103.57 100 101.46 100 101.46 0.21 103.57 0.21"/></pattern><pattern id="New_Pattern" data-name="New Pattern" width="221.25" height="201" patternUnits="userSpaceOnUse" viewBox="0 0 221.25 201"><rect class="cls-1" width="221.25" height="201"/><rect class="cls-2" x="0.5" y="0.91" width="220.25" height="4.15"/><rect class="cls-2" x="0.92" y="67.3" width="219.83" height="4.15"/><rect class="cls-2" x="0.92" y="83.9" width="219.83" height="4.15"/><rect class="cls-2" x="0.92" y="100.5" width="219.83" height="4.15"/><rect class="cls-2" x="0.5" y="117.1" width="220.25" height="4.15"/><rect class="cls-2" x="0.92" y="133.7" width="219.83" height="4.15"/><rect class="cls-2" x="0.5" y="150.29" width="220.25" height="4.15"/><rect class="cls-2" x="0.92" y="166.89" width="219.83" height="4.15"/><rect class="cls-2" x="0.5" y="183.49" width="220.25" height="4.15"/><rect class="cls-2" x="0.92" y="50.29" width="219.83" height="4.56"/><rect class="cls-2" x="0.92" y="34.11" width="219.83" height="4.15"/><rect class="cls-2" x="0.5" y="17.51" width="220.25" height="4.15"/><polygon class="cls-2" points="5.15 0.5 5.15 200.09 0.92 200.09 0.92 0.5 5.15 0.5"/><polygon class="cls-2" points="21.64 0.92 21.64 200.5 17.41 200.5 17.41 0.92 21.64 0.92"/><polygon class="cls-2" points="38.55 0.92 38.55 200.5 34.32 200.5 34.32 0.92 38.55 0.92"/><polygon class="cls-2" points="55.46 0.92 55.46 200.5 51.23 200.5 51.23 0.92 55.46 0.92"/><polygon class="cls-2" points="72.37 0.5 72.37 200.09 68.14 200.09 68.14 0.5 72.37 0.5"/><polygon class="cls-2" points="89.7 0.92 89.7 200.5 85.47 200.5 85.47 0.92 89.7 0.92"/><polygon class="cls-2" points="106.19 0.92 106.19 200.5 101.96 200.5 101.96 0.92 106.19 0.92"/><polygon class="cls-2" points="123.52 0.5 123.52 200.09 119.29 200.09 119.29 0.5 123.52 0.5"/><polygon class="cls-2" points="140.43 0.92 140.43 200.5 136.2 200.5 136.2 0.92 140.43 0.92"/><polygon class="cls-2" points="156.92 0.5 156.92 200.09 152.69 200.09 152.69 0.5 156.92 0.5"/><polygon class="cls-2" points="173.82 0.5 173.82 200.09 169.6 200.09 169.6 0.5 173.82 0.5"/><polygon class="cls-2" points="190.74 0.5 190.74 200.09 186.51 200.09 186.51 0.5 190.74 0.5"/><polygon class="cls-2" points="207.65 0.92 207.65 200.5 203.42 200.5 203.42 0.92 207.65 0.92"/></pattern></defs><title>circle-pattern-3</title><g id="Layer_2" data-name="Layer 2"><g id="Layer_1-2" data-name="Layer 1"><rect class="cls-4" width="684.76" height="350.48"/><ellipse class="cls-5" cx="70.23" cy="66.76" rx="70.23" ry="66.76"/><ellipse class="cls-5" cx="219.47" cy="191.93" rx="131.68" ry="125.17"/><path class="cls-6" d="M219.47,67.76c34.92,0,67.74,12.92,92.43,36.38s38.26,54.63,38.26,87.79-13.59,64.33-38.26,87.78-57.51,36.39-92.43,36.39-67.74-12.92-92.42-36.39-38.26-54.62-38.26-87.78,13.59-64.33,38.26-87.79,57.51-36.38,92.42-36.38m0-1c-72.72,0-131.68,56-131.68,125.17s59,125.17,131.68,125.17,131.69-56,131.69-125.17S292.2,66.76,219.47,66.76Z"/><ellipse class="cls-7" cx="61.45" cy="292.07" rx="61.45" ry="58.41"/><ellipse class="cls-3" cx="435.43" cy="100.14" rx="108.86" ry="100.14"/><ellipse class="cls-5" cx="510.05" cy="267.87" rx="86.41" ry="82.11"/><path class="cls-4" d="M510.05,186.25c47.38,0,85.92,36.61,85.92,81.62s-38.54,81.61-85.92,81.61-85.91-36.61-85.91-81.61,38.54-81.62,85.91-81.62m0-1c-48,0-86.91,37-86.91,82.62s38.91,82.61,86.91,82.61,86.92-37,86.92-82.61-38.92-82.62-86.92-82.62Z"/><ellipse class="cls-4" cx="610.13" cy="147.7" rx="74.12" ry="70.43"/><path class="cls-3" d="M610.13,77.77c40.6,0,73.63,31.37,73.63,69.93s-33,69.93-73.63,69.93-73.62-31.37-73.62-69.93,33-69.93,73.62-69.93m0-1c-41.21,0-74.62,31.76-74.62,70.93s33.41,70.93,74.62,70.93,74.63-31.75,74.63-70.93-33.41-70.93-74.63-70.93Z"/><ellipse class="cls-4" cx="370.47" cy="297.07" rx="55.69" ry="52.91"/><path class="cls-7" d="M370.47,244.67c30.43,0,55.19,23.51,55.19,52.4s-24.76,52.41-55.19,52.41S315.28,326,315.28,297.07s24.76-52.4,55.19-52.4m0-1c-31,0-56.19,23.91-56.19,53.4s25.16,53.41,56.19,53.41,56.19-23.91,56.19-53.41-25.16-53.4-56.19-53.4Z"/></g></g></svg>