<svg xmlns="http://www.w3.org/2000/svg" viewBox="0 0 1132.95 751.46"><defs><style>.cls-1{fill:none;stroke:#cdefff;stroke-miterlimit:10;}</style></defs><title>forks7</title><g id="Layer_2" data-name="Layer 2"><g id="Layer_1-2" data-name="Layer 1"><path class="cls-1" d="M966.94,706.88c-4.4,8.2-16,16.4-16,16.4l.19.23-.24-.24-1.2-1v0c1-.73,11.4-8.6,15.63-16.63l-.42-.57c-4,7.38-13.76,14.76-15.67,16.16l-1.13-.94c.09,0,11.24-8.3,15.67-16.7l-.42-.58c-4.4,8.2-16,16.4-16,16.4l-1.25-1.12-.62-.78.58.7c-.16.16,11.23-8.18,15.71-16.68l-.42-.57c-4.37,8.15-15.86,16.3-16,16.39l-.05-.06c-.77.64-2.36,1.69-3.4,2.37a2.49,2.49,0,0,0-1.08,1.43c-.64,2.34-4.43,4.51-5.46,5.07a2.32,2.32,0,0,0-.46.31c-3.92,3.4-30.09,15.38-39.36,19.56a2.59,2.59,0,0,0-.85,4.1h0a2.59,2.59,0,0,0,3.23.5c7-4.06,31.83-18.57,37.82-21.85a2,2,0,0,1,.36-.16c1-.36,5.54-1.87,8.91-1a2.59,2.59,0,0,0,1.89-.24c1.47-.8,4.1-2.33,4.76-3.2h0c-.16.16,11.23-8.17,15.71-16.67Z"/><path class="cls-1" d="M620.24,706.88c-4.4,8.2-16,16.4-16,16.4l.19.23-.24-.24-1.2-1v0c1-.73,11.4-8.6,15.63-16.63l-.42-.57c-4,7.38-13.76,14.76-15.67,16.16l-1.13-.94c.09,0,11.24-8.3,15.67-16.7l-.42-.58c-4.4,8.2-16,16.4-16,16.4l-1.25-1.12-.63-.78.59.7c-.16.16,11.23-8.18,15.71-16.68l-.42-.57c-4.38,8.15-15.87,16.3-16,16.39l0-.06c-.77.64-2.36,1.69-3.4,2.37a2.55,2.55,0,0,0-1.09,1.43c-.63,2.34-4.42,4.51-5.45,5.07a2.06,2.06,0,0,0-.46.31c-3.92,3.4-30.09,15.38-39.36,19.56a2.59,2.59,0,0,0-.85,4.1h0a2.59,2.59,0,0,0,3.23.5C558.16,746.55,583,732,589,728.76a2.43,2.43,0,0,1,.37-.16c1-.36,5.53-1.87,8.9-1a2.62,2.62,0,0,0,1.9-.24c1.46-.8,4.1-2.33,4.76-3.2h0c-.16.16,11.23-8.17,15.71-16.67Z"/><path class="cls-1" d="M273.54,706.88c-4.4,8.2-16,16.4-16,16.4l.18.23-.23-.24-1.2-1v0c1-.73,11.4-8.6,15.63-16.63l-.42-.57c-4,7.38-13.76,14.76-15.67,16.16l-1.13-.94c.08,0,11.23-8.3,15.67-16.7l-.42-.58c-4.4,8.2-16,16.4-16,16.4l-1.25-1.12-.63-.78.59.7c-.16.16,11.22-8.18,15.71-16.68l-.42-.57c-4.38,8.15-15.87,16.3-16,16.39l-.05-.06c-.77.64-2.36,1.69-3.41,2.37a2.49,2.49,0,0,0-1.08,1.43c-.63,2.34-4.43,4.51-5.46,5.07a2.26,2.26,0,0,0-.45.31c-3.93,3.4-30.1,15.38-39.36,19.56a2.59,2.59,0,0,0-.85,4.1h0a2.58,2.58,0,0,0,3.22.5c7-4.06,31.84-18.57,37.82-21.85a2.83,2.83,0,0,1,.36-.16c1-.36,5.54-1.87,8.91-1a2.59,2.59,0,0,0,1.89-.24c1.47-.8,4.11-2.33,4.76-3.2h0c-.16.16,11.22-8.17,15.71-16.67Z"/><path class="cls-1" d="M1105.27,606.88c-4.4,8.2-16,16.4-16,16.4l.19.23-.23-.24-1.2-1v0c1-.73,11.4-8.6,15.63-16.63l-.42-.57c-4,7.38-13.76,14.76-15.68,16.16l-1.12-.94c.08,0,11.23-8.3,15.67-16.7l-.43-.58c-4.4,8.2-16,16.4-16,16.4l-1.24-1.12-.63-.78.58.7c-.16.16,11.23-8.18,15.72-16.68l-.43-.57c-4.37,8.15-15.86,16.3-16,16.39l0-.06c-.77.64-2.37,1.69-3.41,2.37a2.49,2.49,0,0,0-1.08,1.43c-.64,2.34-4.43,4.51-5.46,5.07a2.26,2.26,0,0,0-.45.31c-3.93,3.4-30.1,15.38-39.36,19.56a2.6,2.6,0,0,0-.86,4.1h0a2.59,2.59,0,0,0,3.23.5c7-4.06,31.84-18.57,37.82-21.85a2.83,2.83,0,0,1,.36-.16c1-.36,5.54-1.87,8.91-1a2.59,2.59,0,0,0,1.89-.24c1.47-.8,4.11-2.33,4.76-3.2h0c-.16.16,11.23-8.17,15.72-16.67Z"/><path class="cls-1" d="M766.92,606.88c-4.4,8.2-16,16.4-16,16.4l.19.23-.24-.24-1.2-1v0c1-.73,11.4-8.6,15.63-16.63l-.43-.57c-4,7.38-13.75,14.76-15.67,16.16l-1.13-.94c.09,0,11.24-8.3,15.67-16.7l-.42-.58c-4.4,8.2-16,16.4-16,16.4l-1.25-1.12-.62-.78.58.7c-.16.16,11.23-8.18,15.71-16.68l-.42-.57c-4.37,8.15-15.86,16.3-16,16.39l-.06-.06c-.76.64-2.36,1.69-3.4,2.37a2.49,2.49,0,0,0-1.08,1.43c-.64,2.34-4.43,4.51-5.46,5.07a2.26,2.26,0,0,0-.45.31c-3.93,3.4-30.1,15.38-39.36,19.56a2.59,2.59,0,0,0-.86,4.1h0a2.59,2.59,0,0,0,3.23.5c7-4.06,31.84-18.57,37.82-21.85a2.32,2.32,0,0,1,.36-.16c1-.36,5.54-1.87,8.91-1a2.59,2.59,0,0,0,1.89-.24c1.47-.8,4.11-2.33,4.76-3.2h0c-.16.16,11.23-8.17,15.71-16.67Z"/><path class="cls-1" d="M420.22,606.88c-4.4,8.2-16,16.4-16,16.4l.19.23-.24-.24-1.2-1v0c1-.73,11.4-8.6,15.63-16.63l-.42-.57c-4,7.38-13.76,14.76-15.67,16.16l-1.13-.94c.09,0,11.24-8.3,15.67-16.7l-.42-.58c-4.4,8.2-16,16.4-16,16.4l-1.25-1.12-.62-.78.58.7c-.16.16,11.23-8.18,15.71-16.68l-.42-.57c-4.37,8.15-15.86,16.3-16,16.39l-.05-.06c-.77.64-2.36,1.69-3.4,2.37a2.49,2.49,0,0,0-1.08,1.43c-.64,2.34-4.43,4.51-5.46,5.07a2.32,2.32,0,0,0-.46.31c-3.92,3.4-30.09,15.38-39.36,19.56a2.59,2.59,0,0,0-.85,4.1h0a2.59,2.59,0,0,0,3.23.5C358.14,646.55,383,632,389,628.76a2,2,0,0,1,.36-.16c1-.36,5.54-1.87,8.91-1a2.59,2.59,0,0,0,1.89-.24c1.46-.8,4.1-2.33,4.76-3.2h0c-.16.16,11.23-8.17,15.71-16.67Z"/><path class="cls-1" d="M1,606.88c4.4,8.2,16,16.4,16,16.4l-.19.23.24-.24,1.2-1v0c-1-.73-11.4-8.6-15.63-16.63l.42-.57c4,7.38,13.76,14.76,15.67,16.16l1.13-.94c-.09,0-11.24-8.3-15.67-16.7l.42-.58c4.4,8.2,16,16.4,16,16.4l1.25-1.12.62-.78-.58.7c.16.16-11.23-8.18-15.71-16.68l.42-.57c4.37,8.15,15.86,16.3,16,16.39l.05-.06c.77.64,2.36,1.69,3.4,2.37a2.49,2.49,0,0,1,1.08,1.43c.64,2.34,4.43,4.51,5.46,5.07a2.32,2.32,0,0,1,.46.31C37,629.85,63.15,641.83,72.42,646a2.59,2.59,0,0,1,.85,4.1h0a2.59,2.59,0,0,1-3.23.5c-7-4.06-31.83-18.57-37.82-21.85a2,2,0,0,0-.36-.16c-1-.36-5.54-1.87-8.91-1a2.59,2.59,0,0,1-1.89-.24c-1.47-.8-4.1-2.33-4.76-3.2h0c.16.16-11.23-8.17-15.71-16.67Z"/><path class="cls-1" d="M993.61,506.88c-4.4,8.2-16,16.4-16,16.4l.18.23-.23-.24-1.2-1v0c1-.73,11.4-8.6,15.63-16.63l-.42-.57c-4,7.38-13.76,14.76-15.67,16.16l-1.13-.94c.09,0,11.24-8.3,15.67-16.7L990,503c-4.4,8.2-16,16.4-16,16.4l-1.25-1.12-.63-.78.59.7c-.16.16,11.23-8.18,15.71-16.68l-.42-.57c-4.38,8.15-15.87,16.3-16,16.39l0-.06c-.77.64-2.36,1.69-3.4,2.37a2.55,2.55,0,0,0-1.09,1.43c-.63,2.34-4.42,4.51-5.45,5.07a2.06,2.06,0,0,0-.46.31c-3.92,3.4-30.1,15.38-39.36,19.56a2.59,2.59,0,0,0-.85,4.1h0a2.58,2.58,0,0,0,3.22.5c7-4.06,31.84-18.57,37.82-21.85a2.43,2.43,0,0,1,.37-.16c1-.36,5.53-1.87,8.9-1a2.59,2.59,0,0,0,1.89-.24c1.47-.8,4.11-2.33,4.77-3.2h0c-.16.16,11.23-8.17,15.71-16.67Z"/><path class="cls-1" d="M646.9,506.88c-4.4,8.2-16,16.4-16,16.4l.19.23-.23-.24-1.2-1v0c1-.73,11.4-8.6,15.63-16.63l-.42-.57c-4,7.38-13.76,14.76-15.67,16.16l-1.13-.94c.08,0,11.23-8.3,15.67-16.7l-.43-.58c-4.4,8.2-16,16.4-16,16.4l-1.24-1.12-.63-.78.58.7c-.16.16,11.23-8.18,15.72-16.68l-.43-.57c-4.37,8.15-15.86,16.3-16,16.39l0-.06c-.77.64-2.36,1.69-3.41,2.37a2.49,2.49,0,0,0-1.08,1.43c-.64,2.34-4.43,4.51-5.46,5.07a2.26,2.26,0,0,0-.45.31c-3.93,3.4-30.1,15.38-39.36,19.56a2.59,2.59,0,0,0-.85,4.1h0a2.58,2.58,0,0,0,3.22.5c7-4.06,31.84-18.57,37.82-21.85a2.83,2.83,0,0,1,.36-.16c1-.36,5.54-1.87,8.91-1a2.59,2.59,0,0,0,1.89-.24c1.47-.8,4.11-2.33,4.76-3.2h0c-.16.16,11.23-8.17,15.72-16.67Z"/><path class="cls-1" d="M300.2,506.88c-4.4,8.2-16,16.4-16,16.4l.19.23-.24-.24-1.2-1v0c1-.73,11.39-8.6,15.63-16.63l-.43-.57c-4,7.38-13.75,14.76-15.67,16.16l-1.13-.94c.09,0,11.24-8.3,15.67-16.7l-.42-.58c-4.4,8.2-16,16.4-16,16.4l-1.25-1.12-.62-.78.58.7c-.16.16,11.23-8.18,15.71-16.68l-.42-.57c-4.37,8.15-15.86,16.3-16,16.39l-.06-.06c-.77.64-2.36,1.69-3.4,2.37a2.49,2.49,0,0,0-1.08,1.43c-.64,2.34-4.43,4.51-5.46,5.07a2.26,2.26,0,0,0-.45.31c-3.93,3.4-30.1,15.38-39.36,19.56a2.59,2.59,0,0,0-.86,4.1h0a2.59,2.59,0,0,0,3.23.5c7-4.06,31.84-18.57,37.82-21.85a2,2,0,0,1,.36-.16c1-.36,5.54-1.87,8.91-1a2.59,2.59,0,0,0,1.89-.24c1.47-.8,4.1-2.33,4.76-3.2h0c-.16.16,11.23-8.17,15.71-16.67Z"/><path class="cls-1" d="M1131.94,406.88c-4.4,8.2-16,16.4-16,16.4l.19.23-.24-.24-1.2-1v0c1-.73,11.4-8.6,15.63-16.63l-.42-.57c-4,7.38-13.76,14.76-15.67,16.16l-1.13-.94c.09,0,11.24-8.3,15.67-16.7l-.42-.58c-4.4,8.2-16,16.4-16,16.4l-1.25-1.12-.62-.78.58.7c-.16.16,11.23-8.18,15.71-16.68l-.42-.57c-4.37,8.15-15.86,16.3-16,16.39l0-.06c-.77.64-2.36,1.69-3.4,2.37a2.49,2.49,0,0,0-1.08,1.43c-.64,2.34-4.43,4.51-5.46,5.07a2.32,2.32,0,0,0-.46.31c-3.92,3.4-30.09,15.38-39.36,19.56a2.59,2.59,0,0,0-.85,4.1h0a2.59,2.59,0,0,0,3.23.5c7-4.06,31.83-18.57,37.82-21.85a2,2,0,0,1,.36-.16c1-.36,5.54-1.87,8.91-1a2.59,2.59,0,0,0,1.89-.24c1.47-.8,4.1-2.33,4.76-3.2h0c-.16.16,11.23-8.17,15.71-16.67Z"/><path class="cls-1" d="M721.08,406.88c4.4,8.2,16,16.4,16,16.4l-.19.23.24-.24,1.2-1v0c-1-.73-11.4-8.6-15.63-16.63l.42-.57c4,7.38,13.76,14.76,15.67,16.16l1.13-.94c-.09,0-11.24-8.3-15.67-16.7l.42-.58c4.4,8.2,16,16.4,16,16.4l1.25-1.12.62-.78-.58.7c.16.16-11.23-8.18-15.71-16.68l.42-.57c4.38,8.15,15.86,16.3,16,16.39l.05-.06c.77.64,2.36,1.69,3.4,2.37a2.55,2.55,0,0,1,1.09,1.43c.63,2.34,4.42,4.51,5.45,5.07a2.06,2.06,0,0,1,.46.31c3.92,3.4,30.09,15.38,39.36,19.56a2.59,2.59,0,0,1,.85,4.1h0a2.59,2.59,0,0,1-3.23.5c-7-4.06-31.83-18.57-37.81-21.85a2.43,2.43,0,0,0-.37-.16c-1-.36-5.53-1.87-8.9-1a2.62,2.62,0,0,1-1.9-.24c-1.46-.8-4.1-2.33-4.76-3.2h0c.16.16-11.23-8.17-15.71-16.67Z"/><path class="cls-1" d="M374.38,406.88c4.4,8.2,16,16.4,16,16.4l-.19.23.24-.24,1.2-1v0c-1-.73-11.4-8.6-15.64-16.63l.43-.57c4,7.38,13.76,14.76,15.67,16.16l1.13-.94c-.09,0-11.24-8.3-15.67-16.7L378,403c4.4,8.2,16,16.4,16,16.4l1.25-1.12.62-.78-.58.7c.16.16-11.23-8.18-15.71-16.68l.42-.57c4.37,8.15,15.86,16.3,16,16.39l0-.06c.77.64,2.36,1.69,3.4,2.37a2.49,2.49,0,0,1,1.08,1.43c.64,2.34,4.43,4.51,5.46,5.07a2.65,2.65,0,0,1,.46.31c3.92,3.4,30.09,15.38,39.35,19.56a2.59,2.59,0,0,1,.86,4.1h0a2.59,2.59,0,0,1-3.23.5c-7-4.06-31.84-18.57-37.82-21.85a2,2,0,0,0-.36-.16c-1-.36-5.54-1.87-8.91-1a2.59,2.59,0,0,1-1.89-.24c-1.47-.8-4.1-2.33-4.76-3.2h0c.16.16-11.23-8.17-15.71-16.67Z"/><path class="cls-1" d="M100.18,406.88c-4.4,8.2-16,16.4-16,16.4l.19.23-.23-.24-1.2-1v0c1-.73,11.4-8.6,15.63-16.63l-.42-.57c-4,7.38-13.76,14.76-15.68,16.16l-1.12-.94c.08,0,11.23-8.3,15.67-16.7l-.43-.58c-4.4,8.2-16,16.4-16,16.4l-1.24-1.12-.63-.78.58.7c-.16.16,11.23-8.18,15.72-16.68l-.43-.57c-4.37,8.15-15.86,16.3-16,16.39l0-.06c-.77.64-2.36,1.69-3.41,2.37a2.49,2.49,0,0,0-1.08,1.43c-.64,2.34-4.43,4.51-5.46,5.07a2.26,2.26,0,0,0-.45.31C64.21,429.85,38,441.83,28.78,446a2.59,2.59,0,0,0-.85,4.1h0a2.58,2.58,0,0,0,3.22.5C38.11,446.55,63,432,69,428.76a2.83,2.83,0,0,1,.36-.16c1-.36,5.54-1.87,8.91-1a2.59,2.59,0,0,0,1.89-.24c1.47-.8,4.11-2.33,4.76-3.2h0c-.16.16,11.23-8.17,15.72-16.67Z"/><path class="cls-1" d="M993.61,306.88c-4.4,8.2-16,16.4-16,16.4l.18.23-.23-.24-1.2-1v0c1-.73,11.4-8.6,15.63-16.63l-.42-.57c-4,7.38-13.76,14.76-15.67,16.16l-1.13-.94c.09,0,11.24-8.3,15.67-16.7L990,303c-4.4,8.2-16,16.4-16,16.4l-1.25-1.12-.63-.78.59.7c-.16.16,11.23-8.18,15.71-16.68l-.42-.57c-4.38,8.15-15.87,16.3-16,16.39l0-.06c-.77.64-2.36,1.69-3.4,2.37a2.55,2.55,0,0,0-1.09,1.43c-.63,2.34-4.42,4.51-5.45,5.07a2.06,2.06,0,0,0-.46.31c-3.92,3.4-30.1,15.38-39.36,19.56a2.59,2.59,0,0,0-.85,4.1h0a2.58,2.58,0,0,0,3.22.5c7-4.06,31.84-18.57,37.82-21.85a2.43,2.43,0,0,1,.37-.16c1-.36,5.53-1.87,8.9-1a2.59,2.59,0,0,0,1.89-.24c1.47-.8,4.11-2.33,4.77-3.2h0c-.16.16,11.23-8.17,15.71-16.67Z"/><path class="cls-1" d="M646.9,306.88c-4.4,8.2-16,16.4-16,16.4l.19.23-.23-.24-1.2-1v0c1-.73,11.4-8.6,15.63-16.63l-.42-.57c-4,7.38-13.76,14.76-15.67,16.16l-1.13-.94c.08,0,11.23-8.3,15.67-16.7l-.43-.58c-4.4,8.2-16,16.4-16,16.4l-1.24-1.12-.63-.78.58.7c-.16.16,11.23-8.18,15.72-16.68l-.43-.57c-4.37,8.15-15.86,16.3-16,16.39l0-.06c-.77.64-2.36,1.69-3.41,2.37a2.49,2.49,0,0,0-1.08,1.43c-.64,2.34-4.43,4.51-5.46,5.07a2.26,2.26,0,0,0-.45.31c-3.93,3.4-30.1,15.38-39.36,19.56a2.59,2.59,0,0,0-.85,4.1h0a2.58,2.58,0,0,0,3.22.5c7-4.06,31.84-18.57,37.82-21.85a2.83,2.83,0,0,1,.36-.16c1-.36,5.54-1.87,8.91-1a2.59,2.59,0,0,0,1.89-.24c1.47-.8,4.11-2.33,4.76-3.2h0c-.16.16,11.23-8.17,15.72-16.67Z"/><path class="cls-1" d="M300.2,306.88c-4.4,8.2-16,16.4-16,16.4l.19.23-.24-.24-1.2-1v0c1-.73,11.39-8.6,15.63-16.63l-.43-.57c-4,7.38-13.75,14.76-15.67,16.16l-1.13-.94c.09,0,11.24-8.3,15.67-16.7l-.42-.58c-4.4,8.2-16,16.4-16,16.4l-1.25-1.12-.62-.78.58.7c-.16.16,11.23-8.18,15.71-16.68l-.42-.57c-4.37,8.15-15.86,16.3-16,16.39l-.06-.06c-.77.64-2.36,1.69-3.4,2.37a2.49,2.49,0,0,0-1.08,1.43c-.64,2.34-4.43,4.51-5.46,5.07a2.26,2.26,0,0,0-.45.31c-3.93,3.4-30.1,15.38-39.36,19.56a2.59,2.59,0,0,0-.86,4.1h0a2.59,2.59,0,0,0,3.23.5c7-4.06,31.84-18.57,37.82-21.85a2,2,0,0,1,.36-.16c1-.36,5.54-1.87,8.91-1a2.59,2.59,0,0,0,1.89-.24c1.47-.8,4.1-2.33,4.76-3.2h0c-.16.16,11.23-8.17,15.71-16.67Z"/><path class="cls-1" d="M1032.77,206.88c4.4,8.2,16,16.4,16,16.4l-.19.23.23-.24,1.2-1v0c-1-.73-11.4-8.6-15.63-16.63l.42-.57c4,7.38,13.76,14.76,15.68,16.16l1.12-.94c-.08,0-11.23-8.3-15.67-16.7l.43-.58c4.4,8.2,16,16.4,16,16.4l1.24-1.12.63-.78-.58.7c.16.16-11.23-8.18-15.72-16.68l.43-.57c4.37,8.15,15.86,16.3,16,16.39l.05-.06c.77.64,2.36,1.69,3.41,2.37a2.49,2.49,0,0,1,1.08,1.43c.64,2.34,4.43,4.51,5.46,5.07a2.26,2.26,0,0,1,.45.31c3.93,3.4,30.1,15.38,39.36,19.56a2.59,2.59,0,0,1,.85,4.1h0a2.58,2.58,0,0,1-3.22.5c-7-4.06-31.84-18.57-37.82-21.85a2.83,2.83,0,0,0-.36-.16c-1-.36-5.54-1.87-8.91-1a2.59,2.59,0,0,1-1.89-.24c-1.47-.8-4.11-2.33-4.76-3.2h0c.16.16-11.23-8.17-15.72-16.67Z"/><path class="cls-1" d="M766.92,206.88c-4.4,8.2-16,16.4-16,16.4l.19.23-.24-.24-1.2-1v0c1-.73,11.4-8.6,15.63-16.63l-.43-.57c-4,7.38-13.75,14.76-15.67,16.16l-1.13-.94c.09,0,11.24-8.3,15.67-16.7l-.42-.58c-4.4,8.2-16,16.4-16,16.4l-1.25-1.12-.62-.78.58.7c-.16.16,11.23-8.18,15.71-16.68l-.42-.57c-4.37,8.15-15.86,16.3-16,16.39l-.06-.06c-.76.64-2.36,1.69-3.4,2.37a2.49,2.49,0,0,0-1.08,1.43c-.64,2.34-4.43,4.51-5.46,5.07a2.26,2.26,0,0,0-.45.31c-3.93,3.4-30.1,15.38-39.36,19.56a2.59,2.59,0,0,0-.86,4.1h0a2.59,2.59,0,0,0,3.23.5c7-4.06,31.84-18.57,37.82-21.85a2.32,2.32,0,0,1,.36-.16c1-.36,5.54-1.87,8.91-1a2.59,2.59,0,0,0,1.89-.24c1.47-.8,4.11-2.33,4.76-3.2h0c-.16.16,11.23-8.17,15.71-16.67Z"/><path class="cls-1" d="M420.22,206.88c-4.4,8.2-16,16.4-16,16.4l.19.23-.24-.24-1.2-1v0c1-.73,11.4-8.6,15.63-16.63l-.42-.57c-4,7.38-13.76,14.76-15.67,16.16l-1.13-.94c.09,0,11.24-8.3,15.67-16.7l-.42-.58c-4.4,8.2-16,16.4-16,16.4l-1.25-1.12-.62-.78.58.7c-.16.16,11.23-8.18,15.71-16.68l-.42-.57c-4.37,8.15-15.86,16.3-16,16.39l-.05-.06c-.77.64-2.36,1.69-3.4,2.37a2.49,2.49,0,0,0-1.08,1.43c-.64,2.34-4.43,4.51-5.46,5.07a2.32,2.32,0,0,0-.46.31c-3.92,3.4-30.09,15.38-39.36,19.56a2.59,2.59,0,0,0-.85,4.1h0a2.59,2.59,0,0,0,3.23.5C358.14,246.55,383,232,389,228.76a2,2,0,0,1,.36-.16c1-.36,5.54-1.87,8.91-1a2.59,2.59,0,0,0,1.89-.24c1.46-.8,4.1-2.33,4.76-3.2h0c-.16.16,11.23-8.17,15.71-16.67Z"/><path class="cls-1" d="M73.52,206.88c-4.4,8.2-16,16.4-16,16.4l.18.23-.23-.24-1.2-1v0c1-.73,11.4-8.6,15.63-16.63l-.42-.57c-4,7.38-13.76,14.76-15.67,16.16l-1.13-.94c.09,0,11.24-8.3,15.67-16.7l-.42-.58c-4.4,8.2-16,16.4-16,16.4l-1.25-1.12-.63-.78.59.7c-.16.16,11.23-8.18,15.71-16.68l-.42-.57c-4.38,8.15-15.87,16.3-16,16.39l-.05-.06c-.77.64-2.36,1.69-3.4,2.37a2.55,2.55,0,0,0-1.09,1.43c-.63,2.34-4.42,4.51-5.45,5.07a2.06,2.06,0,0,0-.46.31c-3.92,3.4-30.09,15.38-39.36,19.56a2.59,2.59,0,0,0-.85,4.1h0a2.58,2.58,0,0,0,3.22.5c7-4.06,31.84-18.57,37.82-21.85a2.43,2.43,0,0,1,.37-.16c1-.36,5.53-1.87,8.9-1a2.62,2.62,0,0,0,1.9-.24c1.46-.8,4.1-2.33,4.76-3.2h0c-.16.16,11.23-8.17,15.71-16.67Z"/><path class="cls-1" d="M993.61,106.88c-4.4,8.2-16,16.4-16,16.4l.18.23-.23-.24-1.2-1v0c1-.73,11.4-8.6,15.63-16.63l-.42-.57c-4,7.38-13.76,14.76-15.67,16.16l-1.13-.94c.09,0,11.24-8.3,15.67-16.7L990,103c-4.4,8.2-16,16.4-16,16.4l-1.25-1.12-.63-.78.59.7c-.16.16,11.23-8.18,15.71-16.68l-.42-.57c-4.38,8.15-15.87,16.3-16,16.39l0-.06c-.77.64-2.36,1.69-3.4,2.37a2.55,2.55,0,0,0-1.09,1.43c-.63,2.34-4.42,4.51-5.45,5.07a2.06,2.06,0,0,0-.46.31c-3.92,3.4-30.1,15.38-39.36,19.56a2.59,2.59,0,0,0-.85,4.1h0a2.58,2.58,0,0,0,3.22.5c7-4.06,31.84-18.57,37.82-21.85a2.43,2.43,0,0,1,.37-.16c1-.36,5.53-1.87,8.9-1a2.59,2.59,0,0,0,1.89-.24c1.47-.8,4.11-2.33,4.77-3.2h0c-.16.16,11.23-8.17,15.71-16.67Z"/><path class="cls-1" d="M574.4,106.88c4.4,8.2,16,16.4,16,16.4l-.19.23.23-.24,1.2-1v0c-1-.73-11.4-8.6-15.63-16.63l.42-.57c4,7.38,13.76,14.76,15.68,16.16l1.12-.94c-.08,0-11.23-8.3-15.67-16.7L578,103c4.4,8.2,16,16.4,16,16.4l1.24-1.12.63-.78-.58.7c.16.16-11.23-8.18-15.71-16.68l.42-.57c4.37,8.15,15.86,16.3,16,16.39l0-.06c.77.64,2.37,1.69,3.41,2.37a2.49,2.49,0,0,1,1.08,1.43c.64,2.34,4.43,4.51,5.46,5.07a2.26,2.26,0,0,1,.45.31c3.93,3.4,30.1,15.38,39.36,19.56a2.6,2.6,0,0,1,.86,4.1h0a2.59,2.59,0,0,1-3.23.5c-7-4.06-31.84-18.57-37.82-21.85a2.83,2.83,0,0,0-.36-.16c-1-.36-5.54-1.87-8.91-1a2.59,2.59,0,0,1-1.89-.24c-1.47-.8-4.11-2.33-4.76-3.2h0c.16.16-11.23-8.17-15.71-16.67Z"/><path class="cls-1" d="M300.2,106.88c-4.4,8.2-16,16.4-16,16.4l.19.23-.24-.24-1.2-1v0c1-.73,11.39-8.6,15.63-16.63l-.43-.57c-4,7.38-13.75,14.76-15.67,16.16l-1.13-.94c.09,0,11.24-8.3,15.67-16.7l-.42-.58c-4.4,8.2-16,16.4-16,16.4l-1.25-1.12-.62-.78.58.7c-.16.16,11.23-8.18,15.71-16.68l-.42-.57c-4.37,8.15-15.86,16.3-16,16.39l-.06-.06c-.77.64-2.36,1.69-3.4,2.37a2.49,2.49,0,0,0-1.08,1.43c-.64,2.34-4.43,4.51-5.46,5.07a2.26,2.26,0,0,0-.45.31c-3.93,3.4-30.1,15.38-39.36,19.56a2.59,2.59,0,0,0-.86,4.1h0a2.59,2.59,0,0,0,3.23.5c7-4.06,31.84-18.57,37.82-21.85a2,2,0,0,1,.36-.16c1-.36,5.54-1.87,8.91-1a2.59,2.59,0,0,0,1.89-.24c1.47-.8,4.1-2.33,4.76-3.2h0c-.16.16,11.23-8.17,15.71-16.67Z"/><path class="cls-1" d="M1131.94,6.88c-4.4,8.2-16,16.4-16,16.4l.19.23-.24-.24-1.2-1v0c1-.73,11.4-8.6,15.63-16.63l-.42-.57c-4,7.38-13.76,14.76-15.67,16.16l-1.13-.94c.09,0,11.24-8.3,15.67-16.7l-.42-.58c-4.4,8.2-16,16.4-16,16.4l-1.25-1.12-.62-.78.58.7c-.16.16,11.23-8.18,15.71-16.68l-.42-.57c-4.37,8.15-15.86,16.3-16,16.39l0-.06c-.77.64-2.36,1.69-3.4,2.37a2.49,2.49,0,0,0-1.08,1.43c-.64,2.34-4.43,4.51-5.46,5.07a2.32,2.32,0,0,0-.46.31c-3.92,3.4-30.09,15.38-39.36,19.56a2.59,2.59,0,0,0-.85,4.1h0a2.59,2.59,0,0,0,3.23.5c7-4.06,31.83-18.57,37.82-21.85a2,2,0,0,1,.36-.16c1-.36,5.54-1.87,8.91-1a2.59,2.59,0,0,0,1.89-.24c1.47-.8,4.1-2.33,4.76-3.2h0c-.16.16,11.23-8.17,15.71-16.67Z"/><path class="cls-1" d="M793.59,6.88c-4.4,8.2-16,16.4-16,16.4l.19.23-.24-.24-1.2-1v0c1-.73,11.4-8.6,15.63-16.63l-.42-.57c-4,7.38-13.76,14.76-15.67,16.16l-1.13-.94c.09,0,11.24-8.3,15.67-16.7L790,3c-4.4,8.2-16,16.4-16,16.4l-1.25-1.12-.62-.78.58.7c-.16.16,11.23-8.18,15.71-16.68L788,.94c-4.38,8.15-15.86,16.3-16,16.39l0-.06c-.77.64-2.36,1.69-3.4,2.37a2.49,2.49,0,0,0-1.08,1.43c-.64,2.34-4.43,4.51-5.46,5.07a2.06,2.06,0,0,0-.46.31c-3.92,3.4-30.09,15.38-39.36,19.56a2.59,2.59,0,0,0-.85,4.1h0a2.59,2.59,0,0,0,3.23.5c7-4.06,31.83-18.57,37.81-21.85a2.43,2.43,0,0,1,.37-.16c1-.36,5.54-1.87,8.91-1a2.6,2.6,0,0,0,1.89-.24c1.46-.8,4.1-2.33,4.76-3.2h0c-.16.16,11.23-8.17,15.71-16.67Z"/><path class="cls-1" d="M446.89,6.88c-4.4,8.2-16,16.4-16,16.4l.18.23-.23-.24-1.2-1v0c1-.73,11.4-8.6,15.63-16.63l-.42-.57c-4,7.38-13.76,14.76-15.67,16.16L428,20.27c.08,0,11.23-8.3,15.67-16.7L443.29,3c-4.4,8.2-16,16.4-16,16.4L426,18.27l-.63-.78.59.7c-.16.16,11.23-8.18,15.71-16.68l-.42-.57c-4.38,8.15-15.87,16.3-16,16.39l-.05-.06c-.77.64-2.36,1.69-3.41,2.37a2.54,2.54,0,0,0-1.08,1.43c-.63,2.34-4.42,4.51-5.45,5.07a2.06,2.06,0,0,0-.46.31c-3.93,3.4-30.1,15.38-39.36,19.56a2.59,2.59,0,0,0-.85,4.1h0a2.58,2.58,0,0,0,3.22.5c7-4.06,31.84-18.57,37.82-21.85a2.83,2.83,0,0,1,.36-.16c1-.36,5.54-1.87,8.91-1a2.59,2.59,0,0,0,1.89-.24c1.47-.8,4.11-2.33,4.76-3.2h0c-.16.16,11.23-8.17,15.71-16.67Z"/><path class="cls-1" d="M27.68,6.88c4.4,8.2,16,16.4,16,16.4l-.19.23.23-.24,1.2-1v0c-1-.73-11.4-8.6-15.63-16.63l.42-.57c4,7.38,13.76,14.76,15.68,16.16l1.12-.94c-.08,0-11.23-8.3-15.67-16.7L31.28,3c4.4,8.2,16,16.4,16,16.4l1.24-1.12.63-.78-.58.7c.16.16-11.23-8.18-15.72-16.68l.43-.57c4.37,8.15,15.86,16.3,16,16.39l0-.06c.77.64,2.37,1.69,3.41,2.37a2.49,2.49,0,0,1,1.08,1.43c.64,2.34,4.43,4.51,5.46,5.07a2.26,2.26,0,0,1,.45.31c3.93,3.4,30.1,15.38,39.36,19.56a2.6,2.6,0,0,1,.86,4.1h0a2.59,2.59,0,0,1-3.23.5c-7-4.06-31.84-18.57-37.82-21.85a2.83,2.83,0,0,0-.36-.16c-1-.36-5.54-1.87-8.91-1a2.59,2.59,0,0,1-1.89-.24c-1.47-.8-4.11-2.33-4.76-3.2h0c.16.16-11.23-8.17-15.72-16.67Z"/></g></g></svg>