<svg xmlns="http://www.w3.org/2000/svg" viewBox="0 0 999.93 563.96"><defs><style>.cls-1{fill:none;stroke:#cdefff;stroke-miterlimit:10;}</style></defs><title>forks8</title><g id="Layer_2" data-name="Layer 2"><g id="Layer_1-2" data-name="Layer 1"><path class="cls-1" d="M855.28,530.39c-3.3,6.15-12,12.3-12,12.3l.14.17-.18-.17-.9-.75v0c.76-.54,8.54-6.45,11.72-12.47l-.32-.43c-3,5.54-10.32,11.07-11.75,12.12l-.85-.7c.07,0,8.43-6.23,11.75-12.53l-.31-.43c-3.3,6.15-12,12.3-12,12.3l-.94-.84-.47-.59.44.53c-.12.11,8.42-6.14,11.78-12.51l-.31-.43c-3.28,6.11-11.9,12.22-12,12.29l0,0c-.58.48-1.77,1.27-2.55,1.77a1.87,1.87,0,0,0-.81,1.08c-.48,1.75-3.32,3.38-4.1,3.8a1.85,1.85,0,0,0-.34.23c-2.94,2.55-22.57,11.53-29.52,14.67a2,2,0,0,0-.64,3.08h0a1.94,1.94,0,0,0,2.42.37c5.22-3,23.88-13.92,28.37-16.38a1.69,1.69,0,0,1,.27-.13c.74-.26,4.15-1.4,6.68-.77a1.94,1.94,0,0,0,1.42-.17,16.12,16.12,0,0,0,3.57-2.41h0c-.12.12,8.42-6.13,11.78-12.5Z"/><path class="cls-1" d="M979,530.39c-3.3,6.15-12,12.3-12,12.3l.14.17-.18-.17-.9-.75v0c.76-.54,8.54-6.45,11.72-12.47l-.32-.43c-3,5.54-10.32,11.07-11.75,12.12l-.85-.7c.07,0,8.43-6.23,11.75-12.53l-.31-.43c-3.3,6.15-12,12.3-12,12.3l-.94-.84-.47-.59.44.53c-.12.11,8.42-6.14,11.78-12.51l-.31-.43c-3.28,6.11-11.9,12.22-12,12.29l0,0c-.58.48-1.77,1.27-2.55,1.77a1.87,1.87,0,0,0-.81,1.08c-.48,1.75-3.32,3.38-4.1,3.8a1.85,1.85,0,0,0-.34.23c-2.94,2.55-22.57,11.53-29.52,14.67a2,2,0,0,0-.64,3.08h0a1.94,1.94,0,0,0,2.42.37c5.22-3,23.88-13.92,28.37-16.38a1.69,1.69,0,0,1,.27-.13c.74-.26,4.15-1.4,6.68-.77a1.94,1.94,0,0,0,1.42-.17,16.12,16.12,0,0,0,3.57-2.41h0c-.12.12,8.42-6.13,11.78-12.5Z"/><path class="cls-1" d="M725.26,530.39c-3.3,6.15-12,12.3-12,12.3l.14.17-.17-.17-.9-.75v0c.76-.54,8.55-6.45,11.72-12.47l-.31-.43c-3,5.54-10.32,11.07-11.76,12.12l-.84-.7c.06,0,8.43-6.23,11.75-12.53l-.32-.43c-3.3,6.15-12,12.3-12,12.3l-.93-.84-.47-.59.44.53c-.12.11,8.42-6.14,11.78-12.51l-.32-.43c-3.28,6.11-11.89,12.22-12,12.29l0,0c-.58.48-1.77,1.27-2.55,1.77a1.93,1.93,0,0,0-.82,1.08c-.47,1.75-3.32,3.38-4.09,3.8a1.85,1.85,0,0,0-.34.23c-2.94,2.55-22.57,11.53-29.52,14.67a2,2,0,0,0-.64,3.08h0a1.94,1.94,0,0,0,2.42.37c5.22-3,23.88-13.92,28.36-16.38l.28-.13c.74-.26,4.15-1.4,6.68-.77a2,2,0,0,0,1.42-.17,16.36,16.36,0,0,0,3.57-2.41h0c-.12.12,8.42-6.13,11.78-12.5Z"/><path class="cls-1" d="M595.25,530.39c-3.3,6.15-12,12.3-12,12.3l.14.17-.17-.17-.9-.75v0c.76-.54,8.55-6.45,11.72-12.47l-.31-.43c-3,5.54-10.32,11.07-11.76,12.12l-.84-.7c.06,0,8.42-6.23,11.75-12.53l-.32-.43c-3.3,6.15-12,12.3-12,12.3l-.93-.84-.47-.59.43.53c-.12.11,8.43-6.14,11.79-12.51l-.32-.43c-3.28,6.11-11.9,12.22-12,12.29l0,0c-.58.48-1.78,1.27-2.56,1.77a1.87,1.87,0,0,0-.81,1.08c-.48,1.75-3.32,3.38-4.09,3.8a1.56,1.56,0,0,0-.34.23c-3,2.55-22.58,11.53-29.52,14.67a2,2,0,0,0-.64,3.08h0a1.93,1.93,0,0,0,2.42.37c5.21-3,23.87-13.92,28.36-16.38l.27-.13c.75-.26,4.16-1.4,6.68-.77a1.94,1.94,0,0,0,1.42-.17,16.12,16.12,0,0,0,3.57-2.41h0c-.12.12,8.43-6.13,11.79-12.5Z"/><path class="cls-1" d="M465.24,530.39c-3.3,6.15-12,12.3-12,12.3l.14.17-.18-.17-.9-.75v0c.77-.54,8.55-6.45,11.73-12.47l-.32-.43c-3,5.54-10.32,11.07-11.75,12.12l-.85-.7c.07,0,8.43-6.23,11.75-12.53l-.31-.43c-3.3,6.15-12,12.3-12,12.3l-.94-.84-.47-.59.44.53c-.12.11,8.42-6.14,11.78-12.51l-.31-.43c-3.28,6.11-11.9,12.22-12,12.29l0,0c-.58.48-1.77,1.27-2.55,1.77a1.87,1.87,0,0,0-.81,1.08c-.48,1.75-3.32,3.38-4.1,3.8a1.85,1.85,0,0,0-.34.23c-2.94,2.55-22.57,11.53-29.52,14.67a2,2,0,0,0-.64,3.08h0a1.94,1.94,0,0,0,2.42.37c5.22-3,23.88-13.92,28.37-16.38a1.69,1.69,0,0,1,.27-.13c.74-.26,4.15-1.4,6.68-.77a1.94,1.94,0,0,0,1.42-.17,16.12,16.12,0,0,0,3.57-2.41h0c-.12.12,8.42-6.13,11.78-12.5Z"/><path class="cls-1" d="M335.22,530.39c-3.3,6.15-12,12.3-12,12.3l.14.17-.17-.17-.9-.75v0c.76-.54,8.55-6.45,11.72-12.47l-.31-.43c-3,5.54-10.32,11.07-11.76,12.12l-.84-.7c.06,0,8.43-6.23,11.75-12.53l-.32-.43c-3.3,6.15-12,12.3-12,12.3l-.93-.84-.47-.59.44.53c-.12.11,8.42-6.14,11.78-12.51l-.32-.43c-3.28,6.11-11.89,12.22-12,12.29l0,0c-.58.48-1.77,1.27-2.55,1.77a1.93,1.93,0,0,0-.82,1.08c-.47,1.75-3.32,3.38-4.09,3.8a1.56,1.56,0,0,0-.34.23c-2.94,2.55-22.57,11.53-29.52,14.67a2,2,0,0,0-.64,3.08h0a1.94,1.94,0,0,0,2.42.37c5.22-3,23.88-13.92,28.36-16.38l.28-.13c.74-.26,4.15-1.4,6.68-.77a1.92,1.92,0,0,0,1.41-.17,16.21,16.21,0,0,0,3.58-2.41h0c-.12.12,8.42-6.13,11.78-12.5Z"/><path class="cls-1" d="M205.21,530.39c-3.3,6.15-12,12.3-12,12.3l.14.17-.18-.17-.9-.75v0c.76-.54,8.55-6.45,11.72-12.47l-.32-.43c-3,5.54-10.31,11.07-11.75,12.12l-.85-.7c.07,0,8.43-6.23,11.76-12.53l-.32-.43c-3.3,6.15-12,12.3-12,12.3l-.94-.84-.46-.59.43.53c-.12.11,8.42-6.14,11.79-12.51l-.32-.43c-3.28,6.11-11.9,12.22-12,12.29l0,0c-.57.48-1.77,1.27-2.55,1.77a1.87,1.87,0,0,0-.81,1.08c-.48,1.75-3.32,3.38-4.09,3.8a1.36,1.36,0,0,0-.34.23c-3,2.55-22.58,11.53-29.52,14.67a2,2,0,0,0-.64,3.08h0a1.93,1.93,0,0,0,2.42.37c5.21-3,23.87-13.92,28.36-16.38l.27-.13c.75-.26,4.16-1.4,6.68-.77a1.94,1.94,0,0,0,1.42-.17,16.12,16.12,0,0,0,3.57-2.41h0c-.12.12,8.42-6.13,11.79-12.5Z"/><path class="cls-1" d="M75.2,530.39c-3.3,6.15-12,12.3-12,12.3l.14.17-.18-.17-.9-.75v0c.77-.54,8.55-6.45,11.73-12.47l-.32-.43c-3,5.54-10.32,11.07-11.75,12.12l-.85-.7c.07,0,8.43-6.23,11.75-12.53l-.31-.43c-3.3,6.15-12,12.3-12,12.3l-.94-.84-.47-.59.44.53c-.12.11,8.42-6.14,11.78-12.51l-.31-.43c-3.28,6.11-11.9,12.22-12,12.29l0,0c-.58.48-1.77,1.27-2.55,1.77A1.87,1.87,0,0,0,55.6,541c-.48,1.75-3.32,3.38-4.1,3.8a1.85,1.85,0,0,0-.34.23c-2.94,2.55-22.57,11.53-29.52,14.67a2,2,0,0,0-.64,3.08h0a1.94,1.94,0,0,0,2.42.37c5.22-3,23.88-13.92,28.37-16.38a1.69,1.69,0,0,1,.27-.13c.74-.26,4.15-1.4,6.68-.77a2,2,0,0,0,1.42-.17,16.12,16.12,0,0,0,3.57-2.41h0c-.12.12,8.42-6.13,11.78-12.5Z"/><path class="cls-1" d="M835.28,455.39c-3.3,6.15-12,12.3-12,12.3l.14.17-.18-.17-.9-.75v0c.76-.54,8.54-6.45,11.72-12.47l-.32-.43c-3,5.54-10.32,11.07-11.75,12.12l-.85-.7c.07,0,8.43-6.23,11.75-12.53l-.31-.43c-3.3,6.15-12,12.3-12,12.3l-.94-.84-.47-.59.44.53c-.12.11,8.42-6.14,11.78-12.51l-.31-.43c-3.28,6.11-11.9,12.22-12,12.29l0,0c-.58.48-1.77,1.27-2.55,1.77a1.87,1.87,0,0,0-.81,1.08c-.48,1.75-3.32,3.38-4.1,3.8a1.85,1.85,0,0,0-.34.23c-2.94,2.55-22.57,11.53-29.52,14.67a2,2,0,0,0-.64,3.08h0a1.94,1.94,0,0,0,2.42.37c5.22-3,23.88-13.92,28.37-16.38a1.69,1.69,0,0,1,.27-.13c.74-.26,4.15-1.4,6.68-.77a1.94,1.94,0,0,0,1.42-.17,16.12,16.12,0,0,0,3.57-2.41h0c-.12.12,8.42-6.13,11.78-12.5Z"/><path class="cls-1" d="M959,455.39c-3.3,6.15-12,12.3-12,12.3l.14.17-.18-.17-.9-.75v0c.76-.54,8.54-6.45,11.72-12.47l-.32-.43c-3,5.54-10.32,11.07-11.75,12.12l-.85-.7c.07,0,8.43-6.23,11.75-12.53l-.31-.43c-3.3,6.15-12,12.3-12,12.3l-.94-.84-.47-.59.44.53c-.12.11,8.42-6.14,11.78-12.51l-.31-.43c-3.28,6.11-11.9,12.22-12,12.29l0,0c-.58.48-1.77,1.27-2.55,1.77a1.87,1.87,0,0,0-.81,1.08c-.48,1.75-3.32,3.38-4.1,3.8a1.85,1.85,0,0,0-.34.23c-2.94,2.55-22.57,11.53-29.52,14.67a2,2,0,0,0-.64,3.08h0a1.94,1.94,0,0,0,2.42.37c5.22-3,23.88-13.92,28.37-16.38a1.69,1.69,0,0,1,.27-.13c.74-.26,4.15-1.4,6.68-.77a1.94,1.94,0,0,0,1.42-.17,16.12,16.12,0,0,0,3.57-2.41h0c-.12.12,8.42-6.13,11.78-12.5Z"/><path class="cls-1" d="M705.26,455.39c-3.3,6.15-12,12.3-12,12.3l.14.17-.17-.17-.9-.75v0c.76-.54,8.55-6.45,11.72-12.47l-.31-.43c-3,5.54-10.32,11.07-11.76,12.12l-.84-.7c.06,0,8.43-6.23,11.75-12.53l-.32-.43c-3.3,6.15-12,12.3-12,12.3l-.93-.84-.47-.59.44.53c-.12.11,8.42-6.14,11.78-12.51l-.32-.43c-3.28,6.11-11.89,12.22-12,12.29l0,0c-.58.48-1.77,1.27-2.55,1.77a1.93,1.93,0,0,0-.82,1.08c-.47,1.75-3.32,3.38-4.09,3.8a1.85,1.85,0,0,0-.34.23c-2.94,2.55-22.57,11.53-29.52,14.67a2,2,0,0,0-.64,3.08h0a1.94,1.94,0,0,0,2.42.37c5.22-3,23.88-13.92,28.36-16.38l.28-.13c.74-.26,4.15-1.4,6.68-.77a2,2,0,0,0,1.42-.17,16.36,16.36,0,0,0,3.57-2.41h0c-.12.12,8.42-6.13,11.78-12.5Z"/><path class="cls-1" d="M575.25,455.39c-3.3,6.15-12,12.3-12,12.3l.14.17-.17-.17-.9-.75v0c.76-.54,8.55-6.45,11.72-12.47l-.31-.43c-3,5.54-10.32,11.07-11.76,12.12l-.84-.7c.06,0,8.42-6.23,11.75-12.53l-.32-.43c-3.3,6.15-12,12.3-12,12.3l-.93-.84-.47-.59.43.53c-.12.11,8.43-6.14,11.79-12.51l-.32-.43c-3.28,6.11-11.9,12.22-12,12.29l0,0c-.58.48-1.78,1.27-2.56,1.77a1.87,1.87,0,0,0-.81,1.08c-.48,1.75-3.32,3.38-4.09,3.8a1.56,1.56,0,0,0-.34.23c-3,2.55-22.58,11.53-29.52,14.67a2,2,0,0,0-.64,3.08h0a1.93,1.93,0,0,0,2.42.37c5.21-3,23.87-13.92,28.36-16.38l.27-.13c.75-.26,4.16-1.4,6.68-.77a1.94,1.94,0,0,0,1.42-.17,16.12,16.12,0,0,0,3.57-2.41h0c-.12.12,8.43-6.13,11.79-12.5Z"/><path class="cls-1" d="M445.24,455.39c-3.3,6.15-12,12.3-12,12.3l.14.17-.18-.17-.9-.75v0c.77-.54,8.55-6.45,11.73-12.47l-.32-.43c-3,5.54-10.32,11.07-11.75,12.12l-.85-.7c.07,0,8.43-6.23,11.75-12.53l-.31-.43c-3.3,6.15-12,12.3-12,12.3l-.94-.84-.47-.59.44.53c-.12.11,8.42-6.14,11.78-12.51l-.31-.43c-3.28,6.11-11.9,12.22-12,12.29l0,0c-.58.48-1.77,1.27-2.55,1.77a1.87,1.87,0,0,0-.81,1.08c-.48,1.75-3.32,3.38-4.1,3.8a1.85,1.85,0,0,0-.34.23c-2.94,2.55-22.57,11.53-29.52,14.67a2,2,0,0,0-.64,3.08h0a1.94,1.94,0,0,0,2.42.37c5.22-3,23.88-13.92,28.37-16.38a1.69,1.69,0,0,1,.27-.13c.74-.26,4.15-1.4,6.68-.77a1.94,1.94,0,0,0,1.42-.17,16.12,16.12,0,0,0,3.57-2.41h0c-.12.12,8.42-6.13,11.78-12.5Z"/><path class="cls-1" d="M315.22,455.39c-3.3,6.15-12,12.3-12,12.3l.14.17-.17-.17-.9-.75v0c.76-.54,8.55-6.45,11.72-12.47l-.31-.43c-3,5.54-10.32,11.07-11.76,12.12l-.84-.7c.06,0,8.43-6.23,11.75-12.53l-.32-.43c-3.3,6.15-12,12.3-12,12.3l-.93-.84-.47-.59.44.53c-.12.11,8.42-6.14,11.78-12.51l-.32-.43c-3.28,6.11-11.89,12.22-12,12.29l0,0c-.58.48-1.77,1.27-2.55,1.77a1.93,1.93,0,0,0-.82,1.08c-.47,1.75-3.32,3.38-4.09,3.8a1.56,1.56,0,0,0-.34.23c-2.94,2.55-22.57,11.53-29.52,14.67a2,2,0,0,0-.64,3.08h0a1.94,1.94,0,0,0,2.42.37c5.22-3,23.88-13.92,28.36-16.38l.28-.13c.74-.26,4.15-1.4,6.68-.77a1.92,1.92,0,0,0,1.41-.17,16.21,16.21,0,0,0,3.58-2.41h0c-.12.12,8.42-6.13,11.78-12.5Z"/><path class="cls-1" d="M130.83,455.39c3.3,6.15,12,12.3,12,12.3l-.14.17.18-.17.9-.75v0c-.76-.54-8.55-6.45-11.72-12.47l.32-.43c3,5.54,10.31,11.07,11.75,12.12l.85-.7c-.07,0-8.43-6.23-11.76-12.53l.32-.43c3.3,6.15,12,12.3,12,12.3l.94-.84.46-.59-.43.53c.12.11-8.42-6.14-11.79-12.51l.32-.43c3.28,6.11,11.9,12.22,12,12.29l0,0c.57.48,1.77,1.27,2.55,1.77a1.87,1.87,0,0,1,.81,1.08c.48,1.75,3.32,3.38,4.09,3.8a1.36,1.36,0,0,1,.34.23c2.95,2.55,22.58,11.53,29.52,14.67a2,2,0,0,1,.64,3.08h0a1.93,1.93,0,0,1-2.42.37c-5.21-3-23.87-13.92-28.36-16.38l-.27-.13c-.75-.26-4.15-1.4-6.68-.77a1.94,1.94,0,0,1-1.42-.17,16.12,16.12,0,0,1-3.57-2.41h0c.12.12-8.42-6.13-11.79-12.5Z"/><path class="cls-1" d="M55.2,455.39c-3.3,6.15-12,12.3-12,12.3l.14.17-.18-.17-.9-.75v0c.77-.54,8.55-6.45,11.73-12.47l-.32-.43c-3,5.54-10.32,11.07-11.75,12.12l-.85-.7c.07,0,8.43-6.23,11.75-12.53l-.31-.43c-3.3,6.15-12,12.3-12,12.3l-.94-.84-.47-.59.44.53c-.12.11,8.42-6.14,11.78-12.51l-.31-.43c-3.28,6.11-11.9,12.22-12,12.29l0,0c-.58.48-1.77,1.27-2.55,1.77A1.87,1.87,0,0,0,35.6,466c-.48,1.75-3.32,3.38-4.1,3.8a1.85,1.85,0,0,0-.34.23c-2.94,2.55-22.57,11.53-29.52,14.67A2,2,0,0,0,1,487.82H1a1.94,1.94,0,0,0,2.42.37c5.22-3,23.88-13.92,28.37-16.38a1.69,1.69,0,0,1,.27-.13c.74-.26,4.15-1.4,6.68-.77a2,2,0,0,0,1.42-.17,16.12,16.12,0,0,0,3.57-2.41h0c-.12.12,8.42-6.13,11.78-12.5Z"/><path class="cls-1" d="M875.28,380.39c-3.3,6.15-12,12.3-12,12.3l.14.17-.18-.17-.9-.75v0c.76-.54,8.54-6.45,11.72-12.47l-.32-.43c-3,5.54-10.32,11.07-11.75,12.12l-.85-.7c.07,0,8.43-6.23,11.75-12.53l-.31-.43c-3.3,6.15-12,12.3-12,12.3l-.94-.84-.47-.59.44.53c-.12.11,8.42-6.14,11.78-12.51l-.31-.43c-3.28,6.11-11.9,12.22-12,12.29l0,0c-.58.48-1.77,1.27-2.55,1.77a1.87,1.87,0,0,0-.81,1.08c-.48,1.75-3.32,3.38-4.1,3.8a1.85,1.85,0,0,0-.34.23c-2.94,2.55-22.57,11.53-29.52,14.67a2,2,0,0,0-.64,3.08h0a1.94,1.94,0,0,0,2.42.37c5.22-3,23.88-13.92,28.37-16.38a1.69,1.69,0,0,1,.27-.13c.74-.26,4.15-1.4,6.68-.77a1.94,1.94,0,0,0,1.42-.17,16.12,16.12,0,0,0,3.57-2.41h0c-.12.12,8.42-6.13,11.78-12.5Z"/><path class="cls-1" d="M944.65,380.39c3.3,6.15,12,12.3,12,12.3l-.14.17.17-.17.9-.75v0c-.76-.54-8.55-6.45-11.72-12.47l.31-.43c3,5.54,10.32,11.07,11.76,12.12l.84-.7c-.06,0-8.42-6.23-11.75-12.53l.32-.43c3.3,6.15,12,12.3,12,12.3l.93-.84.47-.59-.44.53c.12.11-8.42-6.14-11.78-12.51l.32-.43c3.28,6.11,11.89,12.22,12,12.29l0,0c.58.48,1.77,1.27,2.56,1.77a1.87,1.87,0,0,1,.81,1.08c.47,1.75,3.32,3.38,4.09,3.8a1.56,1.56,0,0,1,.34.23c3,2.55,22.57,11.53,29.52,14.67a2,2,0,0,1,.64,3.08h0a1.93,1.93,0,0,1-2.42.37c-5.22-3-23.88-13.92-28.36-16.38l-.27-.13c-.75-.26-4.16-1.4-6.69-.77a1.92,1.92,0,0,1-1.41-.17,16.12,16.12,0,0,1-3.57-2.41h0c.12.12-8.42-6.13-11.78-12.5Z"/><path class="cls-1" d="M745.26,380.39c-3.3,6.15-12,12.3-12,12.3l.14.17-.17-.17-.9-.75v0c.76-.54,8.55-6.45,11.72-12.47l-.31-.43c-3,5.54-10.32,11.07-11.76,12.12l-.84-.7c.06,0,8.43-6.23,11.75-12.53l-.32-.43c-3.3,6.15-12,12.3-12,12.3l-.93-.84-.47-.59.44.53c-.12.11,8.42-6.14,11.78-12.51l-.32-.43c-3.28,6.11-11.89,12.22-12,12.29l0,0c-.58.48-1.77,1.27-2.55,1.77a1.93,1.93,0,0,0-.82,1.08c-.47,1.75-3.32,3.38-4.09,3.8a1.85,1.85,0,0,0-.34.23c-2.94,2.55-22.57,11.53-29.52,14.67a2,2,0,0,0-.64,3.08h0a1.94,1.94,0,0,0,2.42.37c5.22-3,23.88-13.92,28.36-16.38l.28-.13c.74-.26,4.15-1.4,6.68-.77a2,2,0,0,0,1.42-.17,16.36,16.36,0,0,0,3.57-2.41h0c-.12.12,8.42-6.13,11.78-12.5Z"/><path class="cls-1" d="M615.25,380.39c-3.3,6.15-12,12.3-12,12.3l.14.17-.17-.17-.9-.75v0c.76-.54,8.55-6.45,11.72-12.47l-.31-.43c-3,5.54-10.32,11.07-11.76,12.12l-.84-.7c.06,0,8.42-6.23,11.75-12.53l-.32-.43c-3.3,6.15-12,12.3-12,12.3l-.93-.84-.47-.59.43.53c-.12.11,8.43-6.14,11.79-12.51l-.32-.43c-3.28,6.11-11.9,12.22-12,12.29l0,0c-.58.48-1.78,1.27-2.56,1.77a1.87,1.87,0,0,0-.81,1.08c-.48,1.75-3.32,3.38-4.09,3.8a1.56,1.56,0,0,0-.34.23c-3,2.55-22.58,11.53-29.52,14.67a2,2,0,0,0-.64,3.08h0a1.93,1.93,0,0,0,2.42.37c5.21-3,23.87-13.92,28.36-16.38l.27-.13c.75-.26,4.16-1.4,6.68-.77a1.94,1.94,0,0,0,1.42-.17,16.12,16.12,0,0,0,3.57-2.41h0c-.12.12,8.43-6.13,11.79-12.5Z"/><path class="cls-1" d="M485.24,380.39c-3.3,6.15-12,12.3-12,12.3l.14.17-.18-.17-.9-.75v0c.77-.54,8.55-6.45,11.73-12.47l-.32-.43c-3,5.54-10.32,11.07-11.75,12.12l-.85-.7c.07,0,8.43-6.23,11.75-12.53l-.31-.43c-3.3,6.15-12,12.3-12,12.3l-.94-.84-.47-.59.44.53c-.12.11,8.42-6.14,11.78-12.51l-.31-.43c-3.28,6.11-11.9,12.22-12,12.29l0,0c-.58.48-1.77,1.27-2.55,1.77a1.87,1.87,0,0,0-.81,1.08c-.48,1.75-3.32,3.38-4.1,3.8a1.85,1.85,0,0,0-.34.23c-2.94,2.55-22.57,11.53-29.52,14.67a2,2,0,0,0-.64,3.08h0a1.94,1.94,0,0,0,2.42.37c5.22-3,23.88-13.92,28.37-16.38a1.69,1.69,0,0,1,.27-.13c.74-.26,4.15-1.4,6.68-.77a1.94,1.94,0,0,0,1.42-.17,16.12,16.12,0,0,0,3.57-2.41h0c-.12.12,8.42-6.13,11.78-12.5Z"/><path class="cls-1" d="M355.22,380.39c-3.3,6.15-12,12.3-12,12.3l.14.17-.17-.17-.9-.75v0c.76-.54,8.55-6.45,11.72-12.47l-.31-.43c-3,5.54-10.32,11.07-11.76,12.12l-.84-.7c.06,0,8.43-6.23,11.75-12.53l-.32-.43c-3.3,6.15-12,12.3-12,12.3l-.93-.84-.47-.59.44.53c-.12.11,8.42-6.14,11.78-12.51l-.32-.43c-3.28,6.11-11.89,12.22-12,12.29l0,0c-.58.48-1.77,1.27-2.55,1.77a1.93,1.93,0,0,0-.82,1.08c-.47,1.75-3.32,3.38-4.09,3.8a1.56,1.56,0,0,0-.34.23c-2.94,2.55-22.57,11.53-29.52,14.67a2,2,0,0,0-.64,3.08h0a1.94,1.94,0,0,0,2.42.37c5.22-3,23.88-13.92,28.36-16.38l.28-.13c.74-.26,4.15-1.4,6.68-.77a1.92,1.92,0,0,0,1.41-.17,16.21,16.21,0,0,0,3.58-2.41h0c-.12.12,8.42-6.13,11.78-12.5Z"/><path class="cls-1" d="M225.21,380.39c-3.3,6.15-12,12.3-12,12.3l.14.17-.18-.17-.9-.75v0c.76-.54,8.55-6.45,11.72-12.47l-.32-.43c-3,5.54-10.31,11.07-11.75,12.12l-.85-.7c.07,0,8.43-6.23,11.76-12.53l-.32-.43c-3.3,6.15-12,12.3-12,12.3l-.94-.84-.46-.59.43.53c-.12.11,8.42-6.14,11.79-12.51l-.32-.43c-3.28,6.11-11.9,12.22-12,12.29l0,0c-.57.48-1.77,1.27-2.55,1.77a1.87,1.87,0,0,0-.81,1.08c-.48,1.75-3.32,3.38-4.09,3.8a1.36,1.36,0,0,0-.34.23c-3,2.55-22.58,11.53-29.52,14.67a2,2,0,0,0-.64,3.08h0a1.93,1.93,0,0,0,2.42.37c5.21-3,23.87-13.92,28.36-16.38l.27-.13c.75-.26,4.16-1.4,6.68-.77a1.94,1.94,0,0,0,1.42-.17,16.12,16.12,0,0,0,3.57-2.41h0c-.12.12,8.42-6.13,11.79-12.5Z"/><path class="cls-1" d="M95.2,380.39c-3.3,6.15-12,12.3-12,12.3l.14.17-.18-.17-.9-.75v0c.77-.54,8.55-6.45,11.73-12.47l-.32-.43c-3,5.54-10.32,11.07-11.75,12.12l-.85-.7c.07,0,8.43-6.23,11.75-12.53l-.31-.43c-3.3,6.15-12,12.3-12,12.3l-.94-.84-.47-.59.44.53c-.12.11,8.42-6.14,11.78-12.51l-.31-.43c-3.28,6.11-11.9,12.22-12,12.29l0,0c-.58.48-1.77,1.27-2.55,1.77A1.87,1.87,0,0,0,75.6,391c-.48,1.75-3.32,3.38-4.1,3.8a1.85,1.85,0,0,0-.34.23c-2.94,2.55-22.57,11.53-29.52,14.67a2,2,0,0,0-.64,3.08h0a1.94,1.94,0,0,0,2.42.37c5.22-3,23.88-13.92,28.37-16.38a1.69,1.69,0,0,1,.27-.13c.74-.26,4.15-1.4,6.68-.77a2,2,0,0,0,1.42-.17,16.12,16.12,0,0,0,3.57-2.41h0c-.12.12,8.42-6.13,11.78-12.5Z"/><path class="cls-1" d="M855.28,305.39c-3.3,6.15-12,12.3-12,12.3l.14.17-.18-.17-.9-.75v0c.76-.54,8.54-6.45,11.72-12.47l-.32-.43c-3,5.54-10.32,11.07-11.75,12.12l-.85-.7c.07,0,8.43-6.23,11.75-12.53l-.31-.43c-3.3,6.15-12,12.3-12,12.3l-.94-.84-.47-.59.44.53c-.12.11,8.42-6.14,11.78-12.51l-.31-.43c-3.28,6.11-11.9,12.22-12,12.29l0,0c-.58.48-1.77,1.27-2.55,1.77a1.87,1.87,0,0,0-.81,1.08c-.48,1.75-3.32,3.38-4.1,3.8a1.85,1.85,0,0,0-.34.23c-2.94,2.55-22.57,11.53-29.52,14.67a2,2,0,0,0-.64,3.08h0a1.94,1.94,0,0,0,2.42.37c5.22-3,23.88-13.92,28.37-16.38a1.69,1.69,0,0,1,.27-.13c.74-.26,4.15-1.4,6.68-.77a1.94,1.94,0,0,0,1.42-.17,16.12,16.12,0,0,0,3.57-2.41h0c-.12.12,8.42-6.13,11.78-12.5Z"/><path class="cls-1" d="M979,305.39c-3.3,6.15-12,12.3-12,12.3l.14.17-.18-.17-.9-.75v0c.76-.54,8.54-6.45,11.72-12.47l-.32-.43c-3,5.54-10.32,11.07-11.75,12.12l-.85-.7c.07,0,8.43-6.23,11.75-12.53l-.31-.43c-3.3,6.15-12,12.3-12,12.3l-.94-.84-.47-.59.44.53c-.12.11,8.42-6.14,11.78-12.51l-.31-.43c-3.28,6.11-11.9,12.22-12,12.29l0,0c-.58.48-1.77,1.27-2.55,1.77a1.87,1.87,0,0,0-.81,1.08c-.48,1.75-3.32,3.38-4.1,3.8a1.85,1.85,0,0,0-.34.23c-2.94,2.55-22.57,11.53-29.52,14.67a2,2,0,0,0-.64,3.08h0a1.94,1.94,0,0,0,2.42.37c5.22-3,23.88-13.92,28.37-16.38a1.69,1.69,0,0,1,.27-.13c.74-.26,4.15-1.4,6.68-.77a1.94,1.94,0,0,0,1.42-.17,16.12,16.12,0,0,0,3.57-2.41h0c-.12.12,8.42-6.13,11.78-12.5Z"/><path class="cls-1" d="M670.88,305.39c3.3,6.15,12,12.3,12,12.3l-.14.17.18-.17.9-.75v0c-.77-.54-8.55-6.45-11.73-12.47l.32-.43c3,5.54,10.32,11.07,11.75,12.12l.85-.7c-.07,0-8.43-6.23-11.75-12.53l.31-.43c3.3,6.15,12,12.3,12,12.3l.94-.84.47-.59-.44.53c.12.11-8.42-6.14-11.78-12.51l.31-.43c3.28,6.11,11.9,12.22,12,12.29l0,0c.58.48,1.77,1.27,2.55,1.77a1.87,1.87,0,0,1,.81,1.08c.48,1.75,3.32,3.38,4.1,3.8a1.85,1.85,0,0,1,.34.23c2.94,2.55,22.57,11.53,29.52,14.67a2,2,0,0,1,.64,3.08h0a1.94,1.94,0,0,1-2.42.37c-5.22-3-23.88-13.92-28.37-16.38a1.69,1.69,0,0,0-.27-.13c-.74-.26-4.15-1.4-6.68-.77a2,2,0,0,1-1.42-.17,16.12,16.12,0,0,1-3.57-2.41h0c.12.12-8.42-6.13-11.78-12.5Z"/><path class="cls-1" d="M595.25,305.39c-3.3,6.15-12,12.3-12,12.3l.14.17-.17-.17-.9-.75v0c.76-.54,8.55-6.45,11.72-12.47l-.31-.43c-3,5.54-10.32,11.07-11.76,12.12l-.84-.7c.06,0,8.42-6.23,11.75-12.53l-.32-.43c-3.3,6.15-12,12.3-12,12.3l-.93-.84-.47-.59.43.53c-.12.11,8.43-6.14,11.79-12.51l-.32-.43c-3.28,6.11-11.9,12.22-12,12.29l0,0c-.58.48-1.78,1.27-2.56,1.77a1.87,1.87,0,0,0-.81,1.08c-.48,1.75-3.32,3.38-4.09,3.8a1.56,1.56,0,0,0-.34.23c-3,2.55-22.58,11.53-29.52,14.67a2,2,0,0,0-.64,3.08h0a1.93,1.93,0,0,0,2.42.37c5.21-3,23.87-13.92,28.36-16.38l.27-.13c.75-.26,4.16-1.4,6.68-.77a1.94,1.94,0,0,0,1.42-.17,16.12,16.12,0,0,0,3.57-2.41h0c-.12.12,8.43-6.13,11.79-12.5Z"/><path class="cls-1" d="M410.86,305.39c3.3,6.15,12,12.3,12,12.3l-.14.17.17-.17.9-.75v0c-.76-.54-8.55-6.45-11.72-12.47l.31-.43c3,5.54,10.32,11.07,11.76,12.12l.84-.7c-.06,0-8.42-6.23-11.75-12.53l.32-.43c3.3,6.15,12,12.3,12,12.3l.93-.84.47-.59-.44.53c.12.11-8.42-6.14-11.78-12.51l.32-.43c3.28,6.11,11.89,12.22,12,12.29l0,0c.58.48,1.77,1.27,2.56,1.77a1.87,1.87,0,0,1,.81,1.08c.47,1.75,3.32,3.38,4.09,3.8a1.56,1.56,0,0,1,.34.23c2.95,2.55,22.57,11.53,29.52,14.67a2,2,0,0,1,.64,3.08h0a1.93,1.93,0,0,1-2.42.37c-5.22-3-23.88-13.92-28.36-16.38l-.27-.13c-.75-.26-4.16-1.4-6.69-.77a1.92,1.92,0,0,1-1.41-.17,16.12,16.12,0,0,1-3.57-2.41h0c.12.12-8.42-6.13-11.78-12.5Z"/><path class="cls-1" d="M335.22,305.39c-3.3,6.15-12,12.3-12,12.3l.14.17-.17-.17-.9-.75v0c.76-.54,8.55-6.45,11.72-12.47l-.31-.43c-3,5.54-10.32,11.07-11.76,12.12l-.84-.7c.06,0,8.43-6.23,11.75-12.53l-.32-.43c-3.3,6.15-12,12.3-12,12.3l-.93-.84-.47-.59.44.53c-.12.11,8.42-6.14,11.78-12.51l-.32-.43c-3.28,6.11-11.89,12.22-12,12.29l0,0c-.58.48-1.77,1.27-2.55,1.77a1.93,1.93,0,0,0-.82,1.08c-.47,1.75-3.32,3.38-4.09,3.8a1.56,1.56,0,0,0-.34.23c-2.94,2.55-22.57,11.53-29.52,14.67a2,2,0,0,0-.64,3.08h0a1.94,1.94,0,0,0,2.42.37c5.22-3,23.88-13.92,28.36-16.38l.28-.13c.74-.26,4.15-1.4,6.68-.77a1.92,1.92,0,0,0,1.41-.17,16.21,16.21,0,0,0,3.58-2.41h0c-.12.12,8.42-6.13,11.78-12.5Z"/><path class="cls-1" d="M205.21,305.39c-3.3,6.15-12,12.3-12,12.3l.14.17-.18-.17-.9-.75v0c.76-.54,8.55-6.45,11.72-12.47l-.32-.43c-3,5.54-10.31,11.07-11.75,12.12l-.85-.7c.07,0,8.43-6.23,11.76-12.53l-.32-.43c-3.3,6.15-12,12.3-12,12.3l-.94-.84-.46-.59.43.53c-.12.11,8.42-6.14,11.79-12.51l-.32-.43c-3.28,6.11-11.9,12.22-12,12.29l0,0c-.57.48-1.77,1.27-2.55,1.77a1.87,1.87,0,0,0-.81,1.08c-.48,1.75-3.32,3.38-4.09,3.8a1.36,1.36,0,0,0-.34.23c-3,2.55-22.58,11.53-29.52,14.67a2,2,0,0,0-.64,3.08h0a1.93,1.93,0,0,0,2.42.37c5.21-3,23.87-13.92,28.36-16.38l.27-.13c.75-.26,4.16-1.4,6.68-.77a1.94,1.94,0,0,0,1.42-.17,16.12,16.12,0,0,0,3.57-2.41h0c-.12.12,8.42-6.13,11.79-12.5Z"/><path class="cls-1" d="M75.2,305.39c-3.3,6.15-12,12.3-12,12.3l.14.17-.18-.17-.9-.75v0c.77-.54,8.55-6.45,11.73-12.47l-.32-.43c-3,5.54-10.32,11.07-11.75,12.12l-.85-.7c.07,0,8.43-6.23,11.75-12.53l-.31-.43c-3.3,6.15-12,12.3-12,12.3l-.94-.84-.47-.59.44.53c-.12.11,8.42-6.14,11.78-12.51l-.31-.43c-3.28,6.11-11.9,12.22-12,12.29l0,0c-.58.48-1.77,1.27-2.55,1.77A1.87,1.87,0,0,0,55.6,316c-.48,1.75-3.32,3.38-4.1,3.8a1.85,1.85,0,0,0-.34.23c-2.94,2.55-22.57,11.53-29.52,14.67a2,2,0,0,0-.64,3.08h0a1.94,1.94,0,0,0,2.42.37c5.22-3,23.88-13.92,28.37-16.38a1.69,1.69,0,0,1,.27-.13c.74-.26,4.15-1.4,6.68-.77a2,2,0,0,0,1.42-.17,16.12,16.12,0,0,0,3.57-2.41h0c-.12.12,8.42-6.13,11.78-12.5Z"/><path class="cls-1" d="M875.28,230.39c-3.3,6.15-12,12.3-12,12.3l.14.17-.18-.17-.9-.75v0c.76-.54,8.54-6.45,11.72-12.47l-.32-.43c-3,5.54-10.32,11.07-11.75,12.12l-.85-.7c.07,0,8.43-6.23,11.75-12.53l-.31-.43c-3.3,6.15-12,12.3-12,12.3l-.94-.84-.47-.59.44.53c-.12.11,8.42-6.14,11.78-12.51l-.31-.43c-3.28,6.11-11.9,12.22-12,12.29l0,0c-.58.48-1.77,1.27-2.55,1.77a1.87,1.87,0,0,0-.81,1.08c-.48,1.75-3.32,3.38-4.1,3.8a1.85,1.85,0,0,0-.34.23c-2.94,2.55-22.57,11.53-29.52,14.67a2,2,0,0,0-.64,3.08h0a1.94,1.94,0,0,0,2.42.37c5.22-3,23.88-13.92,28.37-16.38a1.69,1.69,0,0,1,.27-.13c.74-.26,4.15-1.4,6.68-.77a1.94,1.94,0,0,0,1.42-.17,16.12,16.12,0,0,0,3.57-2.41h0c-.12.12,8.42-6.13,11.78-12.5Z"/><path class="cls-1" d="M999,230.39c-3.3,6.15-12,12.3-12,12.3l.14.17-.18-.17-.9-.75v0c.76-.54,8.54-6.45,11.72-12.47l-.32-.43c-3,5.54-10.32,11.07-11.75,12.12l-.85-.7c.07,0,8.43-6.23,11.75-12.53l-.31-.43c-3.3,6.15-12,12.3-12,12.3l-.94-.84-.47-.59.44.53c-.12.11,8.42-6.14,11.78-12.51l-.31-.43c-3.28,6.11-11.9,12.22-12,12.29l0,0c-.58.48-1.77,1.27-2.55,1.77a1.87,1.87,0,0,0-.81,1.08c-.48,1.75-3.32,3.38-4.1,3.8a1.85,1.85,0,0,0-.34.23c-2.94,2.55-22.57,11.53-29.52,14.67a2,2,0,0,0-.64,3.08h0a1.94,1.94,0,0,0,2.42.37c5.22-3,23.88-13.92,28.37-16.38a1.69,1.69,0,0,1,.27-.13c.74-.26,4.15-1.4,6.68-.77a1.94,1.94,0,0,0,1.42-.17,16.12,16.12,0,0,0,3.57-2.41h0c-.12.12,8.42-6.13,11.78-12.5Z"/><path class="cls-1" d="M745.26,230.39c-3.3,6.15-12,12.3-12,12.3l.14.17-.17-.17-.9-.75v0c.76-.54,8.55-6.45,11.72-12.47l-.31-.43c-3,5.54-10.32,11.07-11.76,12.12l-.84-.7c.06,0,8.43-6.23,11.75-12.53l-.32-.43c-3.3,6.15-12,12.3-12,12.3l-.93-.84-.47-.59.44.53c-.12.11,8.42-6.14,11.78-12.51l-.32-.43c-3.28,6.11-11.89,12.22-12,12.29l0,0c-.58.48-1.77,1.27-2.55,1.77a1.93,1.93,0,0,0-.82,1.08c-.47,1.75-3.32,3.38-4.09,3.8a1.85,1.85,0,0,0-.34.23c-2.94,2.55-22.57,11.53-29.52,14.67a2,2,0,0,0-.64,3.08h0a1.94,1.94,0,0,0,2.42.37c5.22-3,23.88-13.92,28.36-16.38l.28-.13c.74-.26,4.15-1.4,6.68-.77a2,2,0,0,0,1.42-.17,16.36,16.36,0,0,0,3.57-2.41h0c-.12.12,8.42-6.13,11.78-12.5Z"/><path class="cls-1" d="M615.25,230.39c-3.3,6.15-12,12.3-12,12.3l.14.17-.17-.17-.9-.75v0c.76-.54,8.55-6.45,11.72-12.47l-.31-.43c-3,5.54-10.32,11.07-11.76,12.12l-.84-.7c.06,0,8.42-6.23,11.75-12.53l-.32-.43c-3.3,6.15-12,12.3-12,12.3l-.93-.84-.47-.59.43.53c-.12.11,8.43-6.14,11.79-12.51l-.32-.43c-3.28,6.11-11.9,12.22-12,12.29l0,0c-.58.48-1.78,1.27-2.56,1.77a1.87,1.87,0,0,0-.81,1.08c-.48,1.75-3.32,3.38-4.09,3.8a1.56,1.56,0,0,0-.34.23c-3,2.55-22.58,11.53-29.52,14.67a2,2,0,0,0-.64,3.08h0a1.93,1.93,0,0,0,2.42.37c5.21-3,23.87-13.92,28.36-16.38l.27-.13c.75-.26,4.16-1.4,6.68-.77a1.94,1.94,0,0,0,1.42-.17,16.12,16.12,0,0,0,3.57-2.41h0c-.12.12,8.43-6.13,11.79-12.5Z"/><path class="cls-1" d="M485.24,230.39c-3.3,6.15-12,12.3-12,12.3l.14.17-.18-.17-.9-.75v0c.77-.54,8.55-6.45,11.73-12.47l-.32-.43c-3,5.54-10.32,11.07-11.75,12.12l-.85-.7c.07,0,8.43-6.23,11.75-12.53l-.31-.43c-3.3,6.15-12,12.3-12,12.3l-.94-.84-.47-.59.44.53c-.12.11,8.42-6.14,11.78-12.51l-.31-.43c-3.28,6.11-11.9,12.22-12,12.29l0,0c-.58.48-1.77,1.27-2.55,1.77a1.87,1.87,0,0,0-.81,1.08c-.48,1.75-3.32,3.38-4.1,3.8a1.85,1.85,0,0,0-.34.23c-2.94,2.55-22.57,11.53-29.52,14.67a2,2,0,0,0-.64,3.08h0a1.94,1.94,0,0,0,2.42.37c5.22-3,23.88-13.92,28.37-16.38a1.69,1.69,0,0,1,.27-.13c.74-.26,4.15-1.4,6.68-.77a1.94,1.94,0,0,0,1.42-.17,16.12,16.12,0,0,0,3.57-2.41h0c-.12.12,8.42-6.13,11.78-12.5Z"/><path class="cls-1" d="M355.22,230.39c-3.3,6.15-12,12.3-12,12.3l.14.17-.17-.17-.9-.75v0c.76-.54,8.55-6.45,11.72-12.47l-.31-.43c-3,5.54-10.32,11.07-11.76,12.12l-.84-.7c.06,0,8.43-6.23,11.75-12.53l-.32-.43c-3.3,6.15-12,12.3-12,12.3l-.93-.84-.47-.59.44.53c-.12.11,8.42-6.14,11.78-12.51l-.32-.43c-3.28,6.11-11.89,12.22-12,12.29l0,0c-.58.48-1.77,1.27-2.55,1.77a1.93,1.93,0,0,0-.82,1.08c-.47,1.75-3.32,3.38-4.09,3.8a1.56,1.56,0,0,0-.34.23c-2.94,2.55-22.57,11.53-29.52,14.67a2,2,0,0,0-.64,3.08h0a1.94,1.94,0,0,0,2.42.37c5.22-3,23.88-13.92,28.36-16.38l.28-.13c.74-.26,4.15-1.4,6.68-.77a1.92,1.92,0,0,0,1.41-.17,16.21,16.21,0,0,0,3.58-2.41h0c-.12.12,8.42-6.13,11.78-12.5Z"/><path class="cls-1" d="M225.21,230.39c-3.3,6.15-12,12.3-12,12.3l.14.17-.18-.17-.9-.75v0c.76-.54,8.55-6.45,11.72-12.47l-.32-.43c-3,5.54-10.31,11.07-11.75,12.12l-.85-.7c.07,0,8.43-6.23,11.76-12.53l-.32-.43c-3.3,6.15-12,12.3-12,12.3l-.94-.84-.46-.59.43.53c-.12.11,8.42-6.14,11.79-12.51l-.32-.43c-3.28,6.11-11.9,12.22-12,12.29l0,0c-.57.48-1.77,1.27-2.55,1.77a1.87,1.87,0,0,0-.81,1.08c-.48,1.75-3.32,3.38-4.09,3.8a1.36,1.36,0,0,0-.34.23c-3,2.55-22.58,11.53-29.52,14.67a2,2,0,0,0-.64,3.08h0a1.93,1.93,0,0,0,2.42.37c5.21-3,23.87-13.92,28.36-16.38l.27-.13c.75-.26,4.16-1.4,6.68-.77a1.94,1.94,0,0,0,1.42-.17,16.12,16.12,0,0,0,3.57-2.41h0c-.12.12,8.42-6.13,11.79-12.5Z"/><path class="cls-1" d="M40.82,230.39c3.3,6.15,12,12.3,12,12.3l-.14.17.17-.17.9-.75v0c-.76-.54-8.55-6.45-11.72-12.47l.31-.43c3,5.54,10.32,11.07,11.76,12.12l.84-.7c-.06,0-8.42-6.23-11.75-12.53l.32-.43c3.3,6.15,12,12.3,12,12.3l.93-.84.47-.59-.44.53c.12.11-8.42-6.14-11.78-12.51l.32-.43c3.28,6.11,11.89,12.22,12,12.29l0,0c.58.48,1.77,1.27,2.56,1.77a1.91,1.91,0,0,1,.81,1.08c.47,1.75,3.32,3.38,4.09,3.8a1.56,1.56,0,0,1,.34.23c3,2.55,22.57,11.53,29.52,14.67a2,2,0,0,1,.64,3.08h0a1.94,1.94,0,0,1-2.42.37c-5.22-3-23.88-13.92-28.36-16.38l-.27-.13c-.75-.26-4.16-1.4-6.69-.77a1.92,1.92,0,0,1-1.41-.17,16.12,16.12,0,0,1-3.57-2.41h0c.12.12-8.42-6.13-11.78-12.5Z"/><path class="cls-1" d="M835.28,155.39c-3.3,6.15-12,12.3-12,12.3l.14.17-.18-.17-.9-.75v0c.76-.54,8.54-6.45,11.72-12.47l-.32-.43c-3,5.54-10.32,11.07-11.75,12.12l-.85-.7c.07,0,8.43-6.23,11.75-12.53l-.31-.43c-3.3,6.15-12,12.3-12,12.3l-.94-.84-.47-.59.44.53c-.12.11,8.42-6.14,11.78-12.51l-.31-.43c-3.28,6.11-11.9,12.22-12,12.29l0,0c-.58.48-1.77,1.27-2.55,1.77a1.87,1.87,0,0,0-.81,1.08c-.48,1.75-3.32,3.38-4.1,3.8a1.85,1.85,0,0,0-.34.23c-2.94,2.55-22.57,11.53-29.52,14.67a2,2,0,0,0-.64,3.08h0a1.94,1.94,0,0,0,2.42.37c5.22-3,23.88-13.92,28.37-16.38a1.69,1.69,0,0,1,.27-.13c.74-.26,4.15-1.4,6.68-.77a1.94,1.94,0,0,0,1.42-.17,16.12,16.12,0,0,0,3.57-2.41h0c-.12.12,8.42-6.13,11.78-12.5Z"/><path class="cls-1" d="M959,155.39c-3.3,6.15-12,12.3-12,12.3l.14.17-.18-.17-.9-.75v0c.76-.54,8.54-6.45,11.72-12.47l-.32-.43c-3,5.54-10.32,11.07-11.75,12.12l-.85-.7c.07,0,8.43-6.23,11.75-12.53l-.31-.43c-3.3,6.15-12,12.3-12,12.3l-.94-.84-.47-.59.44.53c-.12.11,8.42-6.14,11.78-12.51l-.31-.43c-3.28,6.11-11.9,12.22-12,12.29l0,0c-.58.48-1.77,1.27-2.55,1.77a1.87,1.87,0,0,0-.81,1.08c-.48,1.75-3.32,3.38-4.1,3.8a1.85,1.85,0,0,0-.34.23c-2.94,2.55-22.57,11.53-29.52,14.67a2,2,0,0,0-.64,3.08h0a1.94,1.94,0,0,0,2.42.37c5.22-3,23.88-13.92,28.37-16.38a1.69,1.69,0,0,1,.27-.13c.74-.26,4.15-1.4,6.68-.77a1.94,1.94,0,0,0,1.42-.17,16.12,16.12,0,0,0,3.57-2.41h0c-.12.12,8.42-6.13,11.78-12.5Z"/><path class="cls-1" d="M705.26,155.39c-3.3,6.15-12,12.3-12,12.3l.14.17-.17-.17-.9-.75v0c.76-.54,8.55-6.45,11.72-12.47l-.31-.43c-3,5.54-10.32,11.07-11.76,12.12l-.84-.7c.06,0,8.43-6.23,11.75-12.53l-.32-.43c-3.3,6.15-12,12.3-12,12.3l-.93-.84-.47-.59.44.53c-.12.11,8.42-6.14,11.78-12.51l-.32-.43c-3.28,6.11-11.89,12.22-12,12.29l0,0c-.58.48-1.77,1.27-2.55,1.77a1.93,1.93,0,0,0-.82,1.08c-.47,1.75-3.32,3.38-4.09,3.8a1.85,1.85,0,0,0-.34.23c-2.94,2.55-22.57,11.53-29.52,14.67a2,2,0,0,0-.64,3.08h0a1.94,1.94,0,0,0,2.42.37c5.22-3,23.88-13.92,28.36-16.38l.28-.13c.74-.26,4.15-1.4,6.68-.77a2,2,0,0,0,1.42-.17,16.36,16.36,0,0,0,3.57-2.41h0c-.12.12,8.42-6.13,11.78-12.5Z"/><path class="cls-1" d="M575.25,155.39c-3.3,6.15-12,12.3-12,12.3l.14.17-.17-.17-.9-.75v0c.76-.54,8.55-6.45,11.72-12.47l-.31-.43c-3,5.54-10.32,11.07-11.76,12.12l-.84-.7c.06,0,8.42-6.23,11.75-12.53l-.32-.43c-3.3,6.15-12,12.3-12,12.3l-.93-.84-.47-.59.43.53c-.12.11,8.43-6.14,11.79-12.51l-.32-.43c-3.28,6.11-11.9,12.22-12,12.29l0,0c-.58.48-1.78,1.27-2.56,1.77a1.87,1.87,0,0,0-.81,1.08c-.48,1.75-3.32,3.38-4.09,3.8a1.56,1.56,0,0,0-.34.23c-3,2.55-22.58,11.53-29.52,14.67a2,2,0,0,0-.64,3.08h0a1.93,1.93,0,0,0,2.42.37c5.21-3,23.87-13.92,28.36-16.38l.27-.13c.75-.26,4.16-1.4,6.68-.77a1.94,1.94,0,0,0,1.42-.17,16.12,16.12,0,0,0,3.57-2.41h0c-.12.12,8.43-6.13,11.79-12.5Z"/><path class="cls-1" d="M445.24,155.39c-3.3,6.15-12,12.3-12,12.3l.14.17-.18-.17-.9-.75v0c.77-.54,8.55-6.45,11.73-12.47l-.32-.43c-3,5.54-10.32,11.07-11.75,12.12l-.85-.7c.07,0,8.43-6.23,11.75-12.53l-.31-.43c-3.3,6.15-12,12.3-12,12.3l-.94-.84-.47-.59.44.53c-.12.11,8.42-6.14,11.78-12.51l-.31-.43c-3.28,6.11-11.9,12.22-12,12.29l0,0c-.58.48-1.77,1.27-2.55,1.77a1.87,1.87,0,0,0-.81,1.08c-.48,1.75-3.32,3.38-4.1,3.8a1.85,1.85,0,0,0-.34.23c-2.94,2.55-22.57,11.53-29.52,14.67a2,2,0,0,0-.64,3.08h0a1.94,1.94,0,0,0,2.42.37c5.22-3,23.88-13.92,28.37-16.38a1.69,1.69,0,0,1,.27-.13c.74-.26,4.15-1.4,6.68-.77a1.94,1.94,0,0,0,1.42-.17,16.12,16.12,0,0,0,3.57-2.41h0c-.12.12,8.42-6.13,11.78-12.5Z"/><path class="cls-1" d="M315.22,155.39c-3.3,6.15-12,12.3-12,12.3l.14.17-.17-.17-.9-.75v0c.76-.54,8.55-6.45,11.72-12.47l-.31-.43c-3,5.54-10.32,11.07-11.76,12.12l-.84-.7c.06,0,8.43-6.23,11.75-12.53l-.32-.43c-3.3,6.15-12,12.3-12,12.3l-.93-.84-.47-.59.44.53c-.12.11,8.42-6.14,11.78-12.51l-.32-.43c-3.28,6.11-11.89,12.22-12,12.29l0,0c-.58.48-1.77,1.27-2.55,1.77a1.93,1.93,0,0,0-.82,1.08c-.47,1.75-3.32,3.38-4.09,3.8a1.56,1.56,0,0,0-.34.23c-2.94,2.55-22.57,11.53-29.52,14.67a2,2,0,0,0-.64,3.08h0a1.94,1.94,0,0,0,2.42.37c5.22-3,23.88-13.92,28.36-16.38l.28-.13c.74-.26,4.15-1.4,6.68-.77a1.92,1.92,0,0,0,1.41-.17,16.21,16.21,0,0,0,3.58-2.41h0c-.12.12,8.42-6.13,11.78-12.5Z"/><path class="cls-1" d="M185.21,155.39c-3.3,6.15-12,12.3-12,12.3l.14.17-.18-.17-.9-.75v0c.76-.54,8.55-6.45,11.72-12.47l-.32-.43c-3,5.54-10.31,11.07-11.75,12.12l-.85-.7c.07,0,8.43-6.23,11.76-12.53l-.32-.43c-3.3,6.15-12,12.3-12,12.3l-.94-.84-.46-.59.43.53c-.12.11,8.42-6.14,11.79-12.51l-.32-.43c-3.28,6.11-11.9,12.22-12,12.29l0,0c-.57.48-1.77,1.27-2.55,1.77a1.87,1.87,0,0,0-.81,1.08c-.48,1.75-3.32,3.38-4.09,3.8a1.36,1.36,0,0,0-.34.23c-3,2.55-22.58,11.53-29.52,14.67a2,2,0,0,0-.64,3.08h0a1.93,1.93,0,0,0,2.42.37c5.21-3,23.87-13.92,28.36-16.38l.27-.13c.75-.26,4.16-1.4,6.68-.77a1.94,1.94,0,0,0,1.42-.17,16.12,16.12,0,0,0,3.57-2.41h0c-.12.12,8.42-6.13,11.79-12.5Z"/><path class="cls-1" d="M55.2,155.39c-3.3,6.15-12,12.3-12,12.3l.14.17-.18-.17-.9-.75v0c.77-.54,8.55-6.45,11.73-12.47l-.32-.43c-3,5.54-10.32,11.07-11.75,12.12l-.85-.7c.07,0,8.43-6.23,11.75-12.53l-.31-.43c-3.3,6.15-12,12.3-12,12.3l-.94-.84-.47-.59.44.53c-.12.11,8.42-6.14,11.78-12.51l-.31-.43c-3.28,6.11-11.9,12.22-12,12.29l0,0c-.58.48-1.77,1.27-2.55,1.77A1.87,1.87,0,0,0,35.6,166c-.48,1.75-3.32,3.38-4.1,3.8a1.85,1.85,0,0,0-.34.23c-2.94,2.55-22.57,11.53-29.52,14.67A2,2,0,0,0,1,187.82H1a1.94,1.94,0,0,0,2.42.37c5.22-3,23.88-13.92,28.37-16.38a1.69,1.69,0,0,1,.27-.13c.74-.26,4.15-1.4,6.68-.77a2,2,0,0,0,1.42-.17,16.12,16.12,0,0,0,3.57-2.41h0c-.12.12,8.42-6.13,11.78-12.5Z"/><path class="cls-1" d="M875.28,80.39c-3.3,6.15-12,12.3-12,12.3l.14.17-.18-.17-.9-.75v0c.76-.54,8.54-6.45,11.72-12.47l-.32-.43c-3,5.54-10.32,11.07-11.75,12.12l-.85-.7c.07,0,8.43-6.23,11.75-12.53l-.31-.43c-3.3,6.15-12,12.3-12,12.3l-.94-.84-.47-.59.44.53c-.12.11,8.42-6.14,11.78-12.51l-.31-.43c-3.28,6.11-11.9,12.22-12,12.29l0,0c-.58.48-1.77,1.27-2.55,1.77a1.87,1.87,0,0,0-.81,1.08c-.48,1.75-3.32,3.38-4.1,3.8a1.85,1.85,0,0,0-.34.23c-2.94,2.55-22.57,11.53-29.52,14.67a2,2,0,0,0-.64,3.08h0a1.94,1.94,0,0,0,2.42.37c5.22-3,23.88-13.92,28.37-16.38a1.69,1.69,0,0,1,.27-.13c.74-.26,4.15-1.4,6.68-.77a1.94,1.94,0,0,0,1.42-.17,16.12,16.12,0,0,0,3.57-2.41h0c-.12.12,8.42-6.13,11.78-12.5Z"/><path class="cls-1" d="M999,80.39c-3.3,6.15-12,12.3-12,12.3l.14.17-.18-.17-.9-.75v0c.76-.54,8.54-6.45,11.72-12.47l-.32-.43c-3,5.54-10.32,11.07-11.75,12.12l-.85-.7c.07,0,8.43-6.23,11.75-12.53l-.31-.43c-3.3,6.15-12,12.3-12,12.3l-.94-.84-.47-.59.44.53c-.12.11,8.42-6.14,11.78-12.51l-.31-.43c-3.28,6.11-11.9,12.22-12,12.29l0,0c-.58.48-1.77,1.27-2.55,1.77a1.87,1.87,0,0,0-.81,1.08c-.48,1.75-3.32,3.38-4.1,3.8a1.85,1.85,0,0,0-.34.23c-2.94,2.55-22.57,11.53-29.52,14.67a2,2,0,0,0-.64,3.08h0a1.94,1.94,0,0,0,2.42.37c5.22-3,23.88-13.92,28.37-16.38a1.69,1.69,0,0,1,.27-.13c.74-.26,4.15-1.4,6.68-.77a1.94,1.94,0,0,0,1.42-.17,16.12,16.12,0,0,0,3.57-2.41h0c-.12.12,8.42-6.13,11.78-12.5Z"/><path class="cls-1" d="M745.26,80.39c-3.3,6.15-12,12.3-12,12.3l.14.17-.17-.17-.9-.75v0c.76-.54,8.55-6.45,11.72-12.47l-.31-.43c-3,5.54-10.32,11.07-11.76,12.12l-.84-.7c.06,0,8.43-6.23,11.75-12.53l-.32-.43c-3.3,6.15-12,12.3-12,12.3l-.93-.84-.47-.59.44.53c-.12.11,8.42-6.14,11.78-12.51l-.32-.43c-3.28,6.11-11.89,12.22-12,12.29l0,0c-.58.48-1.77,1.27-2.55,1.77a1.93,1.93,0,0,0-.82,1.08c-.47,1.75-3.32,3.38-4.09,3.8a1.85,1.85,0,0,0-.34.23c-2.94,2.55-22.57,11.53-29.52,14.67a2,2,0,0,0-.64,3.08h0a1.94,1.94,0,0,0,2.42.37c5.22-3,23.88-13.92,28.36-16.38l.28-.13c.74-.26,4.15-1.4,6.68-.77a2,2,0,0,0,1.42-.17,16.36,16.36,0,0,0,3.57-2.41h0c-.12.12,8.42-6.13,11.78-12.5Z"/><path class="cls-1" d="M615.25,80.39c-3.3,6.15-12,12.3-12,12.3l.14.17-.17-.17-.9-.75v0c.76-.54,8.55-6.45,11.72-12.47l-.31-.43c-3,5.54-10.32,11.07-11.76,12.12l-.84-.7c.06,0,8.42-6.23,11.75-12.53l-.32-.43c-3.3,6.15-12,12.3-12,12.3l-.93-.84-.47-.59.43.53c-.12.11,8.43-6.14,11.79-12.51l-.32-.43c-3.28,6.11-11.9,12.22-12,12.29l0,0c-.58.48-1.78,1.27-2.56,1.77a1.87,1.87,0,0,0-.81,1.08c-.48,1.75-3.32,3.38-4.09,3.8a1.56,1.56,0,0,0-.34.23c-3,2.55-22.58,11.53-29.52,14.67a2,2,0,0,0-.64,3.08h0a1.93,1.93,0,0,0,2.42.37c5.21-3,23.87-13.92,28.36-16.38l.27-.13c.75-.26,4.16-1.4,6.68-.77a1.94,1.94,0,0,0,1.42-.17,16.12,16.12,0,0,0,3.57-2.41h0c-.12.12,8.43-6.13,11.79-12.5Z"/><path class="cls-1" d="M485.24,80.39c-3.3,6.15-12,12.3-12,12.3l.14.17-.18-.17-.9-.75v0c.77-.54,8.55-6.45,11.73-12.47L483.7,79c-3,5.54-10.32,11.07-11.75,12.12l-.85-.7c.07,0,8.43-6.23,11.75-12.53l-.31-.43c-3.3,6.15-12,12.3-12,12.3l-.94-.84-.47-.59.44.53c-.12.11,8.42-6.14,11.78-12.51l-.31-.43c-3.28,6.11-11.9,12.22-12,12.29l0,0c-.58.48-1.77,1.27-2.55,1.77a1.87,1.87,0,0,0-.81,1.08c-.48,1.75-3.32,3.38-4.1,3.8a1.85,1.85,0,0,0-.34.23c-2.94,2.55-22.57,11.53-29.52,14.67a2,2,0,0,0-.64,3.08h0a1.94,1.94,0,0,0,2.42.37c5.22-3,23.88-13.92,28.37-16.38a1.69,1.69,0,0,1,.27-.13c.74-.26,4.15-1.4,6.68-.77a1.94,1.94,0,0,0,1.42-.17,16.12,16.12,0,0,0,3.57-2.41h0c-.12.12,8.42-6.13,11.78-12.5Z"/><path class="cls-1" d="M355.22,80.39c-3.3,6.15-12,12.3-12,12.3l.14.17-.17-.17-.9-.75v0c.76-.54,8.55-6.45,11.72-12.47l-.31-.43c-3,5.54-10.32,11.07-11.76,12.12l-.84-.7c.06,0,8.43-6.23,11.75-12.53l-.32-.43c-3.3,6.15-12,12.3-12,12.3l-.93-.84-.47-.59.44.53c-.12.11,8.42-6.14,11.78-12.51l-.32-.43c-3.28,6.11-11.89,12.22-12,12.29l0,0c-.58.48-1.77,1.27-2.55,1.77a1.93,1.93,0,0,0-.82,1.08c-.47,1.75-3.32,3.38-4.09,3.8a1.56,1.56,0,0,0-.34.23c-2.94,2.55-22.57,11.53-29.52,14.67a2,2,0,0,0-.64,3.08h0a1.94,1.94,0,0,0,2.42.37c5.22-3,23.88-13.92,28.36-16.38l.28-.13c.74-.26,4.15-1.4,6.68-.77a1.92,1.92,0,0,0,1.41-.17,16.21,16.21,0,0,0,3.58-2.41h0c-.12.12,8.42-6.13,11.78-12.5Z"/><path class="cls-1" d="M170.83,80.39c3.3,6.15,12,12.3,12,12.3l-.14.17.18-.17.9-.75v0c-.76-.54-8.55-6.45-11.72-12.47l.32-.43c3,5.54,10.31,11.07,11.75,12.12l.85-.7c-.07,0-8.43-6.23-11.76-12.53l.32-.43c3.3,6.15,12,12.3,12,12.3l.94-.84.46-.59-.43.53c.12.11-8.42-6.14-11.79-12.51l.32-.43c3.28,6.11,11.9,12.22,12,12.29l0,0c.57.48,1.77,1.27,2.55,1.77a1.87,1.87,0,0,1,.81,1.08c.48,1.75,3.32,3.38,4.09,3.8a1.36,1.36,0,0,1,.34.23c2.95,2.55,22.58,11.53,29.52,14.67a2,2,0,0,1,.64,3.08h0a1.93,1.93,0,0,1-2.42.37c-5.21-3-23.87-13.92-28.36-16.38l-.27-.13c-.75-.26-4.15-1.4-6.68-.77a1.94,1.94,0,0,1-1.42-.17,16.12,16.12,0,0,1-3.57-2.41h0c.12.12-8.42-6.13-11.79-12.5Z"/><path class="cls-1" d="M95.2,80.39c-3.3,6.15-12,12.3-12,12.3l.14.17-.18-.17-.9-.75v0C83,91.38,90.8,85.47,94,79.45L93.66,79c-3,5.54-10.32,11.07-11.75,12.12l-.85-.7c.07,0,8.43-6.23,11.75-12.53l-.31-.43c-3.3,6.15-12,12.3-12,12.3l-.94-.84-.47-.59.44.53C79.41,89,88,82.74,91.31,76.37L91,75.94c-3.28,6.11-11.9,12.22-12,12.29l0,0c-.58.48-1.77,1.27-2.55,1.77A1.87,1.87,0,0,0,75.6,91c-.48,1.75-3.32,3.38-4.1,3.8a1.85,1.85,0,0,0-.34.23c-2.94,2.55-22.57,11.53-29.52,14.67a2,2,0,0,0-.64,3.08h0a1.94,1.94,0,0,0,2.42.37c5.22-3,23.88-13.92,28.37-16.38a1.69,1.69,0,0,1,.27-.13c.74-.26,4.15-1.4,6.68-.77a2,2,0,0,0,1.42-.17,16.12,16.12,0,0,0,3.57-2.41h0c-.12.12,8.42-6.13,11.78-12.5Z"/><path class="cls-1" d="M855.28,5.39c-3.3,6.15-12,12.3-12,12.3l.14.17-.18-.17-.9-.75v0c.76-.54,8.54-6.45,11.72-12.47L853.74,4c-3,5.54-10.32,11.07-11.75,12.12l-.85-.7c.07,0,8.43-6.23,11.75-12.53l-.31-.43c-3.3,6.15-12,12.3-12,12.3l-.94-.84-.47-.59.44.53c-.12.11,8.42-6.14,11.78-12.51l-.31-.43c-3.28,6.11-11.9,12.22-12,12.29l0,0c-.58.48-1.77,1.27-2.55,1.77a1.87,1.87,0,0,0-.81,1.08c-.48,1.75-3.32,3.38-4.1,3.8a1.85,1.85,0,0,0-.34.23c-2.94,2.55-22.57,11.53-29.52,14.67a2,2,0,0,0-.64,3.08h0a1.94,1.94,0,0,0,2.42.37c5.22-3,23.88-13.92,28.37-16.38a1.69,1.69,0,0,1,.27-.13c.74-.26,4.15-1.4,6.68-.77a1.94,1.94,0,0,0,1.42-.17,16.12,16.12,0,0,0,3.57-2.41h0c-.12.12,8.42-6.13,11.78-12.5Z"/><path class="cls-1" d="M979,5.39c-3.3,6.15-12,12.3-12,12.3l.14.17-.18-.17-.9-.75v0c.76-.54,8.54-6.45,11.72-12.47L977.49,4c-3,5.54-10.32,11.07-11.75,12.12l-.85-.7c.07,0,8.43-6.23,11.75-12.53l-.31-.43c-3.3,6.15-12,12.3-12,12.3l-.94-.84-.47-.59.44.53c-.12.11,8.42-6.14,11.78-12.51l-.31-.43c-3.28,6.11-11.9,12.22-12,12.29l0,0c-.58.48-1.77,1.27-2.55,1.77a1.87,1.87,0,0,0-.81,1.08c-.48,1.75-3.32,3.38-4.1,3.8a1.85,1.85,0,0,0-.34.23c-2.94,2.55-22.57,11.53-29.52,14.67a2,2,0,0,0-.64,3.08h0a1.94,1.94,0,0,0,2.42.37c5.22-3,23.88-13.92,28.37-16.38a1.69,1.69,0,0,1,.27-.13c.74-.26,4.15-1.4,6.68-.77a1.94,1.94,0,0,0,1.42-.17,16.12,16.12,0,0,0,3.57-2.41h0c-.12.12,8.42-6.13,11.78-12.5Z"/><path class="cls-1" d="M725.26,5.39c-3.3,6.15-12,12.3-12,12.3l.14.17-.17-.17-.9-.75v0c.76-.54,8.55-6.45,11.72-12.47L723.73,4c-3,5.54-10.32,11.07-11.76,12.12l-.84-.7c.06,0,8.43-6.23,11.75-12.53l-.32-.43c-3.3,6.15-12,12.3-12,12.3l-.93-.84-.47-.59.44.53c-.12.11,8.42-6.14,11.78-12.51l-.32-.43c-3.28,6.11-11.89,12.22-12,12.29l0,0c-.58.48-1.77,1.27-2.55,1.77a1.93,1.93,0,0,0-.82,1.08c-.47,1.75-3.32,3.38-4.09,3.8a1.85,1.85,0,0,0-.34.23c-2.94,2.55-22.57,11.53-29.52,14.67a2,2,0,0,0-.64,3.08h0a1.94,1.94,0,0,0,2.42.37c5.22-3,23.88-13.92,28.36-16.38l.28-.13c.74-.26,4.15-1.4,6.68-.77a2,2,0,0,0,1.42-.17,16.36,16.36,0,0,0,3.57-2.41h0c-.12.12,8.42-6.13,11.78-12.5Z"/><path class="cls-1" d="M595.25,5.39c-3.3,6.15-12,12.3-12,12.3l.14.17-.17-.17-.9-.75v0c.76-.54,8.55-6.45,11.72-12.47L593.72,4c-3,5.54-10.32,11.07-11.76,12.12l-.84-.7c.06,0,8.42-6.23,11.75-12.53l-.32-.43c-3.3,6.15-12,12.3-12,12.3l-.93-.84-.47-.59.43.53c-.12.11,8.43-6.14,11.79-12.51l-.32-.43c-3.28,6.11-11.9,12.22-12,12.29l0,0c-.58.48-1.78,1.27-2.56,1.77a1.87,1.87,0,0,0-.81,1.08c-.48,1.75-3.32,3.38-4.09,3.8a1.56,1.56,0,0,0-.34.23c-3,2.55-22.58,11.53-29.52,14.67a2,2,0,0,0-.64,3.08h0a1.93,1.93,0,0,0,2.42.37c5.21-3,23.87-13.92,28.36-16.38l.27-.13c.75-.26,4.16-1.4,6.68-.77a1.94,1.94,0,0,0,1.42-.17,16.12,16.12,0,0,0,3.57-2.41h0c-.12.12,8.43-6.13,11.79-12.5Z"/><path class="cls-1" d="M465.24,5.39c-3.3,6.15-12,12.3-12,12.3l.14.17-.18-.17-.9-.75v0c.77-.54,8.55-6.45,11.73-12.47L463.7,4c-3,5.54-10.32,11.07-11.75,12.12l-.85-.7c.07,0,8.43-6.23,11.75-12.53l-.31-.43c-3.3,6.15-12,12.3-12,12.3l-.94-.84-.47-.59.44.53c-.12.11,8.42-6.14,11.78-12.51L461,.94c-3.28,6.11-11.9,12.22-12,12.29l0,0c-.58.48-1.77,1.27-2.55,1.77a1.87,1.87,0,0,0-.81,1.08c-.48,1.75-3.32,3.38-4.1,3.8a1.85,1.85,0,0,0-.34.23c-2.94,2.55-22.57,11.53-29.52,14.67a2,2,0,0,0-.64,3.08h0a1.94,1.94,0,0,0,2.42.37c5.22-3,23.88-13.92,28.37-16.38a1.69,1.69,0,0,1,.27-.13c.74-.26,4.15-1.4,6.68-.77a1.94,1.94,0,0,0,1.42-.17,16.12,16.12,0,0,0,3.57-2.41h0c-.12.12,8.42-6.13,11.78-12.5Z"/><path class="cls-1" d="M335.22,5.39c-3.3,6.15-12,12.3-12,12.3l.14.17-.17-.17-.9-.75v0c.76-.54,8.55-6.45,11.72-12.47L333.69,4c-3,5.54-10.32,11.07-11.76,12.12l-.84-.7c.06,0,8.43-6.23,11.75-12.53l-.32-.43c-3.3,6.15-12,12.3-12,12.3l-.93-.84-.47-.59.44.53c-.12.11,8.42-6.14,11.78-12.51L331,.94c-3.28,6.11-11.89,12.22-12,12.29l0,0c-.58.48-1.77,1.27-2.55,1.77a1.93,1.93,0,0,0-.82,1.08c-.47,1.75-3.32,3.38-4.09,3.8a1.56,1.56,0,0,0-.34.23c-2.94,2.55-22.57,11.53-29.52,14.67a2,2,0,0,0-.64,3.08h0a1.94,1.94,0,0,0,2.42.37c5.22-3,23.88-13.92,28.36-16.38l.28-.13c.74-.26,4.15-1.4,6.68-.77a1.92,1.92,0,0,0,1.41-.17,16.21,16.21,0,0,0,3.58-2.41h0c-.12.12,8.42-6.13,11.78-12.5Z"/><path class="cls-1" d="M205.21,5.39c-3.3,6.15-12,12.3-12,12.3l.14.17-.18-.17-.9-.75v0c.76-.54,8.55-6.45,11.72-12.47L203.67,4c-3,5.54-10.31,11.07-11.75,12.12l-.85-.7c.07,0,8.43-6.23,11.76-12.53l-.32-.43c-3.3,6.15-12,12.3-12,12.3l-.94-.84-.46-.59.43.53c-.12.11,8.42-6.14,11.79-12.51L201,.94c-3.28,6.11-11.9,12.22-12,12.29l0,0c-.57.48-1.77,1.27-2.55,1.77a1.87,1.87,0,0,0-.81,1.08c-.48,1.75-3.32,3.38-4.09,3.8a1.36,1.36,0,0,0-.34.23c-3,2.55-22.58,11.53-29.52,14.67a2,2,0,0,0-.64,3.08h0a1.93,1.93,0,0,0,2.42.37c5.21-3,23.87-13.92,28.36-16.38l.27-.13c.75-.26,4.16-1.4,6.68-.77a1.94,1.94,0,0,0,1.42-.17,16.12,16.12,0,0,0,3.57-2.41h0c-.12.12,8.42-6.13,11.79-12.5Z"/><path class="cls-1" d="M75.2,5.39c-3.3,6.15-12,12.3-12,12.3l.14.17-.18-.17-.9-.75v0C63,16.38,70.8,10.47,74,4.45L73.66,4c-3,5.54-10.32,11.07-11.75,12.12l-.85-.7c.07,0,8.43-6.23,11.75-12.53l-.31-.43c-3.3,6.15-12,12.3-12,12.3l-.94-.84-.47-.59.44.53C59.41,14,68,7.74,71.31,1.37L71,.94C67.72,7.05,59.1,13.16,59,13.23l0,0c-.58.48-1.77,1.27-2.55,1.77A1.87,1.87,0,0,0,55.6,16c-.48,1.75-3.32,3.38-4.1,3.8a1.85,1.85,0,0,0-.34.23C48.22,22.62,28.59,31.6,21.64,34.74A2,2,0,0,0,21,37.82h0a1.94,1.94,0,0,0,2.42.37c5.22-3,23.88-13.92,28.37-16.38a1.69,1.69,0,0,1,.27-.13c.74-.26,4.15-1.4,6.68-.77a2,2,0,0,0,1.42-.17,16.12,16.12,0,0,0,3.57-2.41h0c-.12.12,8.42-6.13,11.78-12.5Z"/></g></g></svg>