<svg xmlns="http://www.w3.org/2000/svg" viewBox="0 0 1002.71 593.53"><defs><style>.cls-1,.cls-3{fill:none;stroke:#df7953;stroke-miterlimit:10;stroke-width:3px;}.cls-1,.cls-2{opacity:0.65;}</style></defs><title>gate-3</title><g id="Layer_2" data-name="Layer 2"><g id="Layer_1-2" data-name="Layer 1"><path class="cls-1" d="M39,576.33c8-4.32,11.42-13.55,8.51-20.68-3.49-8.54-14.24-9.8-20.68-8.5-6.77,1.36-13.42,6.54-15.08,13.14C9.16,570.56,19,585.14,38,590.44c5.72,1.35,22,4.36,35.75-4.63,21.43-14,18.84-45.35,18-55.47-2.41-28.49-20-65.58-45-66.88-14.08-.73-26.74,10.09-29.19,12.18-5.44,4.65-16.11,13.77-16,27.25.07,14,11.71,30.69,26.28,30.15,16.39-.61,29.55-22.76,23.59-33.82-3.29-6.09-12.46-12.07-20.68-8.51-6.93,3-11,11.81-8.51,20.68"/><path class="cls-1" d="M963.3,576c-8-4.32-11.41-13.55-8.5-20.68,3.48-8.54,14.24-9.8,20.68-8.5,6.77,1.36,13.41,6.54,15.07,13.14,2.58,10.27-7.25,24.84-26.28,30.15-5.72,1.35-22,4.36-35.76-4.63-21.42-14-18.83-45.35-18-55.47,2.42-28.49,20-65.58,45-66.88,14.08-.73,26.74,10.09,29.18,12.18,5.45,4.65,16.11,13.76,16,27.25-.07,14-11.71,30.69-26.28,30.15-16.39-.61-29.54-22.76-23.58-33.82,3.28-6.1,12.45-12.08,20.68-8.51,6.92,3,11,11.8,8.5,20.68"/><g class="cls-2"><path class="cls-3" d="M463.77,485.89c5.09,7.6,3.73,17.32-2.18,22.26-7.08,5.91-17.17,2-22.25-2.18-5.34-4.38-8.79-12.07-7.16-18.68,2.54-10.28,18.06-18.54,37.35-14.31,5.69,1.49,21.47,6.45,29.41,20.85,12.37,22.41-4.61,48.89-10.12,57.43-15.48,24-48.37,48.57-71.12,38-12.78-6-18.9-21.44-20.08-24.43-2.63-6.67-7.77-19.72-1.39-31.6,6.62-12.33,24.73-21.62,37.35-14.31,14.19,8.22,15.43,34,5,40.93-5.75,3.84-16.66,4.83-22.25-2.18-4.71-5.9-4.18-15.58,2.18-22.25"/><path class="cls-3" d="M542.59,486.08c-5.08,7.6-3.73,17.32,2.18,22.26,7.09,5.91,17.18,2,22.26-2.18,5.34-4.38,8.78-12.07,7.15-18.68-2.53-10.28-18-18.54-37.35-14.31-5.68,1.49-21.47,6.45-29.41,20.85-12.36,22.42,4.62,48.89,10.12,57.43,15.49,24,48.37,48.57,71.13,38,12.78-5.95,18.89-21.44,20.07-24.43,2.63-6.67,7.78-19.72,1.4-31.6-6.63-12.33-24.73-21.62-37.35-14.31-14.19,8.22-15.43,33.95-5,40.93,5.76,3.84,16.66,4.83,22.25-2.18,4.71-5.9,4.19-15.58-2.18-22.25"/></g><path class="cls-1" d="M972.8,86.67c1.33-9-4.07-17.24-11.53-19.16-8.94-2.3-16.36,5.59-19.16,11.53-3,6.25-2.75,14.67,1.56,19.94,6.7,8.19,24.26,9,39.87-3.12,4.5-3.79,16.62-15,17.61-31.46,1.54-25.55-25.16-42.16-33.8-47.52-24.31-15-64.54-23.09-80.54-3.74-9,10.87-7.85,27.48-7.63,30.69C879.66,51,880.62,65,891.48,73c11.28,8.29,31.62,8.91,39.88-3.11,9.28-13.52-.65-37.29-13.08-39.1-6.85-1-17.12,2.79-19.16,11.52-1.72,7.35,2.91,15.87,11.52,19.16"/><path class="cls-1" d="M31.36,86.43c-1.33-9,4.07-17.25,11.52-19.16C51.82,65,59.24,72.85,62,78.79,65,85,64.8,93.46,60.49,98.73c-6.71,8.2-24.27,9-39.88-3.11C16.12,91.83,4,80.57,3,64.15,1.46,38.6,28.17,22,36.81,16.64c24.3-15.06,64.53-23.09,80.53-3.74,9,10.86,7.86,27.48,7.64,30.68-.49,7.15-1.44,21.15-12.31,29.13C101.39,81,81.05,81.62,72.79,69.6c-9.28-13.52.65-37.29,13.09-39.1C92.73,29.5,103,33.3,105,42c1.72,7.35-2.92,15.86-11.53,19.16"/><path class="cls-1" d="M136.82,1.41c-16.37,18.38-14.45,45.12.7,58.3,16.14,14,45.15,10.81,54.6-5.62,4.51-7.84,6.54-20,0-28.8-7.49-10.06-24.73-14-32.9-5.62-6.93,7.09-3.78,19.35-3.5,20.37"/><path class="cls-1" d="M867.44,1.63c16.37,18.38,14.45,45.13-.7,58.31-16.14,14-45.16,10.8-54.6-5.62-4.51-7.84-6.54-20,0-28.8,7.49-10.07,24.72-14,32.9-5.62,6.93,7.09,3.77,19.35,3.5,20.37"/><g class="cls-2"><path class="cls-3" d="M520.92,398.14c.29-.72,2-4.82,6-6,5.1-1.51,10.68,2.7,12,7,2,6.35-5,14.15-12,16-10,2.65-22.1-6.39-23-16-1-11,12.75-19.93,24-21,13.65-1.3,25.65,8.88,30,20,3.24,8.3,1.13,16.07,0,20-8.12,28.29-44.44,39.45-50,41.08l-5,45.66"/><path class="cls-3" d="M485.65,398.14c-.28-.72-2-4.82-6-6-5.1-1.51-10.68,2.7-12,7-1.94,6.35,5,14.15,12,16,10,2.65,22.1-6.39,23-16,1-11-12.74-19.93-24-21-13.64-1.3-25.65,8.88-30,20-3.24,8.3-1.12,16.07,0,20,8.12,28.29,44.45,39.45,50,41.08l5,45.66"/></g></g></g></svg>