<svg xmlns="http://www.w3.org/2000/svg" viewBox="0 0 194.25 104.31"><defs><style>.cls-1{fill:none;stroke:#000;stroke-miterlimit:10;}</style></defs><title>gate-top-right</title><g id="Layer_2" data-name="Layer 2"><g id="Layer_1-2" data-name="Layer 1"><path class="cls-1" d="M165.34,85.43c1.33-9-4.07-17.25-11.53-19.16-8.94-2.3-16.36,5.58-19.16,11.52-3,6.25-2.75,14.67,1.56,19.94,6.7,8.2,24.26,9,39.87-3.11,4.5-3.79,16.62-15.05,17.61-31.47,1.54-25.55-25.16-42.16-33.8-47.51C135.58.58,95.35-7.45,79.35,11.9c-9,10.86-7.85,27.48-7.63,30.68.48,7.15,1.44,21.15,12.3,29.13C95.3,80,115.64,80.62,123.9,68.6c9.28-13.52-.65-37.29-13.08-39.1C104,28.5,93.7,32.3,91.66,41c-1.72,7.35,2.91,15.86,11.52,19.16"/><path class="cls-1" d="M60,.38c16.37,18.39,14.45,45.13-.7,58.31-16.14,14-45.16,10.81-54.6-5.62-4.51-7.84-6.54-20,0-28.8,7.49-10.06,24.72-14,32.9-5.62C44.51,25.74,41.35,38,41.08,39"/></g></g></svg>