<svg xmlns="http://www.w3.org/2000/svg" viewBox="0 0 1100 649"><defs><style>.cls-1,.cls-3{fill:none;}.cls-1{stroke:#df7953;stroke-miterlimit:10;stroke-width:3px;}.cls-2{fill:#df7953;}</style></defs><title>gate</title><g id="Layer_2" data-name="Layer 2"><g id="Layer_1-2" data-name="Layer 1"><path class="cls-1" d="M88,604.77c8-4.32,11.41-13.55,8.5-20.68-3.49-8.54-14.24-9.8-20.68-8.5C69,577,62.36,582.13,60.71,588.73,58.13,599,68,613.57,87,618.88c5.72,1.35,22,4.36,35.76-4.64,21.42-14,18.83-45.34,18-55.47-2.41-28.49-20-65.57-45-66.87C81.61,491.17,69,502,66.51,504.07c-5.45,4.66-16.12,13.77-16.05,27.25.08,14,11.71,30.7,26.29,30.16,16.39-.62,29.54-22.76,23.58-33.83-3.28-6.09-12.45-12.07-20.68-8.5-6.92,3-11,11.8-8.51,20.68"/><path class="cls-1" d="M1012.26,604.48c-8-4.33-11.41-13.55-8.5-20.68,3.49-8.55,14.24-9.8,20.68-8.51,6.77,1.37,13.42,6.55,15.08,13.15,2.57,10.27-7.26,24.84-26.29,30.15-5.72,1.34-22,4.36-35.76-4.64-21.42-14-18.83-45.34-18-55.47,2.41-28.49,20-65.57,45-66.87,14.08-.73,26.74,10.08,29.18,12.17,5.45,4.66,16.12,13.77,16,27.25-.08,14-11.71,30.7-26.29,30.15-16.39-.61-29.54-22.75-23.58-33.82,3.28-6.09,12.45-12.07,20.68-8.5,6.92,3,11,11.8,8.51,20.68"/><path class="cls-1" d="M512.74,514.33c5.08,7.59,3.73,17.32-2.18,22.25-7.09,5.92-17.18,2-22.26-2.18-5.34-4.38-8.78-12.07-7.15-18.68,2.53-10.27,18.05-18.54,37.35-14.31,5.68,1.49,21.46,6.46,29.41,20.86,12.36,22.41-4.62,48.88-10.12,57.42-15.49,24-48.37,48.57-71.13,38-12.78-6-18.89-21.45-20.07-24.44-2.63-6.66-7.78-19.71-1.4-31.59,6.63-12.33,24.73-21.63,37.35-14.31,14.19,8.22,15.43,33.95,5,40.93-5.76,3.84-16.66,4.82-22.26-2.18-4.7-5.9-4.18-15.59,2.18-22.26"/><path class="cls-1" d="M591.55,514.52c-5.08,7.59-3.73,17.32,2.19,22.25,7.08,5.92,17.17,2,22.25-2.18,5.34-4.38,8.79-12.07,7.16-18.67-2.54-10.28-18.06-18.55-37.36-14.32-5.68,1.49-21.46,6.46-29.41,20.86C544,544.87,561,571.34,566.51,579.88c15.48,24,48.36,48.57,71.12,38,12.78-6,18.89-21.45,20.07-24.44,2.63-6.66,7.78-19.71,1.4-31.59-6.63-12.33-24.73-21.63-37.35-14.31-14.19,8.22-15.43,34-5,40.93,5.76,3.84,16.66,4.82,22.26-2.18,4.71-5.9,4.18-15.59-2.18-22.26"/><path class="cls-1" d="M1021.76,115.11c1.33-9-4.07-17.25-11.53-19.16-8.93-2.3-16.36,5.58-19.16,11.52-2.94,6.25-2.75,14.68,1.56,19.94,6.7,8.2,24.27,9,39.88-3.11,4.49-3.79,16.61-15,17.6-31.47,1.54-25.55-25.16-42.16-33.8-47.51-24.31-15-64.54-23.09-80.54-3.74-9,10.87-7.85,27.48-7.63,30.69.49,7.14,1.44,21.14,12.31,29.13,11.28,8.29,31.62,8.91,39.87-3.12,9.29-13.52-.64-37.28-13.08-39.1-6.85-1-17.12,2.8-19.16,11.53-1.72,7.35,2.91,15.87,11.53,19.16"/><path class="cls-1" d="M80.32,114.86c-1.33-9,4.07-17.24,11.53-19.16,8.93-2.3,16.36,5.59,19.16,11.53,2.94,6.25,2.75,14.67-1.56,19.94-6.7,8.19-24.27,9-39.88-3.12C65.08,120.26,53,109,52,92.59,50.43,67,77.13,50.42,85.77,45.07c24.31-15,64.54-23.09,80.54-3.74,9,10.87,7.85,27.48,7.63,30.69-.49,7.15-1.44,21.14-12.31,29.13-11.28,8.29-31.62,8.91-39.87-3.11-9.29-13.52.64-37.29,13.08-39.1,6.85-1,17.12,2.79,19.16,11.52,1.72,7.35-2.91,15.87-11.53,19.16"/><path class="cls-1" d="M185.78,29.84c-16.37,18.38-14.45,45.13.7,58.31,16.14,14,45.15,10.8,54.6-5.62,4.51-7.84,6.54-20,0-28.81-7.49-10.06-24.72-14-32.9-5.62-6.93,7.1-3.77,19.36-3.5,20.38"/><path class="cls-1" d="M916.4,30.07c16.37,18.38,14.45,45.13-.7,58.3-16.14,14-45.15,10.81-54.6-5.62-4.51-7.84-6.54-20,0-28.8,7.49-10.06,24.72-14,32.9-5.62,6.93,7.09,3.78,19.36,3.5,20.37"/><path class="cls-2" d="M1048.25,33V617h-994V33h994m3-3H51.25V620h1000V30Z"/><path class="cls-1" d="M569.88,426.58c.29-.73,2-4.82,6-6,5.11-1.51,10.68,2.7,12,7,2,6.35-5,14.15-12,16-10,2.65-22.09-6.4-23-16-1-11,12.75-19.93,24-21,13.65-1.3,25.66,8.87,30,20,3.24,8.3,1.13,16.07,0,20-8.11,28.28-44.44,39.45-50,41.07l-5,45.66"/><path class="cls-1" d="M534.62,426.58c-.29-.73-2-4.82-6-6-5.11-1.51-10.68,2.7-12,7-2,6.35,5,14.15,12,16,10,2.65,22.09-6.4,23-16,1-11-12.75-19.93-24-21-13.65-1.3-25.66,8.87-30,20-3.24,8.3-1.13,16.07,0,20,8.11,28.28,44.44,39.45,50,41.07l5,45.66"/><rect class="cls-3" width="1100" height="649"/></g></g></svg>