<svg xmlns="http://www.w3.org/2000/svg" viewBox="0 0 194.35 104.31"><defs><style>.cls-1{fill:none;stroke:#000;stroke-miterlimit:10;}</style></defs><title>gate-top-left</title><g id="Layer_2" data-name="Layer 2"><g id="Layer_1-2" data-name="Layer 1"><path class="cls-1" d="M28.92,85.43c-1.33-9,4.07-17.25,11.52-19.16C49.38,64,56.8,71.85,59.6,77.79c2.95,6.25,2.76,14.67-1.55,19.94-6.71,8.2-24.27,9-39.88-3.11C13.68,90.83,1.55,79.57.56,63.15-1,37.6,25.73,21,34.37,15.64,58.67.58,98.9-7.45,114.9,11.9c9,10.86,7.85,27.48,7.64,30.68-.49,7.15-1.45,21.15-12.31,29.13C99,80,78.61,80.62,70.35,68.6,61.07,55.08,71,31.31,83.44,29.5c6.84-1,17.11,2.8,19.16,11.53,1.72,7.35-2.92,15.86-11.53,19.16"/><path class="cls-1" d="M134.38.41c-16.38,18.38-14.45,45.12.7,58.3,16.14,14,45.15,10.81,54.6-5.62,4.51-7.84,6.54-20,0-28.8-7.49-10.06-24.73-14-32.9-5.62C149.85,25.76,153,38,153.28,39"/></g></g></svg>