<svg xmlns="http://www.w3.org/2000/svg" viewBox="0 0 91.83 129.6"><defs><style>.cls-1{fill:none;stroke:#000;stroke-miterlimit:10;}</style></defs><title>gate-bottom-left</title><g id="Layer_2" data-name="Layer 2"><g id="Layer_1-2" data-name="Layer 1"><path class="cls-1" d="M38,113.41c8-4.33,11.42-13.55,8.51-20.68-3.49-8.55-14.24-9.8-20.68-8.51-6.77,1.37-13.42,6.54-15.08,13.14C8.16,107.63,18,122.21,37,127.52c5.72,1.34,22,4.36,35.75-4.64,21.43-14,18.84-45.34,18-55.47-2.41-28.49-20-65.57-45-66.87C31.65-.19,19,10.62,16.54,12.71,11.1,17.37.43,26.48.5,40c.07,14,11.71,30.7,26.28,30.15,16.39-.61,29.55-22.76,23.59-33.82-3.29-6.09-12.46-12.07-20.68-8.5-6.93,3-11,11.8-8.51,20.68"/></g></g></svg>