<svg xmlns="http://www.w3.org/2000/svg" viewBox="0 0 221.04 214.92"><defs><style>.cls-1{fill:none;stroke:#000;stroke-miterlimit:10;}</style></defs><title>gate-bottom-center</title><g id="Layer_2" data-name="Layer 2"><g id="Layer_1-2" data-name="Layer 1"><path class="cls-1" d="M71.11,108.36c5.09,7.6,3.73,17.32-2.18,22.26-7.08,5.91-17.17,2-22.25-2.18-5.35-4.38-8.79-12.07-7.16-18.68,2.54-10.28,18-18.54,37.35-14.31,5.69,1.49,21.47,6.45,29.41,20.85,12.37,22.42-4.62,48.89-10.12,57.43-15.49,24-48.37,48.57-71.12,38C12.25,205.74,6.14,190.25,5,187.26c-2.63-6.67-7.78-19.72-1.39-31.59C10.19,143.33,28.3,134,40.92,141.35c14.19,8.22,15.42,34,5,40.93-5.75,3.85-16.66,4.83-22.25-2.18-4.71-5.9-4.18-15.58,2.18-22.25"/><path class="cls-1" d="M149.93,108.55c-5.08,7.6-3.73,17.32,2.18,22.26,7.08,5.91,17.17,2,22.25-2.18,5.35-4.38,8.79-12.07,7.16-18.68C179,99.67,163.47,91.41,144.17,95.64c-5.68,1.49-21.47,6.45-29.41,20.86-12.36,22.41,4.62,48.88,10.12,57.42,15.49,24,48.37,48.57,71.13,38,12.78-5.95,18.89-21.44,20.07-24.43,2.63-6.67,7.78-19.72,1.4-31.59-6.63-12.34-24.74-21.63-37.36-14.32-14.19,8.23-15.42,34-5,40.93,5.76,3.85,16.66,4.83,22.25-2.18,4.71-5.9,4.19-15.58-2.18-22.25"/><path class="cls-1" d="M128.26,20.61c.29-.72,2-4.82,6-6,5.1-1.51,10.68,2.7,12,7,2,6.36-5,14.15-12,16-10,2.65-22.1-6.39-23-16-1-11,12.75-19.93,24-21,13.64-1.3,25.65,8.88,30,20,3.24,8.3,1.12,16.07,0,20-8.12,28.29-44.45,39.45-50,41.08l-5,45.66"/><path class="cls-1" d="M93,20.61c-.29-.72-2-4.82-6-6-5.1-1.51-10.68,2.7-12,7C73,28,80,35.76,87,37.61c10,2.65,22.1-6.39,23-16,1-11-12.75-19.93-24-21-13.64-1.3-25.65,8.88-30,20-3.24,8.3-1.12,16.07,0,20,8.12,28.29,44.45,39.45,50,41.08l5,45.66"/></g></g></svg>