<svg xmlns="http://www.w3.org/2000/svg" xmlns:xlink="http://www.w3.org/1999/xlink" viewBox="0 0 1341 796.41"><defs><style>.cls-1,.cls-3,.cls-9{fill:#fff;}.cls-1,.cls-5{stroke:#f3f3f3;}.cls-1,.cls-10,.cls-5,.cls-8,.cls-9{stroke-miterlimit:10;}.cls-2,.cls-5{fill:none;}.cls-4{clip-path:url(#clip-path);}.cls-6{clip-path:url(#clip-path-2);}.cls-7{clip-path:url(#clip-path-3);}.cls-8{fill:#fafafa;}.cls-10,.cls-8,.cls-9{stroke:#f2f2f2;}.cls-10{fill:url(#_242_scratch);}</style><clipPath id="clip-path"><rect class="cls-1" x="0.5" y="43" width="54" height="26"/></clipPath><clipPath id="clip-path-2"><rect class="cls-1" x="0.5" y="15" width="54" height="26"/></clipPath><clipPath id="clip-path-3"><rect class="cls-1" x="0.5" y="-13" width="54" height="26"/></clipPath><pattern id="_242_scratch" data-name="242 scratch" width="55" height="56" patternUnits="userSpaceOnUse" viewBox="0 0 55 56"><rect class="cls-2" width="55" height="56"/><rect class="cls-3" x="0.5" y="43" width="54" height="26"/><g class="cls-4"><line class="cls-1" x1="0.5" y1="69" x2="0.5" y2="42"/><path class="cls-1" d="M6.5,69V42L.5,69"/><line class="cls-1" x1="11.5" y1="42" x2="11.5" y2="69"/><line class="cls-1" x1="15.5" y1="42" x2="15.5" y2="69"/><line class="cls-1" x1="19.5" y1="42" x2="19.5" y2="69"/><line class="cls-1" x1="23.5" y1="42" x2="23.5" y2="69"/><line class="cls-1" x1="30.5" y1="42" x2="27.5" y2="69"/><path class="cls-1" d="M34.5,42"/><line class="cls-1" x1="34.5" y1="42" x2="30.5" y2="69"/><line class="cls-1" x1="39.5" y1="42" x2="42.5" y2="69"/><polyline class="cls-1" points="43.5 42 47.5 69 47.5 42 51.5 69 51.5 42"/><line class="cls-1" x1="54.5" y1="42" x2="54.5" y2="69"/><line class="cls-1" x1="5.5" y1="42" x2="5.5" y2="69"/><line class="cls-1" x1="11.5" y1="42.5" x2="11.5" y2="69.5"/><line class="cls-1" x1="16.5" y1="42.5" x2="16.5" y2="69.5"/><line class="cls-1" x1="18.5" y1="42.5" x2="18.5" y2="69.5"/><line class="cls-1" x1="20.5" y1="42.5" x2="20.5" y2="69.5"/><line class="cls-1" x1="22.5" y1="42.5" x2="22.5" y2="69.5"/><line class="cls-1" x1="30.5" y1="42.5" x2="30.5" y2="69.5"/><line class="cls-1" x1="34.5" y1="42.5" x2="34.5" y2="69.5"/><line class="cls-1" x1="37.5" y1="42.5" x2="37.5" y2="69.5"/><line class="cls-1" x1="40.5" y1="42.5" x2="40.5" y2="69.5"/><line class="cls-1" x1="43.5" y1="42.5" x2="43.5" y2="69.5"/><line class="cls-1" x1="46.5" y1="42.5" x2="46.5" y2="69.5"/><line class="cls-1" x1="48.5" y1="42.5" x2="48.5" y2="69.5"/><line class="cls-1" x1="50.5" y1="42.5" x2="50.5" y2="69.5"/><line class="cls-1" x1="52.5" y1="42.5" x2="52.5" y2="69.5"/><line class="cls-1" x1="54.5" y1="42.5" x2="54.5" y2="69.5"/><line class="cls-1" x1="26.5" y1="42.5" x2="26.5" y2="69.5"/><line class="cls-1" x1="24.5" y1="42.5" x2="24.5" y2="69.5"/><path class="cls-1" d="M27.5,42c-5,26-5,27-5,27"/><path class="cls-1" d="M36.5,42c-5,26-5,27-5,27"/><path class="cls-1" d="M23.5,43c-5,26-5,27-5,27"/><path class="cls-1" d="M13.5,42c-5,26-5,27-5,27"/><path class="cls-1" d="M2.5,42c-5,26-5,27-5,27"/></g><rect class="cls-5" x="0.5" y="43" width="54" height="26"/><rect class="cls-3" x="0.5" y="15" width="54" height="26"/><g class="cls-6"><line class="cls-1" x1="0.5" y1="41" x2="0.5" y2="14"/><path class="cls-1" d="M6.5,41V14L.5,41"/><line class="cls-1" x1="11.5" y1="14" x2="11.5" y2="41"/><line class="cls-1" x1="15.5" y1="14" x2="15.5" y2="41"/><line class="cls-1" x1="19.5" y1="14" x2="19.5" y2="41"/><line class="cls-1" x1="23.5" y1="14" x2="23.5" y2="41"/><line class="cls-1" x1="30.5" y1="14" x2="27.5" y2="41"/><path class="cls-1" d="M34.5,14"/><line class="cls-1" x1="34.5" y1="14" x2="30.5" y2="41"/><line class="cls-1" x1="39.5" y1="14" x2="42.5" y2="41"/><polyline class="cls-1" points="43.5 14 47.5 41 47.5 14 51.5 41 51.5 14"/><line class="cls-1" x1="54.5" y1="14" x2="54.5" y2="41"/><line class="cls-1" x1="5.5" y1="14" x2="5.5" y2="41"/><line class="cls-1" x1="11.5" y1="14.5" x2="11.5" y2="41.5"/><line class="cls-1" x1="16.5" y1="14.5" x2="16.5" y2="41.5"/><line class="cls-1" x1="18.5" y1="14.5" x2="18.5" y2="41.5"/><line class="cls-1" x1="20.5" y1="14.5" x2="20.5" y2="41.5"/><line class="cls-1" x1="22.5" y1="14.5" x2="22.5" y2="41.5"/><line class="cls-1" x1="30.5" y1="14.5" x2="30.5" y2="41.5"/><line class="cls-1" x1="34.5" y1="14.5" x2="34.5" y2="41.5"/><line class="cls-1" x1="37.5" y1="14.5" x2="37.5" y2="41.5"/><line class="cls-1" x1="40.5" y1="14.5" x2="40.5" y2="41.5"/><line class="cls-1" x1="43.5" y1="14.5" x2="43.5" y2="41.5"/><line class="cls-1" x1="46.5" y1="14.5" x2="46.5" y2="41.5"/><line class="cls-1" x1="48.5" y1="14.5" x2="48.5" y2="41.5"/><line class="cls-1" x1="50.5" y1="14.5" x2="50.5" y2="41.5"/><line class="cls-1" x1="52.5" y1="14.5" x2="52.5" y2="41.5"/><line class="cls-1" x1="54.5" y1="14.5" x2="54.5" y2="41.5"/><line class="cls-1" x1="56.5" y1="14.5" x2="56.5" y2="41.5"/><line class="cls-1" x1="26.5" y1="14.5" x2="26.5" y2="41.5"/><line class="cls-1" x1="24.5" y1="14.5" x2="24.5" y2="41.5"/><path class="cls-1" d="M27.5,14c-5,26-5,27-5,27"/><path class="cls-1" d="M36.5,14c-5,26-5,27-5,27"/><path class="cls-1" d="M23.5,15c-5,26-5,27-5,27"/><path class="cls-1" d="M13.5,14c-5,26-5,27-5,27"/><path class="cls-1" d="M2.5,14c-5,26-5,27-5,27"/></g><rect class="cls-5" x="0.5" y="15" width="54" height="26"/><rect class="cls-3" x="0.5" y="-13" width="54" height="26"/><g class="cls-7"><line class="cls-1" x1="0.5" y1="13" x2="0.5" y2="-14"/><path class="cls-1" d="M6.5,13V-14L.5,13"/><line class="cls-1" x1="11.5" y1="-14" x2="11.5" y2="13"/><line class="cls-1" x1="15.5" y1="-14" x2="15.5" y2="13"/><line class="cls-1" x1="19.5" y1="-14" x2="19.5" y2="13"/><line class="cls-1" x1="23.5" y1="-14" x2="23.5" y2="13"/><line class="cls-1" x1="30.5" y1="-14" x2="27.5" y2="13"/><line class="cls-1" x1="34.5" y1="-14" x2="30.5" y2="13"/><line class="cls-1" x1="39.5" y1="-14" x2="42.5" y2="13"/><polyline class="cls-1" points="43.5 -14 47.5 13 47.5 -14 51.5 13 51.5 -14"/><line class="cls-1" x1="54.5" y1="-14" x2="54.5" y2="13"/><line class="cls-1" x1="5.5" y1="-14" x2="5.5" y2="13"/><line class="cls-1" x1="11.5" y1="-13.5" x2="11.5" y2="13.5"/><line class="cls-1" x1="16.5" y1="-13.5" x2="16.5" y2="13.5"/><line class="cls-1" x1="18.5" y1="-13.5" x2="18.5" y2="13.5"/><line class="cls-1" x1="20.5" y1="-13.5" x2="20.5" y2="13.5"/><line class="cls-1" x1="22.5" y1="-13.5" x2="22.5" y2="13.5"/><line class="cls-1" x1="30.5" y1="-13.5" x2="30.5" y2="13.5"/><line class="cls-1" x1="34.5" y1="-13.5" x2="34.5" y2="13.5"/><line class="cls-1" x1="37.5" y1="-13.5" x2="37.5" y2="13.5"/><line class="cls-1" x1="40.5" y1="-13.5" x2="40.5" y2="13.5"/><line class="cls-1" x1="43.5" y1="-13.5" x2="43.5" y2="13.5"/><line class="cls-1" x1="46.5" y1="-13.5" x2="46.5" y2="13.5"/><line class="cls-1" x1="48.5" y1="-13.5" x2="48.5" y2="13.5"/><line class="cls-1" x1="50.5" y1="-13.5" x2="50.5" y2="13.5"/><line class="cls-1" x1="52.5" y1="-13.5" x2="52.5" y2="13.5"/><line class="cls-1" x1="54.5" y1="-13.5" x2="54.5" y2="13.5"/><line class="cls-1" x1="26.5" y1="-13.5" x2="26.5" y2="13.5"/><line class="cls-1" x1="24.5" y1="-13.5" x2="24.5" y2="13.5"/><path class="cls-1" d="M27.5-14c-5,26-5,27-5,27"/><path class="cls-1" d="M36.5-14c-5,26-5,27-5,27"/><path class="cls-1" d="M23.5-13c-5,26-5,27-5,27"/><path class="cls-1" d="M13.5-14c-5,26-5,27-5,27"/><path class="cls-1" d="M2.5-14c-5,26-5,27-5,27"/></g><rect class="cls-5" x="0.5" y="-13" width="54" height="26"/></pattern></defs><title>graychev2</title><g id="Layer_2" data-name="Layer 2"><g id="Layer_1-2" data-name="Layer 1"><rect class="cls-3" y="29.71" width="1341" height="742"/><polygon class="cls-8" points="599.82 779.98 600.18 749.98 570.42 729.63 540.18 749.27 539.83 779.27 570.06 759.63 599.82 779.98"/><polygon class="cls-9" points="601.24 659.99 601.59 629.99 571.83 609.64 541.6 629.28 541.24 659.28 571.48 639.64 601.24 659.99"/><polygon class="cls-8" points="599.06 694.82 599.41 665.61 570.43 645.79 540.99 664.92 540.64 694.13 570.08 675 599.06 694.82"/><polygon class="cls-10" points="599.3 739.97 599.65 709.97 569.89 689.62 539.65 709.27 539.3 739.26 569.53 719.62 599.3 739.97"/><polygon class="cls-8" points="603.65 540.01 604.01 510.01 574.25 489.66 544.01 509.3 543.66 539.3 573.89 519.66 603.65 540.01"/><polygon class="cls-10" points="602.17 581 602.53 551 572.76 530.64 542.53 550.29 542.18 580.29 572.41 560.64 602.17 581"/><polygon class="cls-8" points="601.71 619.99 602.07 589.99 572.3 569.64 542.07 589.29 541.72 619.28 571.95 599.64 601.71 619.99"/><polygon class="cls-10" points="608.04 418.9 608.4 388.9 578.63 368.55 548.4 388.2 548.05 418.19 578.28 398.55 608.04 418.9"/><polygon class="cls-8" points="606.56 459.89 606.91 429.89 577.15 409.54 546.92 429.18 546.56 459.18 576.8 439.54 606.56 459.89"/><polygon class="cls-9" points="606.1 498.88 606.45 468.89 576.69 448.54 546.46 468.18 546.1 498.18 576.34 478.53 606.1 498.88"/><polygon class="cls-9" points="610.46 298.92 610.81 268.93 581.05 248.57 550.82 268.22 550.46 298.21 580.7 278.57 610.46 298.92"/><polygon class="cls-8" points="608.98 339.91 609.33 309.91 579.57 289.56 549.33 309.2 548.98 339.2 579.21 319.56 608.98 339.91"/><polygon class="cls-9" points="608.51 378.9 608.87 348.91 579.11 328.56 548.87 348.2 548.52 378.2 578.75 358.55 608.51 378.9"/><polygon class="cls-8" points="611.87 178.93 612.23 148.93 582.47 128.58 552.23 148.22 551.88 178.22 582.11 158.58 611.87 178.93"/><polygon class="cls-9" points="610.39 219.92 610.74 189.92 580.98 169.57 550.75 189.21 550.39 219.21 580.63 199.56 610.39 219.92"/><polygon class="cls-10" points="609.93 258.91 610.28 228.92 580.52 208.56 550.29 228.21 549.93 258.21 580.17 238.56 609.93 258.91"/><polygon class="cls-9" points="614.29 58.95 614.64 28.95 584.88 8.6 554.65 28.25 554.29 58.24 584.53 38.6 614.29 58.95"/><polygon class="cls-8" points="612.81 99.94 613.16 69.94 583.4 49.59 553.16 69.23 552.81 99.23 583.04 79.58 612.81 99.94"/><polygon class="cls-10" points="612.35 138.93 612.7 108.94 582.94 88.58 552.7 108.23 552.35 138.23 582.58 118.58 612.35 138.93"/><polygon class="cls-9" points="719.53 378.87 719.6 408.87 749.64 428.8 779.6 408.73 779.52 378.73 749.57 398.8 719.53 378.87"/><polygon class="cls-10" points="720.43 337.87 720.5 367.87 750.55 387.8 780.5 367.73 780.43 337.73 750.48 357.8 720.43 337.87"/><polygon class="cls-8" points="720.33 298.87 720.41 328.87 750.45 348.8 780.41 328.73 780.33 298.73 750.38 318.8 720.33 298.87"/><polygon class="cls-10" points="718.81 498.88 718.88 528.88 748.93 548.8 778.88 528.73 778.81 498.73 748.86 518.8 718.81 498.88"/><polygon class="cls-8" points="719.72 457.87 719.79 487.87 749.83 507.8 779.79 487.73 779.71 457.73 749.76 477.8 719.72 457.87"/><polygon class="cls-9" points="719.62 418.87 719.69 448.87 749.74 468.8 779.69 448.73 779.62 418.73 749.67 438.8 719.62 418.87"/><polygon class="cls-10" points="719.1 618.88 719.17 648.88 749.22 668.8 779.17 648.73 779.1 618.73 749.15 638.8 719.1 618.88"/><polygon class="cls-8" points="720 577.87 720.07 607.87 750.12 627.8 780.07 607.73 780 577.73 750.05 597.8 720 577.87"/><polygon class="cls-9" points="719.91 538.87 719.98 568.87 750.03 588.8 779.98 568.73 779.91 538.73 749.96 558.8 719.91 538.87"/><polygon class="cls-9" points="718.39 738.88 718.46 768.88 748.51 788.8 778.46 768.73 778.39 738.73 748.43 758.8 718.39 738.88"/><polygon class="cls-8" points="719.29 697.88 719.36 727.88 749.41 747.8 779.36 727.73 779.29 697.73 749.34 717.8 719.29 697.88"/><polygon class="cls-9" points="719.2 658.88 719.27 688.88 749.32 708.8 779.27 688.73 779.2 658.73 749.24 678.8 719.2 658.88"/><polygon class="cls-8" points="719.2 14.51 719.27 44.51 749.32 64.44 779.27 44.37 779.2 14.37 749.25 34.44 719.2 14.51"/><polygon class="cls-8" points="719.48 134.51 719.56 164.51 749.6 184.44 779.56 164.37 779.48 134.37 749.53 154.44 719.48 134.51"/><polygon class="cls-10" points="720.39 93.51 720.46 123.51 750.51 143.44 780.46 123.36 780.39 93.36 750.43 113.44 720.39 93.51"/><polygon class="cls-9" points="720.29 54.51 720.36 84.51 750.41 104.44 780.36 84.36 780.29 54.36 750.34 74.44 720.29 54.51"/><polygon class="cls-10" points="718.77 254.51 718.84 284.51 748.89 304.44 778.84 284.37 778.77 254.37 748.82 274.44 718.77 254.51"/><polygon class="cls-8" points="719.67 213.51 719.75 243.51 749.79 263.44 779.75 243.37 779.67 213.37 749.72 233.44 719.67 213.51"/><polygon class="cls-9" points="719.58 174.51 719.65 204.51 749.7 224.44 779.65 204.37 779.58 174.37 749.63 194.44 719.58 174.51"/><polygon class="cls-8" points="1012.82 771.98 1013.18 741.98 983.42 721.63 953.18 741.27 952.83 771.27 983.06 751.63 1012.82 771.98"/><polygon class="cls-9" points="1014.24 651.99 1014.59 621.99 984.83 601.64 954.6 621.28 954.24 651.28 984.48 631.64 1014.24 651.99"/><polygon class="cls-8" points="1012.06 686.82 1012.41 657.61 983.43 637.79 953.99 656.92 953.64 686.13 983.08 667 1012.06 686.82"/><polygon class="cls-10" points="1012.3 731.97 1012.65 701.97 982.89 681.62 952.65 701.27 952.3 731.26 982.53 711.62 1012.3 731.97"/><polygon class="cls-8" points="1016.65 532.01 1017.01 502.01 987.25 481.66 957.01 501.3 956.66 531.3 986.89 511.66 1016.65 532.01"/><polygon class="cls-10" points="1015.17 573 1015.53 543 985.76 522.64 955.53 542.29 955.18 572.29 985.41 552.64 1015.17 573"/><polygon class="cls-8" points="1014.71 611.99 1015.07 581.99 985.3 561.64 955.07 581.29 954.72 611.28 984.95 591.64 1014.71 611.99"/><polygon class="cls-10" points="1021.04 410.9 1021.4 380.9 991.63 360.55 961.4 380.2 961.05 410.19 991.28 390.55 1021.04 410.9"/><polygon class="cls-8" points="1019.56 451.89 1019.91 421.89 990.15 401.54 959.92 421.18 959.56 451.18 989.8 431.54 1019.56 451.89"/><polygon class="cls-9" points="1019.1 490.88 1019.45 460.89 989.69 440.54 959.46 460.18 959.1 490.18 989.34 470.53 1019.1 490.88"/><polygon class="cls-9" points="1023.46 290.92 1023.81 260.93 994.05 240.57 963.82 260.22 963.46 290.21 993.7 270.57 1023.46 290.92"/><polygon class="cls-8" points="1021.98 331.91 1022.33 301.91 992.57 281.56 962.33 301.2 961.98 331.2 992.21 311.56 1021.98 331.91"/><polygon class="cls-9" points="1021.51 370.9 1021.87 340.91 992.11 320.56 961.87 340.2 961.52 370.2 991.75 350.55 1021.51 370.9"/><polygon class="cls-8" points="1024.87 170.93 1025.23 140.93 995.47 120.58 965.23 140.22 964.88 170.22 995.11 150.58 1024.87 170.93"/><polygon class="cls-9" points="1023.39 211.92 1023.74 181.92 993.98 161.57 963.75 181.21 963.39 211.21 993.63 191.56 1023.39 211.92"/><polygon class="cls-10" points="1022.93 250.91 1023.28 220.92 993.52 200.56 963.29 220.21 962.93 250.21 993.17 230.56 1022.93 250.91"/><polygon class="cls-9" points="1027.29 50.95 1027.64 20.95 997.88 0.6 967.65 20.25 967.29 50.24 997.53 30.6 1027.29 50.95"/><polygon class="cls-8" points="1025.81 91.94 1026.16 61.94 996.4 41.59 966.16 61.23 965.81 91.23 996.04 71.58 1025.81 91.94"/><polygon class="cls-10" points="1025.35 130.93 1025.7 100.94 995.94 80.58 965.7 100.23 965.35 130.23 995.58 110.58 1025.35 130.93"/><polygon class="cls-9" points="1132.53 370.87 1132.6 400.87 1162.64 420.8 1192.6 400.73 1192.53 370.73 1162.57 390.8 1132.53 370.87"/><polygon class="cls-10" points="1133.43 329.87 1133.5 359.87 1163.55 379.8 1193.5 359.73 1193.43 329.73 1163.47 349.8 1133.43 329.87"/><polygon class="cls-8" points="1133.33 290.87 1133.41 320.87 1163.45 340.8 1193.41 320.73 1193.33 290.73 1163.38 310.8 1133.33 290.87"/><polygon class="cls-10" points="1131.81 490.88 1131.88 520.88 1161.93 540.8 1191.88 520.73 1191.81 490.73 1161.86 510.8 1131.81 490.88"/><polygon class="cls-8" points="1132.71 449.87 1132.79 479.87 1162.83 499.8 1192.79 479.73 1192.71 449.73 1162.76 469.8 1132.71 449.87"/><polygon class="cls-9" points="1132.62 410.87 1132.69 440.87 1162.74 460.8 1192.69 440.73 1192.62 410.73 1162.67 430.8 1132.62 410.87"/><polygon class="cls-10" points="1132.1 610.88 1132.17 640.88 1162.22 660.8 1192.17 640.73 1192.1 610.73 1162.15 630.8 1132.1 610.88"/><polygon class="cls-8" points="1133 569.87 1133.07 599.87 1163.12 619.8 1193.07 599.73 1193 569.73 1163.05 589.8 1133 569.87"/><polygon class="cls-9" points="1132.91 530.87 1132.98 560.87 1163.03 580.8 1192.98 560.73 1192.91 530.73 1162.96 550.8 1132.91 530.87"/><polygon class="cls-9" points="1131.39 730.88 1131.46 760.88 1161.51 780.8 1191.46 760.73 1191.39 730.73 1161.43 750.8 1131.39 730.88"/><polygon class="cls-8" points="1132.29 689.88 1132.36 719.88 1162.41 739.8 1192.36 719.73 1192.29 689.73 1162.34 709.8 1132.29 689.88"/><polygon class="cls-9" points="1132.2 650.88 1132.27 680.88 1162.32 700.8 1192.27 680.73 1192.19 650.73 1162.24 670.8 1132.2 650.88"/><polygon class="cls-8" points="1132.2 6.51 1132.27 36.51 1162.32 56.44 1192.27 36.37 1192.2 6.37 1162.24 26.44 1132.2 6.51"/><polygon class="cls-8" points="1132.48 126.51 1132.56 156.51 1162.6 176.44 1192.56 156.37 1192.48 126.37 1162.53 146.44 1132.48 126.51"/><polygon class="cls-10" points="1133.39 85.51 1133.46 115.51 1163.51 135.44 1193.46 115.36 1193.39 85.36 1163.43 105.44 1133.39 85.51"/><polygon class="cls-9" points="1133.29 46.51 1133.36 76.51 1163.41 96.44 1193.36 76.36 1193.29 46.36 1163.34 66.44 1133.29 46.51"/><polygon class="cls-10" points="1131.77 246.51 1131.84 276.51 1161.89 296.44 1191.84 276.37 1191.77 246.37 1161.82 266.44 1131.77 246.51"/><polygon class="cls-8" points="1132.67 205.51 1132.74 235.51 1162.79 255.44 1192.74 235.37 1192.67 205.37 1162.72 225.44 1132.67 205.51"/><polygon class="cls-9" points="1132.58 166.51 1132.65 196.51 1162.7 216.44 1192.65 196.37 1192.58 166.37 1162.63 186.44 1132.58 166.51"/><polygon class="cls-8" points="192.82 786.98 193.18 756.98 163.42 736.63 133.18 756.27 132.83 786.27 163.06 766.63 192.82 786.98"/><polygon class="cls-9" points="194.24 666.99 194.59 636.99 164.83 616.64 134.6 636.28 134.24 666.28 164.48 646.64 194.24 666.99"/><polygon class="cls-8" points="192.06 701.82 192.41 672.61 163.43 652.79 133.99 671.92 133.64 701.13 163.08 682 192.06 701.82"/><polygon class="cls-10" points="192.3 746.97 192.65 716.97 162.89 696.62 132.65 716.27 132.3 746.26 162.53 726.62 192.3 746.97"/><polygon class="cls-8" points="196.66 547.01 197.01 517.01 167.25 496.66 137.01 516.3 136.66 546.3 166.89 526.66 196.66 547.01"/><polygon class="cls-10" points="195.17 588 195.53 558 165.76 537.64 135.53 557.29 135.18 587.29 165.41 567.64 195.17 588"/><polygon class="cls-8" points="194.71 626.99 195.06 596.99 165.3 576.64 135.07 596.29 134.72 626.28 164.95 606.64 194.71 626.99"/><polygon class="cls-10" points="201.04 425.9 201.4 395.9 171.63 375.55 141.4 395.2 141.05 425.19 171.28 405.55 201.04 425.9"/><polygon class="cls-8" points="199.56 466.89 199.91 436.89 170.15 416.54 139.92 436.18 139.56 466.18 169.8 446.54 199.56 466.89"/><polygon class="cls-9" points="199.1 505.88 199.45 475.89 169.69 455.54 139.46 475.18 139.1 505.18 169.34 485.53 199.1 505.88"/><polygon class="cls-9" points="203.46 305.92 203.81 275.93 174.05 255.57 143.82 275.22 143.46 305.21 173.7 285.57 203.46 305.92"/><polygon class="cls-8" points="201.97 346.91 202.33 316.91 172.57 296.56 142.33 316.2 141.98 346.2 172.21 326.56 201.97 346.91"/><polygon class="cls-9" points="201.51 385.9 201.87 355.91 172.11 335.56 141.87 355.2 141.52 385.2 171.75 365.55 201.51 385.9"/><polygon class="cls-8" points="204.87 185.93 205.23 155.93 175.47 135.58 145.23 155.22 144.88 185.22 175.11 165.58 204.87 185.93"/><polygon class="cls-9" points="203.39 226.92 203.74 196.92 173.98 176.57 143.75 196.21 143.39 226.21 173.63 206.56 203.39 226.92"/><polygon class="cls-10" points="202.93 265.91 203.28 235.92 173.52 215.56 143.29 235.21 142.93 265.21 173.17 245.56 202.93 265.91"/><polygon class="cls-9" points="207.29 65.95 207.64 35.95 177.88 15.6 147.65 35.25 147.29 65.24 177.53 45.6 207.29 65.95"/><polygon class="cls-8" points="205.81 106.94 206.16 76.94 176.4 56.59 146.16 76.23 145.81 106.23 176.04 86.58 205.81 106.94"/><polygon class="cls-10" points="205.35 145.93 205.7 115.94 175.94 95.58 145.7 115.23 145.35 145.23 175.58 125.58 205.35 145.93"/><polygon class="cls-9" points="312.53 385.87 312.6 415.87 342.64 435.8 372.6 415.73 372.52 385.73 342.57 405.8 312.53 385.87"/><polygon class="cls-10" points="313.43 344.87 313.5 374.87 343.55 394.8 373.5 374.73 373.43 344.73 343.48 364.8 313.43 344.87"/><polygon class="cls-8" points="313.33 305.87 313.41 335.87 343.45 355.8 373.41 335.73 373.33 305.73 343.38 325.8 313.33 305.87"/><polygon class="cls-10" points="311.81 505.88 311.88 535.88 341.93 555.8 371.88 535.73 371.81 505.73 341.86 525.8 311.81 505.88"/><polygon class="cls-8" points="312.71 464.87 312.79 494.87 342.83 514.8 372.79 494.73 372.71 464.73 342.76 484.8 312.71 464.87"/><polygon class="cls-9" points="312.62 425.87 312.69 455.87 342.74 475.8 372.69 455.73 372.62 425.73 342.67 445.8 312.62 425.87"/><polygon class="cls-10" points="312.1 625.88 312.17 655.88 342.22 675.8 372.17 655.73 372.1 625.73 342.15 645.8 312.1 625.88"/><polygon class="cls-8" points="313 584.87 313.07 614.87 343.12 634.8 373.07 614.73 373 584.73 343.05 604.8 313 584.87"/><polygon class="cls-9" points="312.91 545.87 312.98 575.87 343.03 595.8 372.98 575.73 372.91 545.73 342.96 565.8 312.91 545.87"/><polygon class="cls-9" points="311.39 745.88 311.46 775.88 341.51 795.8 371.46 775.73 371.39 745.73 341.44 765.8 311.39 745.88"/><polygon class="cls-8" points="312.29 704.88 312.36 734.88 342.41 754.8 372.36 734.73 372.29 704.73 342.34 724.8 312.29 704.88"/><polygon class="cls-9" points="312.2 665.88 312.27 695.88 342.31 715.8 372.27 695.73 372.19 665.73 342.24 685.8 312.2 665.88"/><polygon class="cls-8" points="312.2 21.51 312.27 51.51 342.32 71.44 372.27 51.37 372.2 21.37 342.25 41.44 312.2 21.51"/><polygon class="cls-8" points="312.48 141.51 312.56 171.51 342.6 191.44 372.56 171.37 372.48 141.37 342.53 161.44 312.48 141.51"/><polygon class="cls-10" points="313.39 100.51 313.46 130.51 343.51 150.44 373.46 130.36 373.39 100.36 343.43 120.44 313.39 100.51"/><polygon class="cls-9" points="313.29 61.51 313.36 91.51 343.41 111.44 373.36 91.36 373.29 61.36 343.34 81.44 313.29 61.51"/><polygon class="cls-10" points="311.77 261.51 311.84 291.51 341.89 311.44 371.84 291.37 371.77 261.37 341.82 281.44 311.77 261.51"/><polygon class="cls-8" points="312.67 220.51 312.75 250.51 342.79 270.44 372.75 250.37 372.67 220.37 342.72 240.44 312.67 220.51"/><polygon class="cls-9" points="312.58 181.51 312.65 211.51 342.7 231.44 372.65 211.37 372.58 181.37 342.63 201.44 312.58 181.51"/></g></g></svg>