<svg xmlns="http://www.w3.org/2000/svg" viewBox="0 0 2965.63 778.33"><defs><style>.cls-1,.cls-2{fill:#fff;stroke-miterlimit:10;stroke-width:12px;}.cls-1{stroke:#83bd84;}.cls-2{stroke:#802fcb;}</style></defs><title>squiggles</title><g id="Layer_2" data-name="Layer 2"><g id="Layer_1-2" data-name="Layer 1"><path class="cls-1" d="M1711.24,150.09l56-56-37-32,54-58"/><path class="cls-2" d="M1923.24,150.09l56-56-37-32,54-58"/><path class="cls-1" d="M1126.24,150.09l56-56-37-32,54-58"/><path class="cls-2" d="M1338.24,150.09l56-56-37-32,54-58"/><path class="cls-1" d="M589.24,150.09l56-56-37-32,54-58"/><path class="cls-2" d="M801.24,150.09l56-56-37-32,54-58"/><path class="cls-1" d="M4.24,150.09l56-56-37-32,54-58"/><path class="cls-2" d="M216.24,150.09l56-56-37-32,54-58"/><path class="cls-1" d="M1503.24,358.09l56-56-37-32,54-58"/><path class="cls-2" d="M1715.24,358.09l56-56-37-32,54-58"/><path class="cls-1" d="M918.24,358.09l56-56-37-32,54-58"/><path class="cls-2" d="M1130.24,358.09l56-56-37-32,54-58"/><path class="cls-1" d="M2676.24,358.09l56-56-37-32,54-58"/><path class="cls-2" d="M2888.24,358.09l56-56-37-32,54-58"/><path class="cls-1" d="M2091.24,358.09l56-56-37-32,54-58"/><path class="cls-2" d="M2303.24,358.09l56-56-37-32,54-58"/><path class="cls-1" d="M1295.24,566.09l56-56-37-32,54-58"/><path class="cls-2" d="M1507.24,566.09l56-56-37-32,54-58"/><path class="cls-1" d="M710.24,566.09l56-56-37-32,54-58"/><path class="cls-2" d="M922.24,566.09l56-56-37-32,54-58"/><path class="cls-1" d="M2391.24,566.09l56-56-37-32,54-58"/><path class="cls-2" d="M2603.24,566.09l56-56-37-32,54-58"/><path class="cls-1" d="M1806.24,566.09l56-56-37-32,54-58"/><path class="cls-2" d="M2018.24,566.09l56-56-37-32,54-58"/><path class="cls-1" d="M1087.24,774.09l56-56-37-32,54-58"/><path class="cls-2" d="M1299.24,774.09l56-56-37-32,54-58"/><path class="cls-1" d="M502.24,774.09l56-56-37-32,54-58"/><path class="cls-2" d="M714.24,774.09l56-56-37-32,54-58"/></g></g></svg>